<?xml version="1.0" encoding="us-ascii" standalone="no"?><svg xmlns="http://www.w3.org/2000/svg" xmlns:xlink="http://www.w3.org/1999/xlink" contentStyleType="text/css" height="285px" preserveAspectRatio="none" style="width:223px;height:285px;background:#FFFFFF;" version="1.1" viewBox="0 0 223 285" width="223px" zoomAndPan="magnify"><defs/><g><!--class src/routes/workflow/trigger/[id]/view/CustomNode.svelte.ts--><g id="elem_src/routes/workflow/trigger/[id]/view/CustomNode.svelte.ts"><rect codeLine="11" fill="#F6F2FF" height="264.125" id="src/routes/workflow/trigger/[id]/view/CustomNode.svelte.ts" rx="2.5" ry="2.5" style="stroke:#181818;stroke-width:0.5;" width="202" x="7" y="7"/><ellipse cx="58.25" cy="27.1328" fill="#9977DD" rx="11" ry="11" style="stroke:#181818;stroke-width:1.0;"/><path d="M61.2188,32.7734 Q60.6406,33.0703 60,33.2109 Q59.3594,33.3672 58.6563,33.3672 Q56.1563,33.3672 54.8281,31.7266 Q53.5156,30.0703 53.5156,26.9453 Q53.5156,23.8203 54.8281,22.1641 Q56.1563,20.5078 58.6563,20.5078 Q59.3594,20.5078 60,20.6641 Q60.6563,20.8203 61.2188,21.1172 L61.2188,23.8359 Q60.5938,23.2578 60,22.9922 Q59.4063,22.7109 58.7813,22.7109 Q57.4375,22.7109 56.75,23.7891 Q56.0625,24.8516 56.0625,26.9453 Q56.0625,29.0391 56.75,30.1172 Q57.4375,31.1797 58.7813,31.1797 Q59.4063,31.1797 60,30.9141 Q60.5938,30.6328 61.2188,30.0547 L61.2188,32.7734 Z " fill="#000000"/><text fill="#000000" font-family="Cantarell" font-size="12" font-style="italic" lengthAdjust="spacing" textLength="86" x="81.25" y="23.1387">&#171;Component&#187;</text><text fill="#000000" font-family="Cantarell" font-size="14" lengthAdjust="spacing" textLength="91" x="78.75" y="38.9639">CustomNode</text><line style="stroke:#181818;stroke-width:0.5;" x1="8" x2="208" y1="47.2656" y2="47.2656"/><ellipse cx="18" cy="81.2109" fill="none" rx="3" ry="3" style="stroke:#038048;stroke-width:1.0;"/><text fill="#000000" font-family="Cantarell" font-size="14" lengthAdjust="spacing" textLength="17" x="27" y="84.5576">id:</text><text fill="#DF8E1D" font-family="Cantarell" font-size="14" font-style="italic" lengthAdjust="spacing" textLength="4" x="48" y="84.5576">&#160;</text><text fill="#8839EF" font-family="Cantarell" font-size="14" lengthAdjust="spacing" textLength="39" x="52" y="84.5576">string</text><ellipse cx="18" cy="97.5078" fill="none" rx="3" ry="3" style="stroke:#038048;stroke-width:1.0;"/><text fill="#000000" font-family="Cantarell" font-size="14" lengthAdjust="spacing" textLength="35" x="27" y="100.8545">data:</text><text fill="#DF8E1D" font-family="Cantarell" font-size="14" font-style="italic" lengthAdjust="spacing" textLength="4" x="66" y="100.8545">&#160;</text><text fill="#8839EF" font-family="Cantarell" font-size="14" lengthAdjust="spacing" textLength="24" x="70" y="100.8545">any</text><ellipse cx="18" cy="113.8047" fill="none" rx="3" ry="3" style="stroke:#038048;stroke-width:1.0;"/><text fill="#000000" font-family="Cantarell" font-size="14" lengthAdjust="spacing" textLength="91" x="27" y="117.1514">dragHandle?:</text><text fill="#DF8E1D" font-family="Cantarell" font-size="14" font-style="italic" lengthAdjust="spacing" textLength="4" x="122" y="117.1514">&#160;</text><text fill="#8839EF" font-family="Cantarell" font-size="14" lengthAdjust="spacing" textLength="39" x="126" y="117.1514">string</text><ellipse cx="18" cy="130.1016" fill="none" rx="3" ry="3" style="stroke:#038048;stroke-width:1.0;"/><text fill="#000000" font-family="Cantarell" font-size="14" lengthAdjust="spacing" textLength="42" x="27" y="133.4482">type?:</text><text fill="#DF8E1D" font-family="Cantarell" font-size="14" font-style="italic" lengthAdjust="spacing" textLength="4" x="73" y="133.4482">&#160;</text><text fill="#8839EF" font-family="Cantarell" font-size="14" lengthAdjust="spacing" textLength="39" x="77" y="133.4482">string</text><ellipse cx="18" cy="146.3984" fill="none" rx="3" ry="3" style="stroke:#038048;stroke-width:1.0;"/><text fill="#000000" font-family="Cantarell" font-size="14" lengthAdjust="spacing" textLength="72" x="27" y="149.7451">selected?:</text><text fill="#DF8E1D" font-family="Cantarell" font-size="14" font-style="italic" lengthAdjust="spacing" textLength="4" x="103" y="149.7451">&#160;</text><text fill="#8839EF" font-family="Cantarell" font-size="14" lengthAdjust="spacing" textLength="56" x="107" y="149.7451">boolean</text><ellipse cx="18" cy="162.6953" fill="none" rx="3" ry="3" style="stroke:#038048;stroke-width:1.0;"/><text fill="#000000" font-family="Cantarell" font-size="14" lengthAdjust="spacing" textLength="111" x="27" y="166.042">isConnectable?:</text><text fill="#DF8E1D" font-family="Cantarell" font-size="14" font-style="italic" lengthAdjust="spacing" textLength="4" x="142" y="166.042">&#160;</text><text fill="#8839EF" font-family="Cantarell" font-size="14" lengthAdjust="spacing" textLength="56" x="146" y="166.042">boolean</text><ellipse cx="18" cy="178.9922" fill="none" rx="3" ry="3" style="stroke:#038048;stroke-width:1.0;"/><text fill="#000000" font-family="Cantarell" font-size="14" lengthAdjust="spacing" textLength="57" x="27" y="182.3389">zIndex?:</text><text fill="#DF8E1D" font-family="Cantarell" font-size="14" font-style="italic" lengthAdjust="spacing" textLength="4" x="88" y="182.3389">&#160;</text><text fill="#8839EF" font-family="Cantarell" font-size="14" lengthAdjust="spacing" textLength="54" x="92" y="182.3389">number</text><ellipse cx="18" cy="195.2891" fill="none" rx="3" ry="3" style="stroke:#038048;stroke-width:1.0;"/><text fill="#000000" font-family="Cantarell" font-size="14" lengthAdjust="spacing" textLength="38" x="27" y="198.6357">xPos:</text><text fill="#DF8E1D" font-family="Cantarell" font-size="14" font-style="italic" lengthAdjust="spacing" textLength="4" x="69" y="198.6357">&#160;</text><text fill="#8839EF" font-family="Cantarell" font-size="14" lengthAdjust="spacing" textLength="54" x="73" y="198.6357">number</text><ellipse cx="18" cy="211.5859" fill="none" rx="3" ry="3" style="stroke:#038048;stroke-width:1.0;"/><text fill="#000000" font-family="Cantarell" font-size="14" lengthAdjust="spacing" textLength="38" x="27" y="214.9326">yPos:</text><text fill="#DF8E1D" font-family="Cantarell" font-size="14" font-style="italic" lengthAdjust="spacing" textLength="4" x="69" y="214.9326">&#160;</text><text fill="#8839EF" font-family="Cantarell" font-size="14" lengthAdjust="spacing" textLength="54" x="73" y="214.9326">number</text><ellipse cx="18" cy="227.8828" fill="none" rx="3" ry="3" style="stroke:#038048;stroke-width:1.0;"/><text fill="#000000" font-family="Cantarell" font-size="14" lengthAdjust="spacing" textLength="66" x="27" y="231.2295">dragging:</text><text fill="#DF8E1D" font-family="Cantarell" font-size="14" font-style="italic" lengthAdjust="spacing" textLength="4" x="97" y="231.2295">&#160;</text><text fill="#8839EF" font-family="Cantarell" font-size="14" lengthAdjust="spacing" textLength="56" x="101" y="231.2295">boolean</text><ellipse cx="18" cy="244.1797" fill="none" rx="3" ry="3" style="stroke:#038048;stroke-width:1.0;"/><text fill="#000000" font-family="Cantarell" font-size="14" lengthAdjust="spacing" textLength="108" x="27" y="247.5264">targetPosition?:</text><text fill="#DF8E1D" font-family="Cantarell" font-size="14" font-style="italic" lengthAdjust="spacing" textLength="53" x="143" y="247.5264">Position</text><ellipse cx="18" cy="260.4766" fill="none" rx="3" ry="3" style="stroke:#038048;stroke-width:1.0;"/><text fill="#000000" font-family="Cantarell" font-size="14" lengthAdjust="spacing" textLength="115" x="27" y="263.8232">sourcePosition?:</text><text fill="#DF8E1D" font-family="Cantarell" font-size="14" font-style="italic" lengthAdjust="spacing" textLength="53" x="150" y="263.8232">Position</text><line style="stroke:#181818;stroke-width:0.5;" x1="8" x2="72.5" y1="63.4141" y2="63.4141"/><text fill="#000000" font-family="Cantarell" font-size="14" lengthAdjust="spacing" textLength="71" x="72.5" y="67.7607">Properties</text><line style="stroke:#181818;stroke-width:0.5;" x1="143.5" x2="208" y1="63.4141" y2="63.4141"/></g><!--SRC=[hPHHQzim4CVVyocEvgLZfLuskYR1U50dOOLHmlOuHhbO9qz4rXdftDGR_UwLMx9wu9UqUPJkVx_xt-bG8850DNeKzZ2VZyBMkEvOGUcvgQ_TR_96q1K45xsW8esDbHKxkS6A84SdwCdQdgR6Oeib_P3M4dod8b9AIpr1OJ44-3i2k8hIhfvJELlsQPfpLRCZ9ra6O_rPVzHwIBRqdlqw5kbafDI49aEoRzXoyuoQQaqNGvezHMlz8IeUHi_kJl8c25SthEW4C43mHHBJX4AoOx_LbdU9U5EMv9EVHlrAxWpjafUayt17LkXS0gGfdEPdC9xDBYyNYtVmhqU8TRiftDx2sdDDNWo5U8fNxusQGrfq5kVZnMgwd2oor6IG9YPBawVxR1-UJZ_DbgiiH3kkt0SxXaB1GodeslyG7iklw9IbBs_t8srz34mW6vUArC6e3RCbT7sM2Jaxr-tevXKj3W3_N3j5zmUJN5DjoFT1zsiERwUqHw5qMr36LpZ2VE9lKP94LqOCk-4vxQDzyjF3S-CBUaNkmoC0]--></g></svg>