<?xml version="1.0" encoding="us-ascii" standalone="no"?><svg xmlns="http://www.w3.org/2000/svg" xmlns:xlink="http://www.w3.org/1999/xlink" contentStyleType="text/css" height="663px" preserveAspectRatio="none" style="width:1149px;height:663px;background:#FFFFFF;" version="1.1" viewBox="0 0 1149 663" width="1149px" zoomAndPan="magnify"><defs/><g><rect fill="#DDDDDD" height="644.6875" style="stroke:#181818;stroke-width:0.5;" width="777.5" x="269.5" y="6"/><text fill="#000000" font-family="sans-serif" font-size="13" font-weight="bold" lengthAdjust="spacing" textLength="70" x="623.25" y="18.0669">Frontend</text><rect fill="#FFFFFF" height="556.3906" style="stroke:#181818;stroke-width:1.0;" width="10" x="320.5" y="91.2969"/><rect fill="#FFFFFF" height="326.4609" style="stroke:#181818;stroke-width:1.0;" width="10" x="325.5" y="205.8281"/><rect fill="#FFFFFF" height="29.1328" style="stroke:#181818;stroke-width:1.0;" width="10" x="549.5" y="234.9609"/><rect fill="#FFFFFF" height="151.6641" style="stroke:#181818;stroke-width:1.0;" width="10" x="702.5" y="351.4922"/><rect fill="#FFFFFF" height="556.3906" style="stroke:#181818;stroke-width:1.0;" width="10" x="1095.5" y="91.2969"/><line style="stroke:#181818;stroke-width:0.5;stroke-dasharray:5.0,5.0;" x1="23" x2="23" y1="81.2969" y2="656.6875"/><line style="stroke:#181818;stroke-width:0.5;stroke-dasharray:5.0,5.0;" x1="325.5" x2="325.5" y1="81.2969" y2="656.6875"/><line style="stroke:#181818;stroke-width:0.5;stroke-dasharray:5.0,5.0;" x1="554" x2="554" y1="81.2969" y2="656.6875"/><line style="stroke:#181818;stroke-width:0.5;stroke-dasharray:5.0,5.0;" x1="707" x2="707" y1="81.2969" y2="656.6875"/><line style="stroke:#181818;stroke-width:0.5;stroke-dasharray:5.0,5.0;" x1="860" x2="860" y1="81.2969" y2="656.6875"/><line style="stroke:#181818;stroke-width:0.5;stroke-dasharray:5.0,5.0;" x1="985" x2="985" y1="81.2969" y2="656.6875"/><line style="stroke:#181818;stroke-width:0.5;stroke-dasharray:5.0,5.0;" x1="1100" x2="1100" y1="81.2969" y2="656.6875"/><text fill="#000000" font-family="sans-serif" font-size="14" lengthAdjust="spacing" textLength="31" x="5" y="77.9951">User</text><ellipse cx="23.5" cy="13.5" fill="#E2E2F0" rx="8" ry="8" style="stroke:#181818;stroke-width:0.5;"/><path d="M23.5,21.5 L23.5,48.5 M10.5,29.5 L36.5,29.5 M23.5,48.5 L10.5,63.5 M23.5,48.5 L36.5,63.5 " fill="none" style="stroke:#181818;stroke-width:0.5;"/><rect fill="#E2E2F0" height="30.2969" rx="2.5" ry="2.5" style="stroke:#181818;stroke-width:0.5;" width="104" x="273.5" y="50"/><text fill="#000000" font-family="sans-serif" font-size="14" lengthAdjust="spacing" textLength="90" x="280.5" y="69.9951">Event Graph</text><rect fill="#E2E2F0" height="46.5938" rx="2.5" ry="2.5" style="stroke:#181818;stroke-width:0.5;" width="115" x="497" y="33.7031"/><text fill="#000000" font-family="sans-serif" font-size="14" font-style="italic" lengthAdjust="spacing" textLength="101" x="504" y="53.6982">&#171;Component&#187;</text><text fill="#000000" font-family="sans-serif" font-size="14" lengthAdjust="spacing" textLength="99" x="505" y="69.9951">Options Menu</text><rect fill="#E2E2F0" height="46.5938" rx="2.5" ry="2.5" style="stroke:#181818;stroke-width:0.5;" width="171" x="622" y="33.7031"/><text fill="#000000" font-family="sans-serif" font-size="14" font-style="italic" lengthAdjust="spacing" textLength="101" x="657" y="53.6982">&#171;Component&#187;</text><text fill="#000000" font-family="sans-serif" font-size="14" lengthAdjust="spacing" textLength="157" x="629" y="69.9951">'Add Reference' Menu</text><rect fill="#E2E2F0" height="46.5938" rx="2.5" ry="2.5" style="stroke:#181818;stroke-width:0.5;" width="115" x="803" y="33.7031"/><text fill="#000000" font-family="sans-serif" font-size="14" font-style="italic" lengthAdjust="spacing" textLength="101" x="810" y="53.6982">&#171;Component&#187;</text><text fill="#000000" font-family="sans-serif" font-size="14" lengthAdjust="spacing" textLength="66" x="827.5" y="69.9951">TopMenu</text><rect fill="#E2E2F0" height="46.5938" rx="2.5" ry="2.5" style="stroke:#181818;stroke-width:0.5;" width="115" x="928" y="33.7031"/><text fill="#000000" font-family="sans-serif" font-size="14" font-style="italic" lengthAdjust="spacing" textLength="101" x="935" y="53.6982">&#171;Component&#187;</text><text fill="#000000" font-family="sans-serif" font-size="14" lengthAdjust="spacing" textLength="48" x="961.5" y="69.9951">Layout</text><text fill="#000000" font-family="sans-serif" font-size="14" lengthAdjust="spacing" textLength="89" x="1053" y="77.9951">Backend API</text><path d="M1082.5,29 C1082.5,19 1100.5,19 1100.5,19 C1100.5,19 1118.5,19 1118.5,29 L1118.5,55 C1118.5,65 1100.5,65 1100.5,65 C1100.5,65 1082.5,65 1082.5,55 L1082.5,29 " fill="#E2E2F0" style="stroke:#181818;stroke-width:1.5;"/><path d="M1082.5,29 C1082.5,39 1100.5,39 1100.5,39 C1100.5,39 1118.5,39 1118.5,29 " fill="none" style="stroke:#181818;stroke-width:1.5;"/><rect fill="#FFFFFF" height="556.3906" style="stroke:#181818;stroke-width:1.0;" width="10" x="320.5" y="91.2969"/><rect fill="#FFFFFF" height="326.4609" style="stroke:#181818;stroke-width:1.0;" width="10" x="325.5" y="205.8281"/><rect fill="#FFFFFF" height="29.1328" style="stroke:#181818;stroke-width:1.0;" width="10" x="549.5" y="234.9609"/><rect fill="#FFFFFF" height="151.6641" style="stroke:#181818;stroke-width:1.0;" width="10" x="702.5" y="351.4922"/><rect fill="#FFFFFF" height="556.3906" style="stroke:#181818;stroke-width:1.0;" width="10" x="1095.5" y="91.2969"/><path d="M181,96.2969 L181,121.2969 L470,121.2969 L470,106.2969 L460,96.2969 L181,96.2969 " fill="#FEFFDD" style="stroke:#181818;stroke-width:0.5;"/><path d="M460,96.2969 L460,106.2969 L470,106.2969 L460,96.2969 " fill="#FEFFDD" style="stroke:#181818;stroke-width:0.5;"/><text fill="#000000" font-family="sans-serif" font-size="13" lengthAdjust="spacing" textLength="268" x="187" y="113.3638">Unreferenced objects/attributes displayed</text><polygon fill="#181818" points="848.5,143.5625,858.5,147.5625,848.5,151.5625,852.5,147.5625" style="stroke:#181818;stroke-width:1.0;"/><line style="stroke:#181818;stroke-width:1.0;" x1="23.5" x2="854.5" y1="147.5625" y2="147.5625"/><text fill="#000000" font-family="sans-serif" font-size="13" lengthAdjust="spacing" textLength="109" x="30.5" y="142.4966">toggle edit mode</text><polygon fill="#181818" points="973.5,172.6953,983.5,176.6953,973.5,180.6953,977.5,176.6953" style="stroke:#181818;stroke-width:1.0;"/><line style="stroke:#181818;stroke-width:1.0;stroke-dasharray:2.0,2.0;" x1="860.5" x2="979.5" y1="176.6953" y2="176.6953"/><text fill="#000000" font-family="sans-serif" font-size="13" lengthAdjust="spacing" textLength="91" x="867.5" y="171.6294">state changes</text><polygon fill="#181818" points="346.5,201.8281,336.5,205.8281,346.5,209.8281,342.5,205.8281" style="stroke:#181818;stroke-width:1.0;"/><line style="stroke:#181818;stroke-width:1.0;" x1="340.5" x2="984.5" y1="205.8281" y2="205.8281"/><text fill="#000000" font-family="sans-serif" font-size="13" lengthAdjust="spacing" textLength="103" x="352.5" y="200.7622">enter edit mode</text><polygon fill="#181818" points="537.5,230.9609,547.5,234.9609,537.5,238.9609,541.5,234.9609" style="stroke:#181818;stroke-width:1.0;"/><line style="stroke:#181818;stroke-width:1.0;" x1="23.5" x2="543.5" y1="234.9609" y2="234.9609"/><text fill="#000000" font-family="sans-serif" font-size="13" lengthAdjust="spacing" textLength="190" x="30.5" y="229.895">click " Add Reference " button</text><polygon fill="#181818" points="346.5,260.0938,336.5,264.0938,346.5,268.0938,342.5,264.0938" style="stroke:#181818;stroke-width:1.0;"/><line style="stroke:#181818;stroke-width:1.0;" x1="340.5" x2="553.5" y1="264.0938" y2="264.0938"/><text fill="#000000" font-family="sans-serif" font-size="13" lengthAdjust="spacing" textLength="190" x="352.5" y="259.0278">initiate "add reference" action</text><polygon fill="#181818" points="34.5,289.2266,24.5,293.2266,34.5,297.2266,30.5,293.2266" style="stroke:#181818;stroke-width:1.0;"/><line style="stroke:#181818;stroke-width:1.0;" x1="28.5" x2="324.5" y1="293.2266" y2="293.2266"/><text fill="#000000" font-family="sans-serif" font-size="13" lengthAdjust="spacing" textLength="273" x="40.5" y="288.1606">allow dragging an edge from node to node</text><polygon fill="#181818" points="313.5,318.3594,323.5,322.3594,313.5,326.3594,317.5,322.3594" style="stroke:#181818;stroke-width:1.0;"/><line style="stroke:#181818;stroke-width:1.0;" x1="23.5" x2="319.5" y1="322.3594" y2="322.3594"/><text fill="#000000" font-family="sans-serif" font-size="13" lengthAdjust="spacing" textLength="126" x="30.5" y="317.2935">drag new reference</text><polygon fill="#181818" points="690.5,347.4922,700.5,351.4922,690.5,355.4922,694.5,351.4922" style="stroke:#181818;stroke-width:1.0;"/><line style="stroke:#181818;stroke-width:1.0;" x1="335.5" x2="696.5" y1="351.4922" y2="351.4922"/><text fill="#000000" font-family="sans-serif" font-size="13" lengthAdjust="spacing" textLength="180" x="342.5" y="346.4263">initiate "enter values" action</text><path d="M611,364.4922 L611,389.4922 L804,389.4922 L804,374.4922 L794,364.4922 L611,364.4922 " fill="#FEFFDD" style="stroke:#181818;stroke-width:0.5;"/><path d="M794,364.4922 L794,374.4922 L804,374.4922 L794,364.4922 " fill="#FEFFDD" style="stroke:#181818;stroke-width:0.5;"/><text fill="#000000" font-family="sans-serif" font-size="13" lengthAdjust="spacing" textLength="172" x="617" y="381.5591">Reference menu displayed</text><polygon fill="#181818" points="34.5,411.7578,24.5,415.7578,34.5,419.7578,30.5,415.7578" style="stroke:#181818;stroke-width:1.0;"/><line style="stroke:#181818;stroke-width:1.0;stroke-dasharray:2.0,2.0;" x1="28.5" x2="701.5" y1="415.7578" y2="415.7578"/><text fill="#000000" font-family="sans-serif" font-size="13" lengthAdjust="spacing" textLength="269" x="40.5" y="410.6919">input form for attributes of new reference</text><polygon fill="#181818" points="690.5,440.8906,700.5,444.8906,690.5,448.8906,694.5,444.8906" style="stroke:#181818;stroke-width:1.0;"/><line style="stroke:#181818;stroke-width:1.0;" x1="23.5" x2="696.5" y1="444.8906" y2="444.8906"/><text fill="#000000" font-family="sans-serif" font-size="13" lengthAdjust="spacing" textLength="113" x="30.5" y="439.8247">submit filled form</text><polygon fill="#181818" points="1083.5,470.0234,1093.5,474.0234,1083.5,478.0234,1087.5,474.0234" style="stroke:#181818;stroke-width:1.0;"/><line style="stroke:#181818;stroke-width:1.0;" x1="712.5" x2="1089.5" y1="474.0234" y2="474.0234"/><text fill="#000000" font-family="sans-serif" font-size="13" lengthAdjust="spacing" textLength="119" x="719.5" y="468.9575">send save request</text><polygon fill="#181818" points="718.5,499.1563,708.5,503.1563,718.5,507.1563,714.5,503.1563" style="stroke:#181818;stroke-width:1.0;"/><line style="stroke:#181818;stroke-width:1.0;stroke-dasharray:2.0,2.0;" x1="712.5" x2="1094.5" y1="503.1563" y2="503.1563"/><text fill="#000000" font-family="sans-serif" font-size="13" lengthAdjust="spacing" textLength="51" x="724.5" y="498.0903">success</text><polygon fill="#181818" points="973.5,528.2891,983.5,532.2891,973.5,536.2891,977.5,532.2891" style="stroke:#181818;stroke-width:1.0;"/><line style="stroke:#181818;stroke-width:1.0;" x1="330.5" x2="979.5" y1="532.2891" y2="532.2891"/><text fill="#000000" font-family="sans-serif" font-size="13" lengthAdjust="spacing" textLength="93" x="337.5" y="527.2231">exit edit mode</text><polygon fill="#181818" points="871.5,557.4219,861.5,561.4219,871.5,565.4219,867.5,561.4219" style="stroke:#181818;stroke-width:1.0;"/><line style="stroke:#181818;stroke-width:1.0;" x1="865.5" x2="984.5" y1="561.4219" y2="561.4219"/><text fill="#000000" font-family="sans-serif" font-size="13" lengthAdjust="spacing" textLength="71" x="877.5" y="556.356">view mode</text><line style="stroke:#181818;stroke-width:1.0;" x1="330.5" x2="372.5" y1="590.5547" y2="590.5547"/><line style="stroke:#181818;stroke-width:1.0;" x1="372.5" x2="372.5" y1="590.5547" y2="603.5547"/><line style="stroke:#181818;stroke-width:1.0;" x1="331.5" x2="372.5" y1="603.5547" y2="603.5547"/><polygon fill="#181818" points="341.5,599.5547,331.5,603.5547,341.5,607.5547,337.5,603.5547" style="stroke:#181818;stroke-width:1.0;"/><text fill="#000000" font-family="sans-serif" font-size="13" lengthAdjust="spacing" textLength="146" x="337.5" y="585.4888">add newly added edge</text><path d="M246,616.5547 L246,641.5547 L405,641.5547 L405,626.5547 L395,616.5547 L246,616.5547 " fill="#FEFFDD" style="stroke:#181818;stroke-width:0.5;"/><path d="M395,616.5547 L395,626.5547 L405,626.5547 L395,616.5547 " fill="#FEFFDD" style="stroke:#181818;stroke-width:0.5;"/><text fill="#000000" font-family="sans-serif" font-size="13" lengthAdjust="spacing" textLength="138" x="252" y="633.6216">New reference added</text><!--SRC=[XLDDRzim3BthLn2-z1JiRXG1kc4R1kmBm_e3P8bnjDgY9ibk- -z7EeajEnbwiKIPfDvxV3ewYt0WoWszAALDfWYF2IFe10ElYi-X-XJ9P_IsKa77x8mBscUeFex8o-Uemx6I0fIubN2TzoDaHpx1D_J3b4WXzxo7-_iFr0VoNBRVhslk7go5NtZ0YDxWtLAhhOsNupUQ_AOWPLALARoH_5M_qf0bjpljrgdC7aGZgxDkT4Aetclp9ASFFx-SW0KtAUX6dN6Avg0GnXF7DBB2oo7KyEXdKXQe-OCcftSwv-YQ8MC2wr9WN6YLah70RZzJgddNjXtVObs6dYogowyTfvtPr92oG357xLjCwdpC2IiSl1LeSwTR56O4vp7MO3fddg22rSmuPkoP_DBaNA3KnG2hwsjmtcKdYHLF6MP5M5uZ3b8MhriLyBcRGAj1TnqzWuswRPrlGNjcrBBF8_NWcHOhDgqBbHA5r877vmN0zfQj1qla9mL7tGsOPk2bCJQrXIEksovYJd8LBhXw1hiBU-S33_P0iPSF52QYmvRMXVxrpMbeUZR1mNKTErAwtRfpBpxdP7a7IO_8lVyoxyovmKsGRdKs1bCgXtcboKRlsSFumfWMTnOj2dykrbwUoEYO-5IpxLrENbp72dMlicFQuXhrloVxlPJoLF0F]--></g></svg>