<?xml version="1.0" encoding="us-ascii" standalone="no"?><svg xmlns="http://www.w3.org/2000/svg" xmlns:xlink="http://www.w3.org/1999/xlink" contentStyleType="text/css" height="570px" preserveAspectRatio="none" style="width:652px;height:570px;background:#FFFFFF;" version="1.1" viewBox="0 0 652 570" width="652px" zoomAndPan="magnify"><defs/><g><rect fill="#DDDDDD" height="551.2891" style="stroke:#181818;stroke-width:0.5;" width="488" x="65" y="6"/><text fill="#000000" font-family="sans-serif" font-size="13" font-weight="bold" lengthAdjust="spacing" textLength="67" x="275.5" y="18.0669">Frontend</text><rect fill="#FFFFFF" height="366.5938" style="stroke:#181818;stroke-width:1.0;" width="10" x="104" y="91.2969"/><rect fill="#FFFFFF" height="252.0625" style="stroke:#181818;stroke-width:1.0;" width="10" x="109" y="205.8281"/><rect fill="#FFFFFF" height="249.0625" style="stroke:#181818;stroke-width:1.0;" width="10" x="204" y="296.2266"/><line style="stroke:#181818;stroke-width:0.5;stroke-dasharray:5.0,5.0;" x1="40" x2="40" y1="81.2969" y2="563.2891"/><line style="stroke:#181818;stroke-width:0.5;stroke-dasharray:5.0,5.0;" x1="109" x2="109" y1="81.2969" y2="563.2891"/><line style="stroke:#181818;stroke-width:0.5;stroke-dasharray:5.0,5.0;" x1="209" x2="209" y1="81.2969" y2="563.2891"/><line style="stroke:#181818;stroke-width:0.5;stroke-dasharray:5.0,5.0;" x1="368" x2="368" y1="81.2969" y2="563.2891"/><line style="stroke:#181818;stroke-width:0.5;stroke-dasharray:5.0,5.0;" x1="492" x2="492" y1="81.2969" y2="563.2891"/><line style="stroke:#181818;stroke-width:0.5;stroke-dasharray:5.0,5.0;" x1="605" x2="605" y1="81.2969" y2="563.2891"/><text fill="#000000" font-family="sans-serif" font-size="14" lengthAdjust="spacing" textLength="32" x="21" y="77.9951">User</text><ellipse cx="40" cy="13.5" fill="#E2E2F0" rx="8" ry="8" style="stroke:#181818;stroke-width:0.5;"/><path d="M40,21.5 L40,48.5 M27,29.5 L53,29.5 M40,48.5 L27,63.5 M40,48.5 L53,63.5 " fill="none" style="stroke:#181818;stroke-width:0.5;"/><rect fill="#E2E2F0" height="30.2969" rx="2.5" ry="2.5" style="stroke:#181818;stroke-width:0.5;" width="80" x="69" y="50"/><text fill="#000000" font-family="sans-serif" font-size="14" lengthAdjust="spacing" textLength="66" x="76" y="69.9951">Event List</text><rect fill="#E2E2F0" height="30.2969" rx="2.5" ry="2.5" style="stroke:#181818;stroke-width:0.5;" width="100" x="159" y="50"/><text fill="#000000" font-family="sans-serif" font-size="14" lengthAdjust="spacing" textLength="86" x="166" y="69.9951">/events/new</text><rect fill="#E2E2F0" height="46.5938" rx="2.5" ry="2.5" style="stroke:#181818;stroke-width:0.5;" width="114" x="311" y="33.7031"/><text fill="#000000" font-family="sans-serif" font-size="14" font-style="italic" lengthAdjust="spacing" textLength="100" x="318" y="53.6982">&#171;Component&#187;</text><text fill="#000000" font-family="sans-serif" font-size="14" lengthAdjust="spacing" textLength="66" x="335" y="69.9951">TopMenu</text><rect fill="#E2E2F0" height="46.5938" rx="2.5" ry="2.5" style="stroke:#181818;stroke-width:0.5;" width="114" x="435" y="33.7031"/><text fill="#000000" font-family="sans-serif" font-size="14" font-style="italic" lengthAdjust="spacing" textLength="100" x="442" y="53.6982">&#171;Component&#187;</text><text fill="#000000" font-family="sans-serif" font-size="14" lengthAdjust="spacing" textLength="45" x="469.5" y="69.9951">Layout</text><text fill="#000000" font-family="sans-serif" font-size="14" lengthAdjust="spacing" textLength="86" x="559" y="77.9951">Backend API</text><path d="M587,29 C587,19 605,19 605,19 C605,19 623,19 623,29 L623,55 C623,65 605,65 605,65 C605,65 587,65 587,55 L587,29 " fill="#E2E2F0" style="stroke:#181818;stroke-width:1.5;"/><path d="M587,29 C587,39 605,39 605,39 C605,39 623,39 623,29 " fill="none" style="stroke:#181818;stroke-width:1.5;"/><rect fill="#FFFFFF" height="366.5938" style="stroke:#181818;stroke-width:1.0;" width="10" x="104" y="91.2969"/><rect fill="#FFFFFF" height="252.0625" style="stroke:#181818;stroke-width:1.0;" width="10" x="109" y="205.8281"/><rect fill="#FFFFFF" height="249.0625" style="stroke:#181818;stroke-width:1.0;" width="10" x="204" y="296.2266"/><path d="M30,96.2969 L30,121.2969 L187,121.2969 L187,106.2969 L177,96.2969 L30,96.2969 " fill="#FEFFDD" style="stroke:#181818;stroke-width:0.5;"/><path d="M177,96.2969 L177,106.2969 L187,106.2969 L177,96.2969 " fill="#FEFFDD" style="stroke:#181818;stroke-width:0.5;"/><text fill="#000000" font-family="sans-serif" font-size="13" lengthAdjust="spacing" textLength="136" x="36" y="113.3638">event list is displayed</text><polygon fill="#181818" points="356,143.5625,366,147.5625,356,151.5625,360,147.5625" style="stroke:#181818;stroke-width:1.0;"/><line style="stroke:#181818;stroke-width:1.0;" x1="40" x2="362" y1="147.5625" y2="147.5625"/><text fill="#000000" font-family="sans-serif" font-size="13" lengthAdjust="spacing" textLength="109" x="47" y="142.4966">toggle edit mode</text><polygon fill="#181818" points="480,172.6953,490,176.6953,480,180.6953,484,176.6953" style="stroke:#181818;stroke-width:1.0;"/><line style="stroke:#181818;stroke-width:1.0;stroke-dasharray:2.0,2.0;" x1="368" x2="486" y1="176.6953" y2="176.6953"/><text fill="#000000" font-family="sans-serif" font-size="13" lengthAdjust="spacing" textLength="91" x="375" y="171.6294">state changes</text><polygon fill="#181818" points="130,201.8281,120,205.8281,130,209.8281,126,205.8281" style="stroke:#181818;stroke-width:1.0;"/><line style="stroke:#181818;stroke-width:1.0;" x1="124" x2="491" y1="205.8281" y2="205.8281"/><text fill="#000000" font-family="sans-serif" font-size="13" lengthAdjust="spacing" textLength="103" x="136" y="200.7622">enter edit mode</text><polygon fill="#181818" points="356,230.9609,366,234.9609,356,238.9609,360,234.9609" style="stroke:#181818;stroke-width:1.0;"/><line style="stroke:#181818;stroke-width:1.0;" x1="40" x2="362" y1="234.9609" y2="234.9609"/><text fill="#000000" font-family="sans-serif" font-size="13" lengthAdjust="spacing" textLength="105" x="47" y="229.895">click "add event"</text><polygon fill="#181818" points="480,260.0938,490,264.0938,480,268.0938,484,264.0938" style="stroke:#181818;stroke-width:1.0;"/><line style="stroke:#181818;stroke-width:1.0;stroke-dasharray:2.0,2.0;" x1="368" x2="486" y1="264.0938" y2="264.0938"/><text fill="#000000" font-family="sans-serif" font-size="13" lengthAdjust="spacing" textLength="91" x="375" y="259.0278">state changes</text><polygon fill="#181818" points="225,292.2266,215,296.2266,225,300.2266,221,296.2266" style="stroke:#181818;stroke-width:1.0;"/><line style="stroke:#181818;stroke-width:1.0;" x1="219" x2="491" y1="296.2266" y2="296.2266"/><text fill="#000000" font-family="sans-serif" font-size="13" lengthAdjust="spacing" textLength="185" x="231" y="291.1606">open "create event" dialogue</text><path d="M5,277.0938 L5,302.0938 L199,302.0938 L199,287.0938 L189,277.0938 L5,277.0938 " fill="#FEFFDD" style="stroke:#181818;stroke-width:0.5;"/><path d="M189,277.0938 L189,287.0938 L199,287.0938 L189,277.0938 " fill="#FEFFDD" style="stroke:#181818;stroke-width:0.5;"/><text fill="#000000" font-family="sans-serif" font-size="13" lengthAdjust="spacing" textLength="173" x="11" y="294.1606">editable values form inputs</text><polygon fill="#181818" points="192,324.3594,202,328.3594,192,332.3594,196,328.3594" style="stroke:#181818;stroke-width:1.0;"/><line style="stroke:#181818;stroke-width:1.0;" x1="40" x2="198" y1="328.3594" y2="328.3594"/><text fill="#000000" font-family="sans-serif" font-size="13" lengthAdjust="spacing" textLength="121" x="47" y="323.2935">change input value</text><line style="stroke:#181818;stroke-width:1.0;stroke-dasharray:2.0,2.0;" x1="214" x2="256" y1="357.4922" y2="357.4922"/><line style="stroke:#181818;stroke-width:1.0;stroke-dasharray:2.0,2.0;" x1="256" x2="256" y1="357.4922" y2="370.4922"/><line style="stroke:#181818;stroke-width:1.0;stroke-dasharray:2.0,2.0;" x1="215" x2="256" y1="370.4922" y2="370.4922"/><polygon fill="#181818" points="225,366.4922,215,370.4922,225,374.4922,221,370.4922" style="stroke:#181818;stroke-width:1.0;"/><text fill="#000000" font-family="sans-serif" font-size="13" lengthAdjust="spacing" textLength="135" x="221" y="352.4263">update internal value</text><polygon fill="#181818" points="192,395.625,202,399.625,192,403.625,196,399.625" style="stroke:#181818;stroke-width:1.0;"/><line style="stroke:#181818;stroke-width:1.0;" x1="40" x2="198" y1="399.625" y2="399.625"/><text fill="#000000" font-family="sans-serif" font-size="13" lengthAdjust="spacing" textLength="71" x="47" y="394.5591">click "save"</text><polygon fill="#181818" points="593,424.7578,603,428.7578,593,432.7578,597,428.7578" style="stroke:#181818;stroke-width:1.0;"/><line style="stroke:#181818;stroke-width:1.0;" x1="214" x2="599" y1="428.7578" y2="428.7578"/><text fill="#000000" font-family="sans-serif" font-size="13" lengthAdjust="spacing" textLength="83" x="221" y="423.6919">PATCH event</text><polygon fill="#181818" points="225,453.8906,215,457.8906,225,461.8906,221,457.8906" style="stroke:#181818;stroke-width:1.0;"/><line style="stroke:#181818;stroke-width:1.0;stroke-dasharray:2.0,2.0;" x1="219" x2="604" y1="457.8906" y2="457.8906"/><text fill="#000000" font-family="sans-serif" font-size="13" lengthAdjust="spacing" textLength="51" x="231" y="452.8247">success</text><polygon fill="#181818" points="51,483.0234,41,487.0234,51,491.0234,47,487.0234" style="stroke:#181818;stroke-width:1.0;"/><line style="stroke:#181818;stroke-width:1.0;stroke-dasharray:2.0,2.0;" x1="45" x2="203" y1="487.0234" y2="487.0234"/><text fill="#000000" font-family="sans-serif" font-size="13" lengthAdjust="spacing" textLength="135" x="57" y="481.9575">redirect to /event/[id]</text><polygon fill="#181818" points="480,512.1563,490,516.1563,480,520.1563,484,516.1563" style="stroke:#181818;stroke-width:1.0;"/><line style="stroke:#181818;stroke-width:1.0;" x1="214" x2="486" y1="516.1563" y2="516.1563"/><text fill="#000000" font-family="sans-serif" font-size="13" lengthAdjust="spacing" textLength="92" x="221" y="511.0903">exit edit mode</text><polygon fill="#181818" points="379,541.2891,369,545.2891,379,549.2891,375,545.2891" style="stroke:#181818;stroke-width:1.0;"/><line style="stroke:#181818;stroke-width:1.0;" x1="373" x2="491" y1="545.2891" y2="545.2891"/><text fill="#000000" font-family="sans-serif" font-size="13" lengthAdjust="spacing" textLength="68" x="385" y="540.2231">view mode</text><!--SRC=[bLF1Ri8m3BtdAwpS4NSq8J6qQPEOn86TfXrCOY2Y956I5lRtSnfMA5JJTghpyc8_-xaxemaspgMrEmc1Aha0xv42O8IQlu9naC_1sKHMI-4n9AECHvj0FZN4duM9IMO-vMF5fpvhtE9nREdOqbGWJAGDLcvRKu-xSlwDR9rPoVb33XyUvkxWdUKKqscFlC0lLwVChKhKfx9So4rfJBZ6I20VKUqpEbk-jaBG6o6iImIkuOux-J0fCRG74q6RwBa6wNP2fc7vLytcCS5esYcUSBJTLapH9i71QH8_LoEcdSLE8AQSH-tGRYcACyo4dWuUUxXAzAVogZ9g3nArBZJvl_fzVvZeF5cG1JvdXCw-Jj6DhUrSAzgqNR1-NFD46gngYhnluG36-Zh5JlvTrIAiqCf3SSCP3JshlSvgJ1wSnUhyyfSoPLWH6v9t1QPvHvYqdAtcBwLraP71oh5MYc8KcWPS6WG7-cbrJY0m6aWbTXNA_pF-CFfpG61d9vruIIwRSl7piXYDeMEvlP9puzit]--></g></svg>