<?xml version="1.0" encoding="us-ascii" standalone="no"?><svg xmlns="http://www.w3.org/2000/svg" xmlns:xlink="http://www.w3.org/1999/xlink" contentStyleType="text/css" height="570px" preserveAspectRatio="none" style="width:670px;height:570px;background:#FFFFFF;" version="1.1" viewBox="0 0 670 570" width="670px" zoomAndPan="magnify"><defs/><g><rect fill="#DDDDDD" height="551.2891" style="stroke:#181818;stroke-width:0.5;" width="522" x="49" y="6"/><text fill="#000000" font-family="sans-serif" font-size="13" font-weight="bold" lengthAdjust="spacing" textLength="67" x="276.5" y="18.0669">Frontend</text><rect fill="#FFFFFF" height="366.5938" style="stroke:#181818;stroke-width:1.0;" width="10" x="88" y="91.2969"/><rect fill="#FFFFFF" height="249.0625" style="stroke:#181818;stroke-width:1.0;" width="10" x="222" y="296.2266"/><line style="stroke:#181818;stroke-width:0.5;stroke-dasharray:5.0,5.0;" x1="24" x2="24" y1="81.2969" y2="563.2891"/><line style="stroke:#181818;stroke-width:0.5;stroke-dasharray:5.0,5.0;" x1="93" x2="93" y1="81.2969" y2="563.2891"/><line style="stroke:#181818;stroke-width:0.5;stroke-dasharray:5.0,5.0;" x1="227" x2="227" y1="81.2969" y2="563.2891"/><line style="stroke:#181818;stroke-width:0.5;stroke-dasharray:5.0,5.0;" x1="386" x2="386" y1="81.2969" y2="563.2891"/><line style="stroke:#181818;stroke-width:0.5;stroke-dasharray:5.0,5.0;" x1="510" x2="510" y1="81.2969" y2="563.2891"/><line style="stroke:#181818;stroke-width:0.5;stroke-dasharray:5.0,5.0;" x1="623" x2="623" y1="81.2969" y2="563.2891"/><text fill="#000000" font-family="sans-serif" font-size="14" lengthAdjust="spacing" textLength="32" x="5" y="77.9951">User</text><ellipse cx="24" cy="13.5" fill="#E2E2F0" rx="8" ry="8" style="stroke:#181818;stroke-width:0.5;"/><path d="M24,21.5 L24,48.5 M11,29.5 L37,29.5 M24,48.5 L11,63.5 M24,48.5 L37,63.5 " fill="none" style="stroke:#181818;stroke-width:0.5;"/><rect fill="#E2E2F0" height="30.2969" rx="2.5" ry="2.5" style="stroke:#181818;stroke-width:0.5;" width="80" x="53" y="50"/><text fill="#000000" font-family="sans-serif" font-size="14" lengthAdjust="spacing" textLength="66" x="60" y="69.9951">Event List</text><rect fill="#E2E2F0" height="30.2969" rx="2.5" ry="2.5" style="stroke:#181818;stroke-width:0.5;" width="168" x="143" y="50"/><text fill="#000000" font-family="sans-serif" font-size="14" lengthAdjust="spacing" textLength="154" x="150" y="69.9951">Create Event Dialogue</text><rect fill="#E2E2F0" height="46.5938" rx="2.5" ry="2.5" style="stroke:#181818;stroke-width:0.5;" width="114" x="329" y="33.7031"/><text fill="#000000" font-family="sans-serif" font-size="14" font-style="italic" lengthAdjust="spacing" textLength="100" x="336" y="53.6982">&#171;Component&#187;</text><text fill="#000000" font-family="sans-serif" font-size="14" lengthAdjust="spacing" textLength="66" x="353" y="69.9951">TopMenu</text><rect fill="#E2E2F0" height="46.5938" rx="2.5" ry="2.5" style="stroke:#181818;stroke-width:0.5;" width="114" x="453" y="33.7031"/><text fill="#000000" font-family="sans-serif" font-size="14" font-style="italic" lengthAdjust="spacing" textLength="100" x="460" y="53.6982">&#171;Component&#187;</text><text fill="#000000" font-family="sans-serif" font-size="14" lengthAdjust="spacing" textLength="45" x="487.5" y="69.9951">Layout</text><text fill="#000000" font-family="sans-serif" font-size="14" lengthAdjust="spacing" textLength="86" x="577" y="77.9951">Backend API</text><path d="M605,29 C605,19 623,19 623,19 C623,19 641,19 641,29 L641,55 C641,65 623,65 623,65 C623,65 605,65 605,55 L605,29 " fill="#E2E2F0" style="stroke:#181818;stroke-width:1.5;"/><path d="M605,29 C605,39 623,39 623,39 C623,39 641,39 641,29 " fill="none" style="stroke:#181818;stroke-width:1.5;"/><rect fill="#FFFFFF" height="366.5938" style="stroke:#181818;stroke-width:1.0;" width="10" x="88" y="91.2969"/><rect fill="#FFFFFF" height="249.0625" style="stroke:#181818;stroke-width:1.0;" width="10" x="222" y="296.2266"/><path d="M14,96.2969 L14,121.2969 L171,121.2969 L171,106.2969 L161,96.2969 L14,96.2969 " fill="#FEFFDD" style="stroke:#181818;stroke-width:0.5;"/><path d="M161,96.2969 L161,106.2969 L171,106.2969 L161,96.2969 " fill="#FEFFDD" style="stroke:#181818;stroke-width:0.5;"/><text fill="#000000" font-family="sans-serif" font-size="13" lengthAdjust="spacing" textLength="136" x="20" y="113.3638">event list is displayed</text><polygon fill="#181818" points="374,143.5625,384,147.5625,374,151.5625,378,147.5625" style="stroke:#181818;stroke-width:1.0;"/><line style="stroke:#181818;stroke-width:1.0;" x1="24" x2="380" y1="147.5625" y2="147.5625"/><text fill="#000000" font-family="sans-serif" font-size="13" lengthAdjust="spacing" textLength="109" x="31" y="142.4966">toggle edit mode</text><polygon fill="#181818" points="498,172.6953,508,176.6953,498,180.6953,502,176.6953" style="stroke:#181818;stroke-width:1.0;"/><line style="stroke:#181818;stroke-width:1.0;stroke-dasharray:2.0,2.0;" x1="386" x2="504" y1="176.6953" y2="176.6953"/><text fill="#000000" font-family="sans-serif" font-size="13" lengthAdjust="spacing" textLength="91" x="393" y="171.6294">state changes</text><polygon fill="#181818" points="109,201.8281,99,205.8281,109,209.8281,105,205.8281" style="stroke:#181818;stroke-width:1.0;"/><line style="stroke:#181818;stroke-width:1.0;" x1="103" x2="509" y1="205.8281" y2="205.8281"/><text fill="#000000" font-family="sans-serif" font-size="13" lengthAdjust="spacing" textLength="103" x="115" y="200.7622">enter edit mode</text><polygon fill="#181818" points="374,230.9609,384,234.9609,374,238.9609,378,234.9609" style="stroke:#181818;stroke-width:1.0;"/><line style="stroke:#181818;stroke-width:1.0;" x1="24" x2="380" y1="234.9609" y2="234.9609"/><text fill="#000000" font-family="sans-serif" font-size="13" lengthAdjust="spacing" textLength="105" x="31" y="229.895">click "add event"</text><polygon fill="#181818" points="498,260.0938,508,264.0938,498,268.0938,502,264.0938" style="stroke:#181818;stroke-width:1.0;"/><line style="stroke:#181818;stroke-width:1.0;stroke-dasharray:2.0,2.0;" x1="386" x2="504" y1="264.0938" y2="264.0938"/><text fill="#000000" font-family="sans-serif" font-size="13" lengthAdjust="spacing" textLength="91" x="393" y="259.0278">state changes</text><polygon fill="#181818" points="243,292.2266,233,296.2266,243,300.2266,239,296.2266" style="stroke:#181818;stroke-width:1.0;"/><line style="stroke:#181818;stroke-width:1.0;" x1="237" x2="509" y1="296.2266" y2="296.2266"/><text fill="#000000" font-family="sans-serif" font-size="13" lengthAdjust="spacing" textLength="185" x="249" y="291.1606">open "create event" dialogue</text><path d="M23,277.0938 L23,302.0938 L217,302.0938 L217,287.0938 L207,277.0938 L23,277.0938 " fill="#FEFFDD" style="stroke:#181818;stroke-width:0.5;"/><path d="M207,277.0938 L207,287.0938 L217,287.0938 L207,277.0938 " fill="#FEFFDD" style="stroke:#181818;stroke-width:0.5;"/><text fill="#000000" font-family="sans-serif" font-size="13" lengthAdjust="spacing" textLength="173" x="29" y="294.1606">editable values form inputs</text><polygon fill="#181818" points="210,324.3594,220,328.3594,210,332.3594,214,328.3594" style="stroke:#181818;stroke-width:1.0;"/><line style="stroke:#181818;stroke-width:1.0;" x1="24" x2="216" y1="328.3594" y2="328.3594"/><text fill="#000000" font-family="sans-serif" font-size="13" lengthAdjust="spacing" textLength="121" x="31" y="323.2935">change input value</text><line style="stroke:#181818;stroke-width:1.0;stroke-dasharray:2.0,2.0;" x1="232" x2="274" y1="357.4922" y2="357.4922"/><line style="stroke:#181818;stroke-width:1.0;stroke-dasharray:2.0,2.0;" x1="274" x2="274" y1="357.4922" y2="370.4922"/><line style="stroke:#181818;stroke-width:1.0;stroke-dasharray:2.0,2.0;" x1="233" x2="274" y1="370.4922" y2="370.4922"/><polygon fill="#181818" points="243,366.4922,233,370.4922,243,374.4922,239,370.4922" style="stroke:#181818;stroke-width:1.0;"/><text fill="#000000" font-family="sans-serif" font-size="13" lengthAdjust="spacing" textLength="135" x="239" y="352.4263">update internal value</text><polygon fill="#181818" points="210,395.625,220,399.625,210,403.625,214,399.625" style="stroke:#181818;stroke-width:1.0;"/><line style="stroke:#181818;stroke-width:1.0;" x1="24" x2="216" y1="399.625" y2="399.625"/><text fill="#000000" font-family="sans-serif" font-size="13" lengthAdjust="spacing" textLength="61" x="31" y="394.5591">click save</text><polygon fill="#181818" points="611,424.7578,621,428.7578,611,432.7578,615,428.7578" style="stroke:#181818;stroke-width:1.0;"/><line style="stroke:#181818;stroke-width:1.0;" x1="232" x2="617" y1="428.7578" y2="428.7578"/><text fill="#000000" font-family="sans-serif" font-size="13" lengthAdjust="spacing" textLength="83" x="239" y="423.6919">PATCH event</text><polygon fill="#181818" points="243,453.8906,233,457.8906,243,461.8906,239,457.8906" style="stroke:#181818;stroke-width:1.0;"/><line style="stroke:#181818;stroke-width:1.0;stroke-dasharray:2.0,2.0;" x1="237" x2="622" y1="457.8906" y2="457.8906"/><text fill="#000000" font-family="sans-serif" font-size="13" lengthAdjust="spacing" textLength="51" x="249" y="452.8247">success</text><polygon fill="#181818" points="35,483.0234,25,487.0234,35,491.0234,31,487.0234" style="stroke:#181818;stroke-width:1.0;"/><line style="stroke:#181818;stroke-width:1.0;stroke-dasharray:2.0,2.0;" x1="29" x2="221" y1="487.0234" y2="487.0234"/><text fill="#000000" font-family="sans-serif" font-size="13" lengthAdjust="spacing" textLength="135" x="41" y="481.9575">redirect to /event/[id]</text><polygon fill="#181818" points="498,512.1563,508,516.1563,498,520.1563,502,516.1563" style="stroke:#181818;stroke-width:1.0;"/><line style="stroke:#181818;stroke-width:1.0;" x1="232" x2="504" y1="516.1563" y2="516.1563"/><text fill="#000000" font-family="sans-serif" font-size="13" lengthAdjust="spacing" textLength="92" x="239" y="511.0903">exit edit mode</text><polygon fill="#181818" points="397,541.2891,387,545.2891,397,549.2891,393,545.2891" style="stroke:#181818;stroke-width:1.0;"/><line style="stroke:#181818;stroke-width:1.0;" x1="391" x2="509" y1="545.2891" y2="545.2891"/><text fill="#000000" font-family="sans-serif" font-size="13" lengthAdjust="spacing" textLength="68" x="403" y="540.2231">view mode</text><!--SRC=[bLB1JiCm3BtdAwpUfzqhD0a622IGTXWdnC5Bp8ZM9b6Ibl7tE4dfw5OXSOhZFDll-UL3Au9tQ-FE7eL06Qs7bq0UC437f-0yLFVUcaX6LSAXZrfgXoP2TTSJ7qywn2hXALqRlarHQqyO2GhuLcDZzntb0fbVr92QL6sjUoRJ9LIqhatXrTNQjiuQRhDQJS1F-6MxcB1DYQPG9Wv9diA8Emm4rGtAGyfURnup4NHQ26EPfUrP-oW4wX93lkW0IWV7CqZbNUa-2Jl9JWk3nMfaN7EqtpSCKJf2QnM9dwS5mmQoDOIO-iWFD7iAOaWpOCA33V2_6btEaesM1wXGgL9O_M_Or0m6MaS6gf8UEiBerQZ-pCEyn8RUCsKcYpkMtsFJKU1lvblGndKnZFGlfXPY1LOAnHbcCLVMEPNOwBGbWyrG-SUOlAo0_MNxLVeE3DbSRzSFHRX8cTcvePEIGX2APlx33F5Cg0RFMKyoidsmp0NBLwtUPhYClj6HhJ_vVpBkz0DwJP_bzHUTCuE-0G00]--></g></svg>