<?xml version="1.0" encoding="us-ascii" standalone="no"?><svg xmlns="http://www.w3.org/2000/svg" xmlns:xlink="http://www.w3.org/1999/xlink" contentStyleType="text/css" height="741px" preserveAspectRatio="none" style="width:1070px;height:741px;background:#FFFFFF;" version="1.1" viewBox="0 0 1070 741" width="1070px" zoomAndPan="magnify"><defs/><g><rect fill="#DDDDDD" height="722.0859" style="stroke:#181818;stroke-width:0.5;" width="766.5" x="189.5" y="6"/><text fill="#000000" font-family="sans-serif" font-size="13" font-weight="bold" lengthAdjust="spacing" textLength="67" x="539.25" y="18.0669">Frontend</text><rect fill="#FFFFFF" height="633.7891" style="stroke:#181818;stroke-width:1.0;" width="10" x="238" y="91.2969"/><rect fill="#FFFFFF" height="403.8594" style="stroke:#181818;stroke-width:1.0;" width="10" x="243" y="205.8281"/><rect fill="#FFFFFF" height="29.1328" style="stroke:#181818;stroke-width:1.0;" width="10" x="466" y="234.9609"/><rect fill="#FFFFFF" height="175.7969" style="stroke:#181818;stroke-width:1.0;" width="10" x="616" y="397.7578"/><rect fill="none" height="90.5313" style="stroke:#000000;stroke-width:1.5;" width="292.5" x="10" y="279.0938"/><rect fill="none" height="168.7969" style="stroke:#000000;stroke-width:1.5;" width="1054" x="10" y="412.7578"/><line style="stroke:#181818;stroke-width:0.5;stroke-dasharray:5.0,5.0;" x1="39" x2="39" y1="81.2969" y2="734.0859"/><line style="stroke:#181818;stroke-width:0.5;stroke-dasharray:5.0,5.0;" x1="242.5" x2="242.5" y1="81.2969" y2="734.0859"/><line style="stroke:#181818;stroke-width:0.5;stroke-dasharray:5.0,5.0;" x1="471" x2="471" y1="81.2969" y2="734.0859"/><line style="stroke:#181818;stroke-width:0.5;stroke-dasharray:5.0,5.0;" x1="621" x2="621" y1="81.2969" y2="734.0859"/><line style="stroke:#181818;stroke-width:0.5;stroke-dasharray:5.0,5.0;" x1="771" x2="771" y1="81.2969" y2="734.0859"/><line style="stroke:#181818;stroke-width:0.5;stroke-dasharray:5.0,5.0;" x1="895" x2="895" y1="81.2969" y2="734.0859"/><line style="stroke:#181818;stroke-width:0.5;stroke-dasharray:5.0,5.0;" x1="1008" x2="1008" y1="81.2969" y2="734.0859"/><text fill="#000000" font-family="sans-serif" font-size="14" lengthAdjust="spacing" textLength="32" x="20" y="77.9951">User</text><ellipse cx="39" cy="13.5" fill="#E2E2F0" rx="8" ry="8" style="stroke:#181818;stroke-width:0.5;"/><path d="M39,21.5 L39,48.5 M26,29.5 L52,29.5 M39,48.5 L26,63.5 M39,48.5 L52,63.5 " fill="none" style="stroke:#181818;stroke-width:0.5;"/><rect fill="#E2E2F0" height="30.2969" rx="2.5" ry="2.5" style="stroke:#181818;stroke-width:0.5;" width="99" x="193.5" y="50"/><text fill="#000000" font-family="sans-serif" font-size="14" lengthAdjust="spacing" textLength="85" x="200.5" y="69.9951">Event Graph</text><rect fill="#E2E2F0" height="46.5938" rx="2.5" ry="2.5" style="stroke:#181818;stroke-width:0.5;" width="114" x="414" y="33.7031"/><text fill="#000000" font-family="sans-serif" font-size="14" font-style="italic" lengthAdjust="spacing" textLength="100" x="421" y="53.6982">&#171;Component&#187;</text><text fill="#000000" font-family="sans-serif" font-size="14" lengthAdjust="spacing" textLength="97" x="422.5" y="69.9951">Options Menu</text><rect fill="#E2E2F0" height="46.5938" rx="2.5" ry="2.5" style="stroke:#181818;stroke-width:0.5;" width="166" x="538" y="33.7031"/><text fill="#000000" font-family="sans-serif" font-size="14" font-style="italic" lengthAdjust="spacing" textLength="100" x="571" y="53.6982">&#171;Component&#187;</text><text fill="#000000" font-family="sans-serif" font-size="14" lengthAdjust="spacing" textLength="152" x="545" y="69.9951">'Add Reference' Menu</text><rect fill="#E2E2F0" height="46.5938" rx="2.5" ry="2.5" style="stroke:#181818;stroke-width:0.5;" width="114" x="714" y="33.7031"/><text fill="#000000" font-family="sans-serif" font-size="14" font-style="italic" lengthAdjust="spacing" textLength="100" x="721" y="53.6982">&#171;Component&#187;</text><text fill="#000000" font-family="sans-serif" font-size="14" lengthAdjust="spacing" textLength="70" x="736" y="69.9951">Top Menu</text><rect fill="#E2E2F0" height="46.5938" rx="2.5" ry="2.5" style="stroke:#181818;stroke-width:0.5;" width="114" x="838" y="33.7031"/><text fill="#000000" font-family="sans-serif" font-size="14" font-style="italic" lengthAdjust="spacing" textLength="100" x="845" y="53.6982">&#171;Component&#187;</text><text fill="#000000" font-family="sans-serif" font-size="14" lengthAdjust="spacing" textLength="45" x="872.5" y="69.9951">Layout</text><text fill="#000000" font-family="sans-serif" font-size="14" lengthAdjust="spacing" textLength="86" x="962" y="77.9951">Backend API</text><path d="M990,29 C990,19 1008,19 1008,19 C1008,19 1026,19 1026,29 L1026,55 C1026,65 1008,65 1008,65 C1008,65 990,65 990,55 L990,29 " fill="#E2E2F0" style="stroke:#181818;stroke-width:1.5;"/><path d="M990,29 C990,39 1008,39 1008,39 C1008,39 1026,39 1026,29 " fill="none" style="stroke:#181818;stroke-width:1.5;"/><rect fill="#FFFFFF" height="633.7891" style="stroke:#181818;stroke-width:1.0;" width="10" x="238" y="91.2969"/><rect fill="#FFFFFF" height="403.8594" style="stroke:#181818;stroke-width:1.0;" width="10" x="243" y="205.8281"/><rect fill="#FFFFFF" height="29.1328" style="stroke:#181818;stroke-width:1.0;" width="10" x="466" y="234.9609"/><rect fill="#FFFFFF" height="175.7969" style="stroke:#181818;stroke-width:1.0;" width="10" x="616" y="397.7578"/><path d="M99,96.2969 L99,121.2969 L387,121.2969 L387,106.2969 L377,96.2969 L99,96.2969 " fill="#FEFFDD" style="stroke:#181818;stroke-width:0.5;"/><path d="M377,96.2969 L377,106.2969 L387,106.2969 L377,96.2969 " fill="#FEFFDD" style="stroke:#181818;stroke-width:0.5;"/><text fill="#000000" font-family="sans-serif" font-size="13" lengthAdjust="spacing" textLength="267" x="105" y="113.3638">Unreferenced objects/attributes displayed</text><polygon fill="#181818" points="759,143.5625,769,147.5625,759,151.5625,763,147.5625" style="stroke:#181818;stroke-width:1.0;"/><line style="stroke:#181818;stroke-width:1.0;" x1="39" x2="765" y1="147.5625" y2="147.5625"/><text fill="#000000" font-family="sans-serif" font-size="13" lengthAdjust="spacing" textLength="109" x="46" y="142.4966">toggle edit mode</text><polygon fill="#181818" points="883,172.6953,893,176.6953,883,180.6953,887,176.6953" style="stroke:#181818;stroke-width:1.0;"/><line style="stroke:#181818;stroke-width:1.0;stroke-dasharray:2.0,2.0;" x1="771" x2="889" y1="176.6953" y2="176.6953"/><text fill="#000000" font-family="sans-serif" font-size="13" lengthAdjust="spacing" textLength="91" x="778" y="171.6294">state changes</text><polygon fill="#181818" points="264,201.8281,254,205.8281,264,209.8281,260,205.8281" style="stroke:#181818;stroke-width:1.0;"/><line style="stroke:#181818;stroke-width:1.0;" x1="258" x2="894" y1="205.8281" y2="205.8281"/><text fill="#000000" font-family="sans-serif" font-size="13" lengthAdjust="spacing" textLength="103" x="270" y="200.7622">enter edit mode</text><polygon fill="#181818" points="454,230.9609,464,234.9609,454,238.9609,458,234.9609" style="stroke:#181818;stroke-width:1.0;"/><line style="stroke:#181818;stroke-width:1.0;" x1="39" x2="460" y1="234.9609" y2="234.9609"/><text fill="#000000" font-family="sans-serif" font-size="13" lengthAdjust="spacing" textLength="188" x="46" y="229.895">click " Add Reference " button</text><polygon fill="#181818" points="264,260.0938,254,264.0938,264,268.0938,260,264.0938" style="stroke:#181818;stroke-width:1.0;"/><line style="stroke:#181818;stroke-width:1.0;" x1="258" x2="470" y1="264.0938" y2="264.0938"/><text fill="#000000" font-family="sans-serif" font-size="13" lengthAdjust="spacing" textLength="189" x="270" y="259.0278">initiate "add reference" action</text><path d="M10,279.0938 L224,279.0938 L224,286.2266 L214,296.2266 L10,296.2266 L10,279.0938 " fill="#EEEEEE" style="stroke:#000000;stroke-width:1.5;"/><rect fill="none" height="90.5313" style="stroke:#000000;stroke-width:1.5;" width="292.5" x="10" y="279.0938"/><text fill="#000000" font-family="sans-serif" font-size="13" font-weight="bold" lengthAdjust="spacing" textLength="169" x="25" y="292.1606">"add reference" action</text><polygon fill="#181818" points="50,328.4922,40,332.4922,50,336.4922,46,332.4922" style="stroke:#181818;stroke-width:1.0;"/><line style="stroke:#181818;stroke-width:1.0;" x1="44" x2="242" y1="332.4922" y2="332.4922"/><text fill="#000000" font-family="sans-serif" font-size="13" lengthAdjust="spacing" textLength="81" x="56" y="312.2935">allow to drag</text><text fill="#000000" font-family="sans-serif" font-size="13" lengthAdjust="spacing" textLength="175" x="56" y="327.4263">an edge from node to node</text><polygon fill="#181818" points="231,357.625,241,361.625,231,365.625,235,361.625" style="stroke:#181818;stroke-width:1.0;"/><line style="stroke:#181818;stroke-width:1.0;" x1="39" x2="237" y1="361.625" y2="361.625"/><text fill="#000000" font-family="sans-serif" font-size="13" lengthAdjust="spacing" textLength="123" x="46" y="356.5591">drag new reference</text><polygon fill="#181818" points="604,393.7578,614,397.7578,604,401.7578,608,397.7578" style="stroke:#181818;stroke-width:1.0;"/><line style="stroke:#181818;stroke-width:1.0;" x1="253" x2="610" y1="397.7578" y2="397.7578"/><text fill="#000000" font-family="sans-serif" font-size="13" lengthAdjust="spacing" textLength="244" x="260" y="392.6919">initiate "enter reference values" action</text><path d="M10,412.7578 L286,412.7578 L286,419.8906 L276,429.8906 L10,429.8906 L10,412.7578 " fill="#EEEEEE" style="stroke:#000000;stroke-width:1.5;"/><rect fill="none" height="168.7969" style="stroke:#000000;stroke-width:1.5;" width="1054" x="10" y="412.7578"/><text fill="#000000" font-family="sans-serif" font-size="13" font-weight="bold" lengthAdjust="spacing" textLength="231" x="25" y="425.8247">"enter reference values" action</text><path d="M526,434.8906 L526,459.8906 L716,459.8906 L716,444.8906 L706,434.8906 L526,434.8906 " fill="#FEFFDD" style="stroke:#181818;stroke-width:0.5;"/><path d="M706,434.8906 L706,444.8906 L716,444.8906 L706,434.8906 " fill="#FEFFDD" style="stroke:#181818;stroke-width:0.5;"/><text fill="#000000" font-family="sans-serif" font-size="13" lengthAdjust="spacing" textLength="169" x="532" y="451.9575">Reference menu displayed</text><polygon fill="#181818" points="50,482.1563,40,486.1563,50,490.1563,46,486.1563" style="stroke:#181818;stroke-width:1.0;"/><line style="stroke:#181818;stroke-width:1.0;stroke-dasharray:2.0,2.0;" x1="44" x2="615" y1="486.1563" y2="486.1563"/><text fill="#000000" font-family="sans-serif" font-size="13" lengthAdjust="spacing" textLength="263" x="56" y="481.0903">input form for attributes of new reference</text><polygon fill="#181818" points="604,511.2891,614,515.2891,604,519.2891,608,515.2891" style="stroke:#181818;stroke-width:1.0;"/><line style="stroke:#181818;stroke-width:1.0;" x1="39" x2="610" y1="515.2891" y2="515.2891"/><text fill="#000000" font-family="sans-serif" font-size="13" lengthAdjust="spacing" textLength="111" x="46" y="510.2231">submit filled form</text><polygon fill="#181818" points="996,540.4219,1006,544.4219,996,548.4219,1000,544.4219" style="stroke:#181818;stroke-width:1.0;"/><line style="stroke:#181818;stroke-width:1.0;" x1="626" x2="1002" y1="544.4219" y2="544.4219"/><text fill="#000000" font-family="sans-serif" font-size="13" lengthAdjust="spacing" textLength="118" x="633" y="539.356">send save request</text><polygon fill="#181818" points="632,569.5547,622,573.5547,632,577.5547,628,573.5547" style="stroke:#181818;stroke-width:1.0;"/><line style="stroke:#181818;stroke-width:1.0;stroke-dasharray:2.0,2.0;" x1="626" x2="1007" y1="573.5547" y2="573.5547"/><text fill="#000000" font-family="sans-serif" font-size="13" lengthAdjust="spacing" textLength="51" x="638" y="568.4888">success</text><polygon fill="#181818" points="883,605.6875,893,609.6875,883,613.6875,887,609.6875" style="stroke:#181818;stroke-width:1.0;"/><line style="stroke:#181818;stroke-width:1.0;" x1="248" x2="889" y1="609.6875" y2="609.6875"/><text fill="#000000" font-family="sans-serif" font-size="13" lengthAdjust="spacing" textLength="92" x="255" y="604.6216">exit edit mode</text><polygon fill="#181818" points="782,634.8203,772,638.8203,782,642.8203,778,638.8203" style="stroke:#181818;stroke-width:1.0;"/><line style="stroke:#181818;stroke-width:1.0;" x1="776" x2="894" y1="638.8203" y2="638.8203"/><text fill="#000000" font-family="sans-serif" font-size="13" lengthAdjust="spacing" textLength="68" x="788" y="633.7544">view mode</text><line style="stroke:#181818;stroke-width:1.0;" x1="248" x2="290" y1="667.9531" y2="667.9531"/><line style="stroke:#181818;stroke-width:1.0;" x1="290" x2="290" y1="667.9531" y2="680.9531"/><line style="stroke:#181818;stroke-width:1.0;" x1="249" x2="290" y1="680.9531" y2="680.9531"/><polygon fill="#181818" points="259,676.9531,249,680.9531,259,684.9531,255,680.9531" style="stroke:#181818;stroke-width:1.0;"/><text fill="#000000" font-family="sans-serif" font-size="13" lengthAdjust="spacing" textLength="143" x="255" y="662.8872">add newly added edge</text><path d="M164,693.9531 L164,718.9531 L321,718.9531 L321,703.9531 L311,693.9531 L164,693.9531 " fill="#FEFFDD" style="stroke:#181818;stroke-width:0.5;"/><path d="M311,693.9531 L311,703.9531 L321,703.9531 L311,693.9531 " fill="#FEFFDD" style="stroke:#181818;stroke-width:0.5;"/><text fill="#000000" font-family="sans-serif" font-size="13" lengthAdjust="spacing" textLength="136" x="170" y="711.02">New reference added</text><!--SRC=[XLJBRjim4BppAnQwv6JqBWG6qg8j2lI5ehdrGf5hcOt4PKbAIVw-kx8jKRO3Nyo7zZ4pE_JUMOGTKMxeHIbjCaLuJ1X19nXuLNmFrQT8FgEtbGewPcTSq3v3zN54NZv77VQL9A2SMpckutw4xCWd-8P-c08fv9xtS7__WVf0djEsstNEtOEry0jt6D4Rl5jojRNnT7sho6yAIsAcS2F-gtwb8KjiTzYjGra049ciphhH2Q5whysJt3xy_7B05jmaeXjrnb8EJtocaNLTBg66HpzJiK3DNpGvlTCvHzSC6HDObm93GQkK30Cssvb5pRksxRYBTHbwigXEdpOSTYHGGye2nUorRp6fupK7h73mLg3DbQvHc14SXrU3wPnvWWfMa-8pOy_aboB71ALEOr-rhy5vbvq4LZnRc1LXHOtuHbcyBDL66i9R2GKtRYMuQz1THy-i6TYeM_ZZjMU-BNi_KW-UISitMHUY9SOfo-FpqatieCvQdNkpv7RGUFuCe-u6J3Fc4wCRORCIvwqAYrsYMAOpwL_Owk8rRKwAEH_OAJkAlVn0uKhQdIanAtRPEGrDpwxQkQvZYqkrQpstyd8uMDvIqYDoxN_CEdDiS1EaQvMDmPHATrneScL4yyF05yQrMBueKvX-UI_BkniTavzopckNXX5diahTg-oOkfXDlVK_yBsKyv2W_WC0]--></g></svg>