<?xml version="1.0" encoding="us-ascii" standalone="no"?><svg xmlns="http://www.w3.org/2000/svg" xmlns:xlink="http://www.w3.org/1999/xlink" contentStyleType="text/css" height="741px" preserveAspectRatio="none" style="width:1082px;height:741px;background:#FFFFFF;" version="1.1" viewBox="0 0 1082 741" width="1082px" zoomAndPan="magnify"><defs/><g><rect fill="#DDDDDD" height="722.0859" style="stroke:#181818;stroke-width:0.5;" width="777.5" x="187.5" y="6"/><text fill="#000000" font-family="sans-serif" font-size="13" font-weight="bold" lengthAdjust="spacing" textLength="70" x="541.25" y="18.0669">Frontend</text><rect fill="#FFFFFF" height="633.7891" style="stroke:#181818;stroke-width:1.0;" width="10" x="238.5" y="91.2969"/><rect fill="#FFFFFF" height="403.8594" style="stroke:#181818;stroke-width:1.0;" width="10" x="243.5" y="205.8281"/><rect fill="#FFFFFF" height="29.1328" style="stroke:#181818;stroke-width:1.0;" width="10" x="467.5" y="234.9609"/><rect fill="#FFFFFF" height="175.7969" style="stroke:#181818;stroke-width:1.0;" width="10" x="620.5" y="397.7578"/><rect fill="none" height="90.5313" style="stroke:#000000;stroke-width:1.5;" width="295.5" x="10" y="279.0938"/><rect fill="none" height="168.7969" style="stroke:#000000;stroke-width:1.5;" width="1066" x="10" y="412.7578"/><line style="stroke:#181818;stroke-width:0.5;stroke-dasharray:5.0,5.0;" x1="38" x2="38" y1="81.2969" y2="734.0859"/><line style="stroke:#181818;stroke-width:0.5;stroke-dasharray:5.0,5.0;" x1="243.5" x2="243.5" y1="81.2969" y2="734.0859"/><line style="stroke:#181818;stroke-width:0.5;stroke-dasharray:5.0,5.0;" x1="472" x2="472" y1="81.2969" y2="734.0859"/><line style="stroke:#181818;stroke-width:0.5;stroke-dasharray:5.0,5.0;" x1="625" x2="625" y1="81.2969" y2="734.0859"/><line style="stroke:#181818;stroke-width:0.5;stroke-dasharray:5.0,5.0;" x1="778" x2="778" y1="81.2969" y2="734.0859"/><line style="stroke:#181818;stroke-width:0.5;stroke-dasharray:5.0,5.0;" x1="903" x2="903" y1="81.2969" y2="734.0859"/><line style="stroke:#181818;stroke-width:0.5;stroke-dasharray:5.0,5.0;" x1="1018" x2="1018" y1="81.2969" y2="734.0859"/><text fill="#000000" font-family="sans-serif" font-size="14" lengthAdjust="spacing" textLength="31" x="20" y="77.9951">User</text><ellipse cx="38.5" cy="13.5" fill="#E2E2F0" rx="8" ry="8" style="stroke:#181818;stroke-width:0.5;"/><path d="M38.5,21.5 L38.5,48.5 M25.5,29.5 L51.5,29.5 M38.5,48.5 L25.5,63.5 M38.5,48.5 L51.5,63.5 " fill="none" style="stroke:#181818;stroke-width:0.5;"/><rect fill="#E2E2F0" height="30.2969" rx="2.5" ry="2.5" style="stroke:#181818;stroke-width:0.5;" width="104" x="191.5" y="50"/><text fill="#000000" font-family="sans-serif" font-size="14" lengthAdjust="spacing" textLength="90" x="198.5" y="69.9951">Event Graph</text><rect fill="#E2E2F0" height="46.5938" rx="2.5" ry="2.5" style="stroke:#181818;stroke-width:0.5;" width="115" x="415" y="33.7031"/><text fill="#000000" font-family="sans-serif" font-size="14" font-style="italic" lengthAdjust="spacing" textLength="101" x="422" y="53.6982">&#171;Component&#187;</text><text fill="#000000" font-family="sans-serif" font-size="14" lengthAdjust="spacing" textLength="99" x="423" y="69.9951">Options Menu</text><rect fill="#E2E2F0" height="46.5938" rx="2.5" ry="2.5" style="stroke:#181818;stroke-width:0.5;" width="171" x="540" y="33.7031"/><text fill="#000000" font-family="sans-serif" font-size="14" font-style="italic" lengthAdjust="spacing" textLength="101" x="575" y="53.6982">&#171;Component&#187;</text><text fill="#000000" font-family="sans-serif" font-size="14" lengthAdjust="spacing" textLength="157" x="547" y="69.9951">'Add Reference' Menu</text><rect fill="#E2E2F0" height="46.5938" rx="2.5" ry="2.5" style="stroke:#181818;stroke-width:0.5;" width="115" x="721" y="33.7031"/><text fill="#000000" font-family="sans-serif" font-size="14" font-style="italic" lengthAdjust="spacing" textLength="101" x="728" y="53.6982">&#171;Component&#187;</text><text fill="#000000" font-family="sans-serif" font-size="14" lengthAdjust="spacing" textLength="70" x="743.5" y="69.9951">Top Menu</text><rect fill="#E2E2F0" height="46.5938" rx="2.5" ry="2.5" style="stroke:#181818;stroke-width:0.5;" width="115" x="846" y="33.7031"/><text fill="#000000" font-family="sans-serif" font-size="14" font-style="italic" lengthAdjust="spacing" textLength="101" x="853" y="53.6982">&#171;Component&#187;</text><text fill="#000000" font-family="sans-serif" font-size="14" lengthAdjust="spacing" textLength="48" x="879.5" y="69.9951">Layout</text><text fill="#000000" font-family="sans-serif" font-size="14" lengthAdjust="spacing" textLength="89" x="971" y="77.9951">Backend API</text><path d="M1000.5,29 C1000.5,19 1018.5,19 1018.5,19 C1018.5,19 1036.5,19 1036.5,29 L1036.5,55 C1036.5,65 1018.5,65 1018.5,65 C1018.5,65 1000.5,65 1000.5,55 L1000.5,29 " fill="#E2E2F0" style="stroke:#181818;stroke-width:1.5;"/><path d="M1000.5,29 C1000.5,39 1018.5,39 1018.5,39 C1018.5,39 1036.5,39 1036.5,29 " fill="none" style="stroke:#181818;stroke-width:1.5;"/><rect fill="#FFFFFF" height="633.7891" style="stroke:#181818;stroke-width:1.0;" width="10" x="238.5" y="91.2969"/><rect fill="#FFFFFF" height="403.8594" style="stroke:#181818;stroke-width:1.0;" width="10" x="243.5" y="205.8281"/><rect fill="#FFFFFF" height="29.1328" style="stroke:#181818;stroke-width:1.0;" width="10" x="467.5" y="234.9609"/><rect fill="#FFFFFF" height="175.7969" style="stroke:#181818;stroke-width:1.0;" width="10" x="620.5" y="397.7578"/><path d="M99,96.2969 L99,121.2969 L388,121.2969 L388,106.2969 L378,96.2969 L99,96.2969 " fill="#FEFFDD" style="stroke:#181818;stroke-width:0.5;"/><path d="M378,96.2969 L378,106.2969 L388,106.2969 L378,96.2969 " fill="#FEFFDD" style="stroke:#181818;stroke-width:0.5;"/><text fill="#000000" font-family="sans-serif" font-size="13" lengthAdjust="spacing" textLength="268" x="105" y="113.3638">Unreferenced objects/attributes displayed</text><polygon fill="#181818" points="766.5,143.5625,776.5,147.5625,766.5,151.5625,770.5,147.5625" style="stroke:#181818;stroke-width:1.0;"/><line style="stroke:#181818;stroke-width:1.0;" x1="38.5" x2="772.5" y1="147.5625" y2="147.5625"/><text fill="#000000" font-family="sans-serif" font-size="13" lengthAdjust="spacing" textLength="109" x="45.5" y="142.4966">toggle edit mode</text><polygon fill="#181818" points="891.5,172.6953,901.5,176.6953,891.5,180.6953,895.5,176.6953" style="stroke:#181818;stroke-width:1.0;"/><line style="stroke:#181818;stroke-width:1.0;stroke-dasharray:2.0,2.0;" x1="778.5" x2="897.5" y1="176.6953" y2="176.6953"/><text fill="#000000" font-family="sans-serif" font-size="13" lengthAdjust="spacing" textLength="91" x="785.5" y="171.6294">state changes</text><polygon fill="#181818" points="264.5,201.8281,254.5,205.8281,264.5,209.8281,260.5,205.8281" style="stroke:#181818;stroke-width:1.0;"/><line style="stroke:#181818;stroke-width:1.0;" x1="258.5" x2="902.5" y1="205.8281" y2="205.8281"/><text fill="#000000" font-family="sans-serif" font-size="13" lengthAdjust="spacing" textLength="103" x="270.5" y="200.7622">enter edit mode</text><polygon fill="#181818" points="455.5,230.9609,465.5,234.9609,455.5,238.9609,459.5,234.9609" style="stroke:#181818;stroke-width:1.0;"/><line style="stroke:#181818;stroke-width:1.0;" x1="38.5" x2="461.5" y1="234.9609" y2="234.9609"/><text fill="#000000" font-family="sans-serif" font-size="13" lengthAdjust="spacing" textLength="190" x="45.5" y="229.895">click " Add Reference " button</text><polygon fill="#181818" points="264.5,260.0938,254.5,264.0938,264.5,268.0938,260.5,264.0938" style="stroke:#181818;stroke-width:1.0;"/><line style="stroke:#181818;stroke-width:1.0;" x1="258.5" x2="471.5" y1="264.0938" y2="264.0938"/><text fill="#000000" font-family="sans-serif" font-size="13" lengthAdjust="spacing" textLength="190" x="270.5" y="259.0278">initiate "add reference" action</text><path d="M10,279.0938 L228,279.0938 L228,286.2266 L218,296.2266 L10,296.2266 L10,279.0938 " fill="#EEEEEE" style="stroke:#000000;stroke-width:1.5;"/><rect fill="none" height="90.5313" style="stroke:#000000;stroke-width:1.5;" width="295.5" x="10" y="279.0938"/><text fill="#000000" font-family="sans-serif" font-size="13" font-weight="bold" lengthAdjust="spacing" textLength="173" x="25" y="292.1606">"add reference" action</text><polygon fill="#181818" points="49.5,328.4922,39.5,332.4922,49.5,336.4922,45.5,332.4922" style="stroke:#181818;stroke-width:1.0;"/><line style="stroke:#181818;stroke-width:1.0;" x1="43.5" x2="242.5" y1="332.4922" y2="332.4922"/><text fill="#000000" font-family="sans-serif" font-size="13" lengthAdjust="spacing" textLength="83" x="55.5" y="312.2935">allow to drag</text><text fill="#000000" font-family="sans-serif" font-size="13" lengthAdjust="spacing" textLength="176" x="55.5" y="327.4263">an edge from node to node</text><polygon fill="#181818" points="231.5,357.625,241.5,361.625,231.5,365.625,235.5,361.625" style="stroke:#181818;stroke-width:1.0;"/><line style="stroke:#181818;stroke-width:1.0;" x1="38.5" x2="237.5" y1="361.625" y2="361.625"/><text fill="#000000" font-family="sans-serif" font-size="13" lengthAdjust="spacing" textLength="126" x="45.5" y="356.5591">drag new reference</text><polygon fill="#181818" points="608.5,393.7578,618.5,397.7578,608.5,401.7578,612.5,397.7578" style="stroke:#181818;stroke-width:1.0;"/><line style="stroke:#181818;stroke-width:1.0;" x1="253.5" x2="614.5" y1="397.7578" y2="397.7578"/><text fill="#000000" font-family="sans-serif" font-size="13" lengthAdjust="spacing" textLength="246" x="260.5" y="392.6919">initiate "enter reference values" action</text><path d="M10,412.7578 L295,412.7578 L295,419.8906 L285,429.8906 L10,429.8906 L10,412.7578 " fill="#EEEEEE" style="stroke:#000000;stroke-width:1.5;"/><rect fill="none" height="168.7969" style="stroke:#000000;stroke-width:1.5;" width="1066" x="10" y="412.7578"/><text fill="#000000" font-family="sans-serif" font-size="13" font-weight="bold" lengthAdjust="spacing" textLength="240" x="25" y="425.8247">"enter reference values" action</text><path d="M529,434.8906 L529,459.8906 L722,459.8906 L722,444.8906 L712,434.8906 L529,434.8906 " fill="#FEFFDD" style="stroke:#181818;stroke-width:0.5;"/><path d="M712,434.8906 L712,444.8906 L722,444.8906 L712,434.8906 " fill="#FEFFDD" style="stroke:#181818;stroke-width:0.5;"/><text fill="#000000" font-family="sans-serif" font-size="13" lengthAdjust="spacing" textLength="172" x="535" y="451.9575">Reference menu displayed</text><polygon fill="#181818" points="49.5,482.1563,39.5,486.1563,49.5,490.1563,45.5,486.1563" style="stroke:#181818;stroke-width:1.0;"/><line style="stroke:#181818;stroke-width:1.0;stroke-dasharray:2.0,2.0;" x1="43.5" x2="619.5" y1="486.1563" y2="486.1563"/><text fill="#000000" font-family="sans-serif" font-size="13" lengthAdjust="spacing" textLength="269" x="55.5" y="481.0903">input form for attributes of new reference</text><polygon fill="#181818" points="608.5,511.2891,618.5,515.2891,608.5,519.2891,612.5,515.2891" style="stroke:#181818;stroke-width:1.0;"/><line style="stroke:#181818;stroke-width:1.0;" x1="38.5" x2="614.5" y1="515.2891" y2="515.2891"/><text fill="#000000" font-family="sans-serif" font-size="13" lengthAdjust="spacing" textLength="113" x="45.5" y="510.2231">submit filled form</text><polygon fill="#181818" points="1006.5,540.4219,1016.5,544.4219,1006.5,548.4219,1010.5,544.4219" style="stroke:#181818;stroke-width:1.0;"/><line style="stroke:#181818;stroke-width:1.0;" x1="630.5" x2="1012.5" y1="544.4219" y2="544.4219"/><text fill="#000000" font-family="sans-serif" font-size="13" lengthAdjust="spacing" textLength="119" x="637.5" y="539.356">send save request</text><polygon fill="#181818" points="636.5,569.5547,626.5,573.5547,636.5,577.5547,632.5,573.5547" style="stroke:#181818;stroke-width:1.0;"/><line style="stroke:#181818;stroke-width:1.0;stroke-dasharray:2.0,2.0;" x1="630.5" x2="1017.5" y1="573.5547" y2="573.5547"/><text fill="#000000" font-family="sans-serif" font-size="13" lengthAdjust="spacing" textLength="51" x="642.5" y="568.4888">success</text><polygon fill="#181818" points="891.5,605.6875,901.5,609.6875,891.5,613.6875,895.5,609.6875" style="stroke:#181818;stroke-width:1.0;"/><line style="stroke:#181818;stroke-width:1.0;" x1="248.5" x2="897.5" y1="609.6875" y2="609.6875"/><text fill="#000000" font-family="sans-serif" font-size="13" lengthAdjust="spacing" textLength="93" x="255.5" y="604.6216">exit edit mode</text><polygon fill="#181818" points="789.5,634.8203,779.5,638.8203,789.5,642.8203,785.5,638.8203" style="stroke:#181818;stroke-width:1.0;"/><line style="stroke:#181818;stroke-width:1.0;" x1="783.5" x2="902.5" y1="638.8203" y2="638.8203"/><text fill="#000000" font-family="sans-serif" font-size="13" lengthAdjust="spacing" textLength="71" x="795.5" y="633.7544">view mode</text><line style="stroke:#181818;stroke-width:1.0;" x1="248.5" x2="290.5" y1="667.9531" y2="667.9531"/><line style="stroke:#181818;stroke-width:1.0;" x1="290.5" x2="290.5" y1="667.9531" y2="680.9531"/><line style="stroke:#181818;stroke-width:1.0;" x1="249.5" x2="290.5" y1="680.9531" y2="680.9531"/><polygon fill="#181818" points="259.5,676.9531,249.5,680.9531,259.5,684.9531,255.5,680.9531" style="stroke:#181818;stroke-width:1.0;"/><text fill="#000000" font-family="sans-serif" font-size="13" lengthAdjust="spacing" textLength="146" x="255.5" y="662.8872">add newly added edge</text><path d="M164,693.9531 L164,718.9531 L323,718.9531 L323,703.9531 L313,693.9531 L164,693.9531 " fill="#FEFFDD" style="stroke:#181818;stroke-width:0.5;"/><path d="M313,693.9531 L313,703.9531 L323,703.9531 L313,693.9531 " fill="#FEFFDD" style="stroke:#181818;stroke-width:0.5;"/><text fill="#000000" font-family="sans-serif" font-size="13" lengthAdjust="spacing" textLength="138" x="170" y="711.02">New reference added</text><!--SRC=[XLJBRjim4BppAnQwv6JqBWG6qg8j2lI5ehdrGf5hcOt4PKbAIVw-kx8jKRO3Nyo7zZ4pE_JUMOGTKMxeHIbjCaLuJ1X19nXuLNmFrQT8FgEtbGewPcTSq3v3zN54NZv77VQL9A2SMpckutw4xCWd-8P-c08fv9xtS7__WVf0djEsstNEtOEry0jt6D4Rl5jojRNnT7sho6yAIsAcS2F-gtwb8KjiTzYjGra049ciphhH2Q5whysJt3xy_7B05jmaeXjrnb8EJtocaNLTBg66HpzJiK3DNpGvlTCvHzSC6HDObm93GQkK30Cssvb5pRksxRYBTHbwigXEdpOSTYHGGye2nUorRp6fupK7h73mLg3DbQvHc14SXrU3wPnvWWfMa-8pOy_aboB71ALEOr-rhy5vbvq4LZnRc1LXHOtuHbcyBDL66i9R2GKtRYMuQz1THy-i6TYeM_ZZjMU-BNi_KW-UISitMHUY9SOfo-FpqatieCvQdNkpv7RGUFuCe-u6J3Fc4wCRORCIvwqAYrsYMAOpwL_Owk8rRKwAEH_OAJkAlVn0uKhQdIanAtRPEGrDpwxQkQvZYqkrQpstyd8uMDvIqYDoxN_CEdDiS1EaQvMDmPHATrneScL4yyF05yQrMBueKvX-UI_BkniTavzopckNXX5diahTg-oOkfXDlVK_yBsKyv3m7m00]--></g></svg>