<?xml version="1.0" encoding="us-ascii" standalone="no"?><svg xmlns="http://www.w3.org/2000/svg" xmlns:xlink="http://www.w3.org/1999/xlink" contentStyleType="text/css" height="459px" preserveAspectRatio="none" style="width:734px;height:459px;background:#FFFFFF;" version="1.1" viewBox="0 0 734 459" width="734px" zoomAndPan="magnify"><defs/><g><rect fill="#DDDDDD" height="440.7578" style="stroke:#181818;stroke-width:0.5;" width="495" x="70" y="6"/><text fill="#000000" font-family="sans-serif" font-size="13" font-weight="bold" lengthAdjust="spacing" textLength="70" x="282.5" y="18.0669">Frontend</text><rect fill="#FFFFFF" height="352.4609" style="stroke:#181818;stroke-width:1.0;" width="10" x="40.5" y="91.2969"/><rect fill="#FFFFFF" height="352.4609" style="stroke:#181818;stroke-width:1.0;" width="10" x="115.5" y="91.2969"/><rect fill="#FFFFFF" height="93.3984" style="stroke:#181818;stroke-width:1.0;" width="10" x="343.5" y="147.5625"/><rect fill="#FFFFFF" height="215.9297" style="stroke:#181818;stroke-width:1.0;" width="10" x="498.5" y="176.6953"/><rect fill="#FFFFFF" height="352.4609" style="stroke:#181818;stroke-width:1.0;" width="10" x="680.5" y="91.2969"/><line style="stroke:#181818;stroke-width:0.5;stroke-dasharray:5.0,5.0;" x1="45" x2="45" y1="81.2969" y2="452.7578"/><line style="stroke:#181818;stroke-width:0.5;stroke-dasharray:5.0,5.0;" x1="120" x2="120" y1="81.2969" y2="452.7578"/><line style="stroke:#181818;stroke-width:0.5;stroke-dasharray:5.0,5.0;" x1="348" x2="348" y1="81.2969" y2="452.7578"/><line style="stroke:#181818;stroke-width:0.5;stroke-dasharray:5.0,5.0;" x1="503" x2="503" y1="81.2969" y2="452.7578"/><line style="stroke:#181818;stroke-width:0.5;stroke-dasharray:5.0,5.0;" x1="685" x2="685" y1="81.2969" y2="452.7578"/><text fill="#000000" font-family="sans-serif" font-size="14" lengthAdjust="spacing" textLength="31" x="27" y="77.9951">User</text><ellipse cx="45.5" cy="13.5" fill="#E2E2F0" rx="8" ry="8" style="stroke:#181818;stroke-width:0.5;"/><path d="M45.5,21.5 L45.5,48.5 M32.5,29.5 L58.5,29.5 M45.5,48.5 L32.5,63.5 M45.5,48.5 L58.5,63.5 " fill="none" style="stroke:#181818;stroke-width:0.5;"/><rect fill="#E2E2F0" height="30.2969" rx="2.5" ry="2.5" style="stroke:#181818;stroke-width:0.5;" width="93" x="74" y="50"/><text fill="#000000" font-family="sans-serif" font-size="14" lengthAdjust="spacing" textLength="79" x="81" y="69.9951">Events List</text><rect fill="#E2E2F0" height="46.5938" rx="2.5" ry="2.5" style="stroke:#181818;stroke-width:0.5;" width="115" x="291" y="33.7031"/><text fill="#000000" font-family="sans-serif" font-size="14" font-style="italic" lengthAdjust="spacing" textLength="101" x="298" y="53.6982">&#171;Component&#187;</text><text fill="#000000" font-family="sans-serif" font-size="14" lengthAdjust="spacing" textLength="85" x="306" y="69.9951">Options Bar</text><rect fill="#E2E2F0" height="46.5938" rx="2.5" ry="2.5" style="stroke:#181818;stroke-width:0.5;" width="115" x="446" y="33.7031"/><text fill="#000000" font-family="sans-serif" font-size="14" font-style="italic" lengthAdjust="spacing" textLength="101" x="453" y="53.6982">&#171;Component&#187;</text><text fill="#000000" font-family="sans-serif" font-size="14" lengthAdjust="spacing" textLength="80" x="463.5" y="69.9951">Filter Menu</text><text fill="#000000" font-family="sans-serif" font-size="14" lengthAdjust="spacing" textLength="89" x="638" y="77.9951">Backend API</text><path d="M667.5,29 C667.5,19 685.5,19 685.5,19 C685.5,19 703.5,19 703.5,29 L703.5,55 C703.5,65 685.5,65 685.5,65 C685.5,65 667.5,65 667.5,55 L667.5,29 " fill="#E2E2F0" style="stroke:#181818;stroke-width:1.5;"/><path d="M667.5,29 C667.5,39 685.5,39 685.5,39 C685.5,39 703.5,39 703.5,29 " fill="none" style="stroke:#181818;stroke-width:1.5;"/><rect fill="#FFFFFF" height="352.4609" style="stroke:#181818;stroke-width:1.0;" width="10" x="40.5" y="91.2969"/><rect fill="#FFFFFF" height="352.4609" style="stroke:#181818;stroke-width:1.0;" width="10" x="115.5" y="91.2969"/><rect fill="#FFFFFF" height="93.3984" style="stroke:#181818;stroke-width:1.0;" width="10" x="343.5" y="147.5625"/><rect fill="#FFFFFF" height="215.9297" style="stroke:#181818;stroke-width:1.0;" width="10" x="498.5" y="176.6953"/><rect fill="#FFFFFF" height="352.4609" style="stroke:#181818;stroke-width:1.0;" width="10" x="680.5" y="91.2969"/><path d="M5,96.2969 L5,121.2969 L237,121.2969 L237,106.2969 L227,96.2969 L5,96.2969 " fill="#FEFFDD" style="stroke:#181818;stroke-width:0.5;"/><path d="M227,96.2969 L227,106.2969 L237,106.2969 L227,96.2969 " fill="#FEFFDD" style="stroke:#181818;stroke-width:0.5;"/><text fill="#000000" font-family="sans-serif" font-size="13" lengthAdjust="spacing" textLength="211" x="11" y="113.3638">Unfiltered events list is displayed</text><polygon fill="#181818" points="331.5,143.5625,341.5,147.5625,331.5,151.5625,335.5,147.5625" style="stroke:#181818;stroke-width:1.0;"/><line style="stroke:#181818;stroke-width:1.0;" x1="50.5" x2="337.5" y1="147.5625" y2="147.5625"/><text fill="#000000" font-family="sans-serif" font-size="13" lengthAdjust="spacing" textLength="135" x="57.5" y="142.4966">Clicks " Filter " button</text><polygon fill="#181818" points="486.5,172.6953,496.5,176.6953,486.5,180.6953,490.5,176.6953" style="stroke:#181818;stroke-width:1.0;"/><line style="stroke:#181818;stroke-width:1.0;" x1="353.5" x2="492.5" y1="176.6953" y2="176.6953"/><text fill="#000000" font-family="sans-serif" font-size="13" lengthAdjust="spacing" textLength="126" x="360.5" y="171.6294">Initiates filter action</text><path d="M417,189.6953 L417,214.6953 L589,214.6953 L589,199.6953 L579,189.6953 L417,189.6953 " fill="#FEFFDD" style="stroke:#181818;stroke-width:0.5;"/><path d="M579,189.6953 L579,199.6953 L589,199.6953 L579,189.6953 " fill="#FEFFDD" style="stroke:#181818;stroke-width:0.5;"/><text fill="#000000" font-family="sans-serif" font-size="13" lengthAdjust="spacing" textLength="151" x="423" y="206.7622">Filter menu is displayed</text><polygon fill="#181818" points="61.5,236.9609,51.5,240.9609,61.5,244.9609,57.5,240.9609" style="stroke:#181818;stroke-width:1.0;"/><line style="stroke:#181818;stroke-width:1.0;stroke-dasharray:2.0,2.0;" x1="55.5" x2="497.5" y1="240.9609" y2="240.9609"/><text fill="#000000" font-family="sans-serif" font-size="13" lengthAdjust="spacing" textLength="121" x="67.5" y="235.895">filter menu options</text><polygon fill="#181818" points="486.5,266.0938,496.5,270.0938,486.5,274.0938,490.5,270.0938" style="stroke:#181818;stroke-width:1.0;"/><line style="stroke:#181818;stroke-width:1.0;" x1="50.5" x2="492.5" y1="270.0938" y2="270.0938"/><text fill="#000000" font-family="sans-serif" font-size="13" lengthAdjust="spacing" textLength="138" x="57.5" y="265.0278">Specifies filter criteria</text><polygon fill="#181818" points="668.5,295.2266,678.5,299.2266,668.5,303.2266,672.5,299.2266" style="stroke:#181818;stroke-width:1.0;"/><line style="stroke:#181818;stroke-width:1.0;" x1="508.5" x2="674.5" y1="299.2266" y2="299.2266"/><text fill="#000000" font-family="sans-serif" font-size="13" lengthAdjust="spacing" textLength="125" x="515.5" y="294.1606">Sends filter request</text><polygon fill="#181818" points="519.5,324.3594,509.5,328.3594,519.5,332.3594,515.5,328.3594" style="stroke:#181818;stroke-width:1.0;"/><line style="stroke:#181818;stroke-width:1.0;stroke-dasharray:2.0,2.0;" x1="513.5" x2="679.5" y1="328.3594" y2="328.3594"/><text fill="#000000" font-family="sans-serif" font-size="13" lengthAdjust="spacing" textLength="148" x="525.5" y="323.2935">filtered events list data</text><polygon fill="#181818" points="136.5,353.4922,126.5,357.4922,136.5,361.4922,132.5,357.4922" style="stroke:#181818;stroke-width:1.0;"/><line style="stroke:#181818;stroke-width:1.0;" x1="130.5" x2="497.5" y1="357.4922" y2="357.4922"/><text fill="#000000" font-family="sans-serif" font-size="13" lengthAdjust="spacing" textLength="110" x="142.5" y="352.4263">Sends filtered list</text><line style="stroke:#181818;stroke-width:1.0;" x1="125.5" x2="167.5" y1="391.625" y2="391.625"/><line style="stroke:#181818;stroke-width:1.0;" x1="167.5" x2="167.5" y1="391.625" y2="404.625"/><line style="stroke:#181818;stroke-width:1.0;" x1="120.5" x2="167.5" y1="404.625" y2="404.625"/><polygon fill="#181818" points="130.5,400.625,120.5,404.625,130.5,408.625,126.5,404.625" style="stroke:#181818;stroke-width:1.0;"/><text fill="#000000" font-family="sans-serif" font-size="13" lengthAdjust="spacing" textLength="204" x="132.5" y="386.5591">Updates display with filtered list</text><path d="M12,412.625 L12,437.625 L229,437.625 L229,422.625 L219,412.625 L12,412.625 " fill="#FEFFDD" style="stroke:#181818;stroke-width:0.5;"/><path d="M219,412.625 L219,422.625 L229,422.625 L219,412.625 " fill="#FEFFDD" style="stroke:#181818;stroke-width:0.5;"/><text fill="#000000" font-family="sans-serif" font-size="13" lengthAdjust="spacing" textLength="196" x="18" y="429.6919">Filtered events list is displayed</text><!--SRC=[XLBRQiCm37ttLmY_zmT22QnbXS961wCVuCOk5KrjBrQwxUydEt4IxyAUZAHpT8uaNr0RE3j79_SXX6h8TN0CfWCLeETNS1xahdEMZDLIUDKHDkYL9P2FTsCfm1C6af5WOjnoLC8Edj3P01lL9HWvVpEsX_LwwsxUMIRLTKdPOKjiufbXYN8UufB1XY3QrehKIGK3SgEQQym-lEmJJNbCG-5TaHdccQAoDbktZaDtPxKf1nKSxM31w24T81KmWCRWM_Lfj11H05Pr7h22ROlDDO24SHu9fvx8sLbtX0gHbyBqGQc2lKL21atZHzQIFAGNZZDpb4iDIujZfnNBHBTLRfsWRZYKqEQdlpnRbdZrfi4ppkQQ3lb1DMlKSSUCv8jCgCwyzOQtBBYKNEH-lwutNdRPRxf8sPLPwNHYgfVOezTfZUCUu1tfyesw67dSwXyVOVVVD_W2]--></g></svg>