<?xml version="1.0" encoding="us-ascii" standalone="no"?><svg xmlns="http://www.w3.org/2000/svg" xmlns:xlink="http://www.w3.org/1999/xlink" contentStyleType="text/css" height="459px" preserveAspectRatio="none" style="width:737px;height:459px;background:#FFFFFF;" version="1.1" viewBox="0 0 737 459" width="737px" zoomAndPan="magnify"><defs/><g><rect fill="#DDDDDD" height="440.7578" style="stroke:#181818;stroke-width:0.5;" width="498" x="70" y="6"/><text fill="#000000" font-family="sans-serif" font-size="13" font-weight="bold" lengthAdjust="spacing" textLength="70" x="284" y="18.0669">Frontend</text><rect fill="#FFFFFF" height="352.4609" style="stroke:#181818;stroke-width:1.0;" width="10" x="115.5" y="91.2969"/><rect fill="#FFFFFF" height="93.3984" style="stroke:#181818;stroke-width:1.0;" width="10" x="335.5" y="147.5625"/><rect fill="#FFFFFF" height="215.9297" style="stroke:#181818;stroke-width:1.0;" width="10" x="501.5" y="176.6953"/><rect fill="#FFFFFF" height="352.4609" style="stroke:#181818;stroke-width:1.0;" width="10" x="683.5" y="91.2969"/><line style="stroke:#181818;stroke-width:0.5;stroke-dasharray:5.0,5.0;" x1="45" x2="45" y1="81.2969" y2="452.7578"/><line style="stroke:#181818;stroke-width:0.5;stroke-dasharray:5.0,5.0;" x1="120" x2="120" y1="81.2969" y2="452.7578"/><line style="stroke:#181818;stroke-width:0.5;stroke-dasharray:5.0,5.0;" x1="340" x2="340" y1="81.2969" y2="452.7578"/><line style="stroke:#181818;stroke-width:0.5;stroke-dasharray:5.0,5.0;" x1="506" x2="506" y1="81.2969" y2="452.7578"/><line style="stroke:#181818;stroke-width:0.5;stroke-dasharray:5.0,5.0;" x1="688" x2="688" y1="81.2969" y2="452.7578"/><text fill="#000000" font-family="sans-serif" font-size="14" lengthAdjust="spacing" textLength="31" x="27" y="77.9951">User</text><ellipse cx="45.5" cy="13.5" fill="#E2E2F0" rx="8" ry="8" style="stroke:#181818;stroke-width:0.5;"/><path d="M45.5,21.5 L45.5,48.5 M32.5,29.5 L58.5,29.5 M45.5,48.5 L32.5,63.5 M45.5,48.5 L58.5,63.5 " fill="none" style="stroke:#181818;stroke-width:0.5;"/><rect fill="#E2E2F0" height="30.2969" rx="2.5" ry="2.5" style="stroke:#181818;stroke-width:0.5;" width="93" x="74" y="50"/><text fill="#000000" font-family="sans-serif" font-size="14" lengthAdjust="spacing" textLength="79" x="81" y="69.9951">Events List</text><rect fill="#E2E2F0" height="46.5938" rx="2.5" ry="2.5" style="stroke:#181818;stroke-width:0.5;" width="115" x="283" y="33.7031"/><text fill="#000000" font-family="sans-serif" font-size="14" font-style="italic" lengthAdjust="spacing" textLength="101" x="290" y="53.6982">&#171;Component&#187;</text><text fill="#000000" font-family="sans-serif" font-size="14" lengthAdjust="spacing" textLength="85" x="298" y="69.9951">Options Bar</text><rect fill="#E2E2F0" height="46.5938" rx="2.5" ry="2.5" style="stroke:#181818;stroke-width:0.5;" width="115" x="449" y="33.7031"/><text fill="#000000" font-family="sans-serif" font-size="14" font-style="italic" lengthAdjust="spacing" textLength="101" x="456" y="53.6982">&#171;Component&#187;</text><text fill="#000000" font-family="sans-serif" font-size="14" lengthAdjust="spacing" textLength="80" x="466.5" y="69.9951">Filter Menu</text><text fill="#000000" font-family="sans-serif" font-size="14" lengthAdjust="spacing" textLength="89" x="641" y="77.9951">Backend API</text><path d="M670.5,29 C670.5,19 688.5,19 688.5,19 C688.5,19 706.5,19 706.5,29 L706.5,55 C706.5,65 688.5,65 688.5,65 C688.5,65 670.5,65 670.5,55 L670.5,29 " fill="#E2E2F0" style="stroke:#181818;stroke-width:1.5;"/><path d="M670.5,29 C670.5,39 688.5,39 688.5,39 C688.5,39 706.5,39 706.5,29 " fill="none" style="stroke:#181818;stroke-width:1.5;"/><rect fill="#FFFFFF" height="352.4609" style="stroke:#181818;stroke-width:1.0;" width="10" x="115.5" y="91.2969"/><rect fill="#FFFFFF" height="93.3984" style="stroke:#181818;stroke-width:1.0;" width="10" x="335.5" y="147.5625"/><rect fill="#FFFFFF" height="215.9297" style="stroke:#181818;stroke-width:1.0;" width="10" x="501.5" y="176.6953"/><rect fill="#FFFFFF" height="352.4609" style="stroke:#181818;stroke-width:1.0;" width="10" x="683.5" y="91.2969"/><path d="M5,96.2969 L5,121.2969 L237,121.2969 L237,106.2969 L227,96.2969 L5,96.2969 " fill="#FEFFDD" style="stroke:#181818;stroke-width:0.5;"/><path d="M227,96.2969 L227,106.2969 L237,106.2969 L227,96.2969 " fill="#FEFFDD" style="stroke:#181818;stroke-width:0.5;"/><text fill="#000000" font-family="sans-serif" font-size="13" lengthAdjust="spacing" textLength="211" x="11" y="113.3638">Unfiltered events list is displayed</text><polygon fill="#181818" points="323.5,143.5625,333.5,147.5625,323.5,151.5625,327.5,147.5625" style="stroke:#181818;stroke-width:1.0;"/><line style="stroke:#181818;stroke-width:1.0;" x1="45.5" x2="329.5" y1="147.5625" y2="147.5625"/><text fill="#000000" font-family="sans-serif" font-size="13" lengthAdjust="spacing" textLength="126" x="52.5" y="142.4966">click " Filter " button</text><polygon fill="#181818" points="489.5,172.6953,499.5,176.6953,489.5,180.6953,493.5,176.6953" style="stroke:#181818;stroke-width:1.0;"/><line style="stroke:#181818;stroke-width:1.0;" x1="345.5" x2="495.5" y1="176.6953" y2="176.6953"/><text fill="#000000" font-family="sans-serif" font-size="13" lengthAdjust="spacing" textLength="137" x="352.5" y="171.6294">initiate " filter " action</text><path d="M420,189.6953 L420,214.6953 L592,214.6953 L592,199.6953 L582,189.6953 L420,189.6953 " fill="#FEFFDD" style="stroke:#181818;stroke-width:0.5;"/><path d="M582,189.6953 L582,199.6953 L592,199.6953 L582,189.6953 " fill="#FEFFDD" style="stroke:#181818;stroke-width:0.5;"/><text fill="#000000" font-family="sans-serif" font-size="13" lengthAdjust="spacing" textLength="151" x="426" y="206.7622">Filter menu is displayed</text><polygon fill="#181818" points="56.5,236.9609,46.5,240.9609,56.5,244.9609,52.5,240.9609" style="stroke:#181818;stroke-width:1.0;"/><line style="stroke:#181818;stroke-width:1.0;stroke-dasharray:2.0,2.0;" x1="50.5" x2="500.5" y1="240.9609" y2="240.9609"/><text fill="#000000" font-family="sans-serif" font-size="13" lengthAdjust="spacing" textLength="121" x="62.5" y="235.895">filter menu options</text><polygon fill="#181818" points="489.5,266.0938,499.5,270.0938,489.5,274.0938,493.5,270.0938" style="stroke:#181818;stroke-width:1.0;"/><line style="stroke:#181818;stroke-width:1.0;" x1="45.5" x2="495.5" y1="270.0938" y2="270.0938"/><text fill="#000000" font-family="sans-serif" font-size="13" lengthAdjust="spacing" textLength="127" x="52.5" y="265.0278">specify filter criteria</text><polygon fill="#181818" points="671.5,295.2266,681.5,299.2266,671.5,303.2266,675.5,299.2266" style="stroke:#181818;stroke-width:1.0;"/><line style="stroke:#181818;stroke-width:1.0;" x1="511.5" x2="677.5" y1="299.2266" y2="299.2266"/><text fill="#000000" font-family="sans-serif" font-size="13" lengthAdjust="spacing" textLength="117" x="518.5" y="294.1606">send filter request</text><polygon fill="#181818" points="522.5,324.3594,512.5,328.3594,522.5,332.3594,518.5,328.3594" style="stroke:#181818;stroke-width:1.0;"/><line style="stroke:#181818;stroke-width:1.0;stroke-dasharray:2.0,2.0;" x1="516.5" x2="682.5" y1="328.3594" y2="328.3594"/><text fill="#000000" font-family="sans-serif" font-size="13" lengthAdjust="spacing" textLength="148" x="528.5" y="323.2935">filtered events list data</text><polygon fill="#181818" points="136.5,353.4922,126.5,357.4922,136.5,361.4922,132.5,357.4922" style="stroke:#181818;stroke-width:1.0;"/><line style="stroke:#181818;stroke-width:1.0;" x1="130.5" x2="500.5" y1="357.4922" y2="357.4922"/><text fill="#000000" font-family="sans-serif" font-size="13" lengthAdjust="spacing" textLength="102" x="142.5" y="352.4263">send filtered list</text><line style="stroke:#181818;stroke-width:1.0;" x1="125.5" x2="167.5" y1="391.625" y2="391.625"/><line style="stroke:#181818;stroke-width:1.0;" x1="167.5" x2="167.5" y1="391.625" y2="404.625"/><line style="stroke:#181818;stroke-width:1.0;" x1="120.5" x2="167.5" y1="404.625" y2="404.625"/><polygon fill="#181818" points="130.5,400.625,120.5,404.625,130.5,408.625,126.5,404.625" style="stroke:#181818;stroke-width:1.0;"/><text fill="#000000" font-family="sans-serif" font-size="13" lengthAdjust="spacing" textLength="196" x="132.5" y="386.5591">update display with filtered list</text><path d="M12,412.625 L12,437.625 L229,437.625 L229,422.625 L219,412.625 L12,412.625 " fill="#FEFFDD" style="stroke:#181818;stroke-width:0.5;"/><path d="M219,412.625 L219,422.625 L229,422.625 L219,412.625 " fill="#FEFFDD" style="stroke:#181818;stroke-width:0.5;"/><text fill="#000000" font-family="sans-serif" font-size="13" lengthAdjust="spacing" textLength="196" x="18" y="429.6919">Filtered events list is displayed</text><!--SRC=[XLB1RiCW3Btp5HRt_a1KHLgdLPgqQRlq0oXGrMeAB3ZT-lSp19gasxGJilsU_VpC4Os5W_Uqzrz2A4s-XrsqFQW80x-2yo2tlNTadP4Yg9vGOr2EG3vThAC8BnX99e9DSSVH4lOM2BsBi55zXf4FP-i6MAyV_JbunwIsNLAss16BU6LOfXp6UCbWGP1a6qLghw85kL7wbB8Fxy-PfWBcfV2YoDv5arZdEVGNxd_BGGCxDmwrPan7o0MCO326Jbsj4I9P1AkshjI0xb2VG49PGC9-8F9k6bkGGbGNc3qEQW0T4YQGh0lp5ZgPD_77manp9PU9kUTIPEcruab9RrERPwWVZoEC_IcnRbT7n60r7gwLhtla1zKqeKqUCoxTeEHw-p5ODbbm9KkepNvrDvrotkvsa4LJ9kN3YLjv2Hs2INiK2-0JwNZ7d6rR3FtZ5sp_-mFV]--></g></svg>