<?xml version="1.0" encoding="us-ascii" standalone="no"?><svg xmlns="http://www.w3.org/2000/svg" xmlns:xlink="http://www.w3.org/1999/xlink" contentStyleType="text/css" height="459px" preserveAspectRatio="none" style="width:723px;height:459px;background:#FFFFFF;" version="1.1" viewBox="0 0 723 459" width="723px" zoomAndPan="magnify"><defs/><g><rect fill="#DDDDDD" height="440.7578" style="stroke:#181818;stroke-width:0.5;" width="490" x="72" y="6"/><text fill="#000000" font-family="sans-serif" font-size="13" font-weight="bold" lengthAdjust="spacing" textLength="67" x="283.5" y="18.0669">Frontend</text><rect fill="#FFFFFF" height="352.4609" style="stroke:#181818;stroke-width:1.0;" width="10" x="115" y="91.2969"/><rect fill="#FFFFFF" height="93.3984" style="stroke:#181818;stroke-width:1.0;" width="10" x="331" y="147.5625"/><rect fill="#FFFFFF" height="215.9297" style="stroke:#181818;stroke-width:1.0;" width="10" x="496" y="176.6953"/><line style="stroke:#181818;stroke-width:0.5;stroke-dasharray:5.0,5.0;" x1="47" x2="47" y1="81.2969" y2="452.7578"/><line style="stroke:#181818;stroke-width:0.5;stroke-dasharray:5.0,5.0;" x1="120" x2="120" y1="81.2969" y2="452.7578"/><line style="stroke:#181818;stroke-width:0.5;stroke-dasharray:5.0,5.0;" x1="336" x2="336" y1="81.2969" y2="452.7578"/><line style="stroke:#181818;stroke-width:0.5;stroke-dasharray:5.0,5.0;" x1="501" x2="501" y1="81.2969" y2="452.7578"/><line style="stroke:#181818;stroke-width:0.5;stroke-dasharray:5.0,5.0;" x1="676" x2="676" y1="81.2969" y2="452.7578"/><text fill="#000000" font-family="sans-serif" font-size="14" lengthAdjust="spacing" textLength="32" x="28" y="77.9951">User</text><ellipse cx="47" cy="13.5" fill="#E2E2F0" rx="8" ry="8" style="stroke:#181818;stroke-width:0.5;"/><path d="M47,21.5 L47,48.5 M34,29.5 L60,29.5 M47,48.5 L34,63.5 M47,48.5 L60,63.5 " fill="none" style="stroke:#181818;stroke-width:0.5;"/><rect fill="#E2E2F0" height="30.2969" rx="2.5" ry="2.5" style="stroke:#181818;stroke-width:0.5;" width="88" x="76" y="50"/><text fill="#000000" font-family="sans-serif" font-size="14" lengthAdjust="spacing" textLength="74" x="83" y="69.9951">Events List</text><rect fill="#E2E2F0" height="46.5938" rx="2.5" ry="2.5" style="stroke:#181818;stroke-width:0.5;" width="114" x="279" y="33.7031"/><text fill="#000000" font-family="sans-serif" font-size="14" font-style="italic" lengthAdjust="spacing" textLength="100" x="286" y="53.6982">&#171;Component&#187;</text><text fill="#000000" font-family="sans-serif" font-size="14" lengthAdjust="spacing" textLength="70" x="301" y="69.9951">Action Bar</text><rect fill="#E2E2F0" height="46.5938" rx="2.5" ry="2.5" style="stroke:#181818;stroke-width:0.5;" width="114" x="444" y="33.7031"/><text fill="#000000" font-family="sans-serif" font-size="14" font-style="italic" lengthAdjust="spacing" textLength="100" x="451" y="53.6982">&#171;Component&#187;</text><text fill="#000000" font-family="sans-serif" font-size="14" lengthAdjust="spacing" textLength="76" x="463" y="69.9951">Filter Menu</text><text fill="#000000" font-family="sans-serif" font-size="14" lengthAdjust="spacing" textLength="86" x="630" y="77.9951">Backend API</text><path d="M658,29 C658,19 676,19 676,19 C676,19 694,19 694,29 L694,55 C694,65 676,65 676,65 C676,65 658,65 658,55 L658,29 " fill="#E2E2F0" style="stroke:#181818;stroke-width:1.5;"/><path d="M658,29 C658,39 676,39 676,39 C676,39 694,39 694,29 " fill="none" style="stroke:#181818;stroke-width:1.5;"/><rect fill="#FFFFFF" height="352.4609" style="stroke:#181818;stroke-width:1.0;" width="10" x="115" y="91.2969"/><rect fill="#FFFFFF" height="93.3984" style="stroke:#181818;stroke-width:1.0;" width="10" x="331" y="147.5625"/><rect fill="#FFFFFF" height="215.9297" style="stroke:#181818;stroke-width:1.0;" width="10" x="496" y="176.6953"/><path d="M5,96.2969 L5,121.2969 L235,121.2969 L235,106.2969 L225,96.2969 L5,96.2969 " fill="#FEFFDD" style="stroke:#181818;stroke-width:0.5;"/><path d="M225,96.2969 L225,106.2969 L235,106.2969 L225,96.2969 " fill="#FEFFDD" style="stroke:#181818;stroke-width:0.5;"/><text fill="#000000" font-family="sans-serif" font-size="13" lengthAdjust="spacing" textLength="209" x="11" y="113.3638">Unfiltered events list is displayed</text><polygon fill="#181818" points="319,143.5625,329,147.5625,319,151.5625,323,147.5625" style="stroke:#181818;stroke-width:1.0;"/><line style="stroke:#181818;stroke-width:1.0;" x1="47" x2="325" y1="147.5625" y2="147.5625"/><text fill="#000000" font-family="sans-serif" font-size="13" lengthAdjust="spacing" textLength="126" x="54" y="142.4966">click " Filter " button</text><polygon fill="#181818" points="484,172.6953,494,176.6953,484,180.6953,488,176.6953" style="stroke:#181818;stroke-width:1.0;"/><line style="stroke:#181818;stroke-width:1.0;" x1="341" x2="490" y1="176.6953" y2="176.6953"/><text fill="#000000" font-family="sans-serif" font-size="13" lengthAdjust="spacing" textLength="136" x="348" y="171.6294">initiate " filter " action</text><path d="M415,189.6953 L415,214.6953 L586,214.6953 L586,199.6953 L576,189.6953 L415,189.6953 " fill="#FEFFDD" style="stroke:#181818;stroke-width:0.5;"/><path d="M576,189.6953 L576,199.6953 L586,199.6953 L576,189.6953 " fill="#FEFFDD" style="stroke:#181818;stroke-width:0.5;"/><text fill="#000000" font-family="sans-serif" font-size="13" lengthAdjust="spacing" textLength="150" x="421" y="206.7622">Filter menu is displayed</text><polygon fill="#181818" points="58,236.9609,48,240.9609,58,244.9609,54,240.9609" style="stroke:#181818;stroke-width:1.0;"/><line style="stroke:#181818;stroke-width:1.0;stroke-dasharray:2.0,2.0;" x1="52" x2="495" y1="240.9609" y2="240.9609"/><text fill="#000000" font-family="sans-serif" font-size="13" lengthAdjust="spacing" textLength="120" x="64" y="235.895">filter menu options</text><polygon fill="#181818" points="484,266.0938,494,270.0938,484,274.0938,488,270.0938" style="stroke:#181818;stroke-width:1.0;"/><line style="stroke:#181818;stroke-width:1.0;" x1="47" x2="490" y1="270.0938" y2="270.0938"/><text fill="#000000" font-family="sans-serif" font-size="13" lengthAdjust="spacing" textLength="124" x="54" y="265.0278">specify filter criteria</text><polygon fill="#181818" points="664,295.2266,674,299.2266,664,303.2266,668,299.2266" style="stroke:#181818;stroke-width:1.0;"/><line style="stroke:#181818;stroke-width:1.0;" x1="506" x2="670" y1="299.2266" y2="299.2266"/><text fill="#000000" font-family="sans-serif" font-size="13" lengthAdjust="spacing" textLength="116" x="513" y="294.1606">send filter request</text><polygon fill="#181818" points="517,324.3594,507,328.3594,517,332.3594,513,328.3594" style="stroke:#181818;stroke-width:1.0;"/><line style="stroke:#181818;stroke-width:1.0;stroke-dasharray:2.0,2.0;" x1="511" x2="675" y1="328.3594" y2="328.3594"/><text fill="#000000" font-family="sans-serif" font-size="13" lengthAdjust="spacing" textLength="146" x="523" y="323.2935">filtered events list data</text><polygon fill="#181818" points="136,353.4922,126,357.4922,136,361.4922,132,357.4922" style="stroke:#181818;stroke-width:1.0;"/><line style="stroke:#181818;stroke-width:1.0;" x1="130" x2="495" y1="357.4922" y2="357.4922"/><text fill="#000000" font-family="sans-serif" font-size="13" lengthAdjust="spacing" textLength="101" x="142" y="352.4263">send filtered list</text><line style="stroke:#181818;stroke-width:1.0;" x1="125" x2="167" y1="391.625" y2="391.625"/><line style="stroke:#181818;stroke-width:1.0;" x1="167" x2="167" y1="391.625" y2="404.625"/><line style="stroke:#181818;stroke-width:1.0;" x1="120" x2="167" y1="404.625" y2="404.625"/><polygon fill="#181818" points="130,400.625,120,404.625,130,408.625,126,404.625" style="stroke:#181818;stroke-width:1.0;"/><text fill="#000000" font-family="sans-serif" font-size="13" lengthAdjust="spacing" textLength="192" x="132" y="386.5591">update display with filtered list</text><path d="M12,412.625 L12,437.625 L227,437.625 L227,422.625 L217,412.625 L12,412.625 " fill="#FEFFDD" style="stroke:#181818;stroke-width:0.5;"/><path d="M217,412.625 L217,422.625 L227,422.625 L217,412.625 " fill="#FEFFDD" style="stroke:#181818;stroke-width:0.5;"/><text fill="#000000" font-family="sans-serif" font-size="13" lengthAdjust="spacing" textLength="194" x="18" y="429.6919">Filtered events list is displayed</text><!--SRC=[XLBBRWCX3Bpp5HRt_C0gMYcf6gbIA_MI3o1052jReE1Dcx-lOI7PxKCz8UoPyNZWXCR2qNiw-4yXb2OVOPzi19LWv5Dm7UGkUaVM6Ic2YeGQWt84yl5Y7ILunaGo4so-3tnRmZQQq3lOgbXGvCERTIEirm_-BNZ7dBvVCdOu47juOLYX7AVxai5-8BisYjH19Gjog_GvLpUlJuMc0fQTyAB8pjmvprT_OSLR3JhOkscCDLCvGMbW0eCf3EfgZH0v4rZrROaEz83w31AgPGc7aSYx-zYA5ABjpUnfK0Vea323P5kHVPUqxlofCVFSo7LYqLoQh5ehdfJzTasyG7t8-aaO-zDYswwDIC5gF5uRNqVa0zLzGfypPbnElTQYVHyjXoouKomqiL_JpOytbxizo4AKIUNXnAszX8x1v3rg1F21TFh6d6rR0_tZ5-p-_GDV]--></g></svg>