<?xml version="1.0" encoding="us-ascii" standalone="no"?><svg xmlns="http://www.w3.org/2000/svg" xmlns:xlink="http://www.w3.org/1999/xlink" contentStyleType="text/css" height="855px" preserveAspectRatio="none" style="width:1257px;height:855px;background:#FFFFFF;" version="1.1" viewBox="0 0 1257 855" width="1257px" zoomAndPan="magnify"><defs/><g><rect fill="#DDDDDD" height="836.6172" style="stroke:#181818;stroke-width:0.5;" width="945" x="213" y="6"/><text fill="#000000" font-family="sans-serif" font-size="13" font-weight="bold" lengthAdjust="spacing" textLength="67" x="652" y="18.0669">Frontend</text><rect fill="#FFFFFF" height="85.3984" style="stroke:#181818;stroke-width:1.0;" width="10" x="256" y="91.2969"/><rect fill="#FFFFFF" height="624.7891" style="stroke:#181818;stroke-width:1.0;" width="10" x="389.5" y="176.6953"/><rect fill="#FFFFFF" height="174.7969" style="stroke:#181818;stroke-width:1.0;" width="10" x="623.5" y="351.4922"/><rect fill="#FFFFFF" height="246.0625" style="stroke:#181818;stroke-width:1.0;" width="10" x="809" y="526.2891"/><line style="stroke:#181818;stroke-width:0.5;stroke-dasharray:5.0,5.0;" x1="24" x2="24" y1="81.2969" y2="848.6172"/><line style="stroke:#181818;stroke-width:0.5;stroke-dasharray:5.0,5.0;" x1="261" x2="261" y1="81.2969" y2="848.6172"/><line style="stroke:#181818;stroke-width:0.5;stroke-dasharray:5.0,5.0;" x1="394" x2="394" y1="81.2969" y2="848.6172"/><line style="stroke:#181818;stroke-width:0.5;stroke-dasharray:5.0,5.0;" x1="628.5" x2="628.5" y1="81.2969" y2="848.6172"/><line style="stroke:#181818;stroke-width:0.5;stroke-dasharray:5.0,5.0;" x1="813.5" x2="813.5" y1="81.2969" y2="848.6172"/><line style="stroke:#181818;stroke-width:0.5;stroke-dasharray:5.0,5.0;" x1="973" x2="973" y1="81.2969" y2="848.6172"/><line style="stroke:#181818;stroke-width:0.5;stroke-dasharray:5.0,5.0;" x1="1097" x2="1097" y1="81.2969" y2="848.6172"/><line style="stroke:#181818;stroke-width:0.5;stroke-dasharray:5.0,5.0;" x1="1210" x2="1210" y1="81.2969" y2="848.6172"/><text fill="#000000" font-family="sans-serif" font-size="14" lengthAdjust="spacing" textLength="32" x="5" y="77.9951">User</text><ellipse cx="24" cy="13.5" fill="#E2E2F0" rx="8" ry="8" style="stroke:#181818;stroke-width:0.5;"/><path d="M24,21.5 L24,48.5 M11,29.5 L37,29.5 M24,48.5 L11,63.5 M24,48.5 L37,63.5 " fill="none" style="stroke:#181818;stroke-width:0.5;"/><rect fill="#E2E2F0" height="30.2969" rx="2.5" ry="2.5" style="stroke:#181818;stroke-width:0.5;" width="88" x="217" y="50"/><text fill="#000000" font-family="sans-serif" font-size="14" lengthAdjust="spacing" textLength="74" x="224" y="69.9951">events/[id]</text><rect fill="#E2E2F0" height="30.2969" rx="2.5" ry="2.5" style="stroke:#181818;stroke-width:0.5;" width="159" x="315" y="50"/><text fill="#000000" font-family="sans-serif" font-size="14" lengthAdjust="spacing" textLength="145" x="322" y="69.9951">events/[id]/attributes</text><rect fill="#E2E2F0" height="46.5938" rx="2.5" ry="2.5" style="stroke:#181818;stroke-width:0.5;" width="184" x="536.5" y="33.7031"/><text fill="#000000" font-family="sans-serif" font-size="14" font-style="italic" lengthAdjust="spacing" textLength="100" x="578.5" y="53.6982">&#171;Component&#187;</text><text fill="#000000" font-family="sans-serif" font-size="14" lengthAdjust="spacing" textLength="170" x="543.5" y="69.9951">Freetext Import Dialogue</text><rect fill="#E2E2F0" height="46.5938" rx="2.5" ry="2.5" style="stroke:#181818;stroke-width:0.5;" width="167" x="730.5" y="33.7031"/><text fill="#000000" font-family="sans-serif" font-size="14" font-style="italic" lengthAdjust="spacing" textLength="100" x="764" y="53.6982">&#171;Component&#187;</text><text fill="#000000" font-family="sans-serif" font-size="14" lengthAdjust="spacing" textLength="153" x="737.5" y="69.9951">Create Attributes View</text><rect fill="#E2E2F0" height="46.5938" rx="2.5" ry="2.5" style="stroke:#181818;stroke-width:0.5;" width="114" x="916" y="33.7031"/><text fill="#000000" font-family="sans-serif" font-size="14" font-style="italic" lengthAdjust="spacing" textLength="100" x="923" y="53.6982">&#171;Component&#187;</text><text fill="#000000" font-family="sans-serif" font-size="14" lengthAdjust="spacing" textLength="70" x="938" y="69.9951">Top Menu</text><rect fill="#E2E2F0" height="46.5938" rx="2.5" ry="2.5" style="stroke:#181818;stroke-width:0.5;" width="114" x="1040" y="33.7031"/><text fill="#000000" font-family="sans-serif" font-size="14" font-style="italic" lengthAdjust="spacing" textLength="100" x="1047" y="53.6982">&#171;Component&#187;</text><text fill="#000000" font-family="sans-serif" font-size="14" lengthAdjust="spacing" textLength="45" x="1074.5" y="69.9951">Layout</text><text fill="#000000" font-family="sans-serif" font-size="14" lengthAdjust="spacing" textLength="86" x="1164" y="77.9951">Backend API</text><path d="M1192,29 C1192,19 1210,19 1210,19 C1210,19 1228,19 1228,29 L1228,55 C1228,65 1210,65 1210,65 C1210,65 1192,65 1192,55 L1192,29 " fill="#E2E2F0" style="stroke:#181818;stroke-width:1.5;"/><path d="M1192,29 C1192,39 1210,39 1210,39 C1210,39 1228,39 1228,29 " fill="none" style="stroke:#181818;stroke-width:1.5;"/><rect fill="#FFFFFF" height="85.3984" style="stroke:#181818;stroke-width:1.0;" width="10" x="256" y="91.2969"/><rect fill="#FFFFFF" height="624.7891" style="stroke:#181818;stroke-width:1.0;" width="10" x="389.5" y="176.6953"/><rect fill="#FFFFFF" height="174.7969" style="stroke:#181818;stroke-width:1.0;" width="10" x="623.5" y="351.4922"/><rect fill="#FFFFFF" height="246.0625" style="stroke:#181818;stroke-width:1.0;" width="10" x="809" y="526.2891"/><path d="M178,96.2969 L178,121.2969 L344,121.2969 L344,106.2969 L334,96.2969 L178,96.2969 " fill="#FEFFDD" style="stroke:#181818;stroke-width:0.5;"/><path d="M334,96.2969 L334,106.2969 L344,106.2969 L334,96.2969 " fill="#FEFFDD" style="stroke:#181818;stroke-width:0.5;"/><text fill="#000000" font-family="sans-serif" font-size="13" lengthAdjust="spacing" textLength="145" x="184" y="113.3638">event view is displayed</text><polygon fill="#181818" points="244,143.5625,254,147.5625,244,151.5625,248,147.5625" style="stroke:#181818;stroke-width:1.0;"/><line style="stroke:#181818;stroke-width:1.0;" x1="24" x2="250" y1="147.5625" y2="147.5625"/><text fill="#000000" font-family="sans-serif" font-size="13" lengthAdjust="spacing" textLength="123" x="31" y="142.4966">click on "attributes"</text><polygon fill="#181818" points="35,172.6953,25,176.6953,35,180.6953,31,176.6953" style="stroke:#181818;stroke-width:1.0;"/><line style="stroke:#181818;stroke-width:1.0;stroke-dasharray:2.0,2.0;" x1="29" x2="260" y1="176.6953" y2="176.6953"/><text fill="#000000" font-family="sans-serif" font-size="13" lengthAdjust="spacing" textLength="208" x="41" y="171.6294">redirect to /events/[id]/attributes</text><polygon fill="#181818" points="1198,201.8281,1208,205.8281,1198,209.8281,1202,205.8281" style="stroke:#181818;stroke-width:1.0;"/><line style="stroke:#181818;stroke-width:1.0;" x1="399.5" x2="1204" y1="205.8281" y2="205.8281"/><text fill="#000000" font-family="sans-serif" font-size="13" lengthAdjust="spacing" textLength="91" x="406.5" y="200.7622">GET attributes</text><polygon fill="#181818" points="410.5,230.9609,400.5,234.9609,410.5,238.9609,406.5,234.9609" style="stroke:#181818;stroke-width:1.0;"/><line style="stroke:#181818;stroke-width:1.0;stroke-dasharray:2.0,2.0;" x1="404.5" x2="1209" y1="234.9609" y2="234.9609"/><text fill="#000000" font-family="sans-serif" font-size="13" lengthAdjust="spacing" textLength="102" x="416.5" y="229.895">event attributes</text><polygon fill="#181818" points="961,260.0938,971,264.0938,961,268.0938,965,264.0938" style="stroke:#181818;stroke-width:1.0;"/><line style="stroke:#181818;stroke-width:1.0;" x1="24" x2="967" y1="264.0938" y2="264.0938"/><text fill="#000000" font-family="sans-serif" font-size="13" lengthAdjust="spacing" textLength="109" x="31" y="259.0278">toggle edit mode</text><polygon fill="#181818" points="1085,289.2266,1095,293.2266,1085,297.2266,1089,293.2266" style="stroke:#181818;stroke-width:1.0;"/><line style="stroke:#181818;stroke-width:1.0;stroke-dasharray:2.0,2.0;" x1="973" x2="1091" y1="293.2266" y2="293.2266"/><text fill="#000000" font-family="sans-serif" font-size="13" lengthAdjust="spacing" textLength="91" x="980" y="288.1606">state changes</text><polygon fill="#181818" points="410.5,318.3594,400.5,322.3594,410.5,326.3594,406.5,322.3594" style="stroke:#181818;stroke-width:1.0;"/><line style="stroke:#181818;stroke-width:1.0;" x1="404.5" x2="1096" y1="322.3594" y2="322.3594"/><text fill="#000000" font-family="sans-serif" font-size="13" lengthAdjust="spacing" textLength="103" x="416.5" y="317.2935">enter edit mode</text><polygon fill="#181818" points="377.5,347.4922,387.5,351.4922,377.5,355.4922,381.5,351.4922" style="stroke:#181818;stroke-width:1.0;"/><line style="stroke:#181818;stroke-width:1.0;" x1="24" x2="383.5" y1="351.4922" y2="351.4922"/><text fill="#000000" font-family="sans-serif" font-size="13" lengthAdjust="spacing" textLength="215" x="31" y="346.4263">click on "freetext import dialogue"</text><polygon fill="#181818" points="611.5,376.625,621.5,380.625,611.5,384.625,615.5,380.625" style="stroke:#181818;stroke-width:1.0;"/><line style="stroke:#181818;stroke-width:1.0;" x1="399.5" x2="617.5" y1="380.625" y2="380.625"/><text fill="#000000" font-family="sans-serif" font-size="13" lengthAdjust="spacing" textLength="200" x="406.5" y="375.5591">open "freetext import dialogue"</text><polygon fill="#181818" points="35,405.7578,25,409.7578,35,413.7578,31,409.7578" style="stroke:#181818;stroke-width:1.0;"/><line style="stroke:#181818;stroke-width:1.0;stroke-dasharray:2.0,2.0;" x1="29" x2="622.5" y1="409.7578" y2="409.7578"/><text fill="#000000" font-family="sans-serif" font-size="13" lengthAdjust="spacing" textLength="154" x="41" y="404.6919">freetext import dialogue</text><polygon fill="#181818" points="611.5,434.8906,621.5,438.8906,611.5,442.8906,615.5,438.8906" style="stroke:#181818;stroke-width:1.0;"/><line style="stroke:#181818;stroke-width:1.0;" x1="24" x2="617.5" y1="438.8906" y2="438.8906"/><text fill="#000000" font-family="sans-serif" font-size="13" lengthAdjust="spacing" textLength="77" x="31" y="433.8247">enter inputs</text><polygon fill="#181818" points="1198,464.0234,1208,468.0234,1198,472.0234,1202,468.0234" style="stroke:#181818;stroke-width:1.0;"/><line style="stroke:#181818;stroke-width:1.0;" x1="633.5" x2="1204" y1="468.0234" y2="468.0234"/><text fill="#000000" font-family="sans-serif" font-size="13" lengthAdjust="spacing" textLength="188" x="640.5" y="462.9575">GET similar attribute patterns</text><polygon fill="#181818" points="644.5,493.1563,634.5,497.1563,644.5,501.1563,640.5,497.1563" style="stroke:#181818;stroke-width:1.0;"/><line style="stroke:#181818;stroke-width:1.0;stroke-dasharray:2.0,2.0;" x1="638.5" x2="1209" y1="497.1563" y2="497.1563"/><text fill="#000000" font-family="sans-serif" font-size="13" lengthAdjust="spacing" textLength="159" x="650.5" y="492.0903">similar attribute patterns</text><polygon fill="#181818" points="797,522.2891,807,526.2891,797,530.2891,801,526.2891" style="stroke:#181818;stroke-width:1.0;"/><line style="stroke:#181818;stroke-width:1.0;" x1="628.5" x2="803" y1="526.2891" y2="526.2891"/><text fill="#000000" font-family="sans-serif" font-size="13" lengthAdjust="spacing" textLength="117" x="635.5" y="521.2231">suggest attributes</text><polygon fill="#181818" points="35,551.4219,25,555.4219,35,559.4219,31,555.4219" style="stroke:#181818;stroke-width:1.0;"/><line style="stroke:#181818;stroke-width:1.0;stroke-dasharray:2.0,2.0;" x1="29" x2="808" y1="555.4219" y2="555.4219"/><text fill="#000000" font-family="sans-serif" font-size="13" lengthAdjust="spacing" textLength="102" x="41" y="550.356">display dialogue</text><polygon fill="#181818" points="797,580.5547,807,584.5547,797,588.5547,801,584.5547" style="stroke:#181818;stroke-width:1.0;"/><line style="stroke:#181818;stroke-width:1.0;" x1="24" x2="803" y1="584.5547" y2="584.5547"/><text fill="#000000" font-family="sans-serif" font-size="13" lengthAdjust="spacing" textLength="137" x="31" y="579.4888">change internal value</text><line style="stroke:#181818;stroke-width:1.0;stroke-dasharray:2.0,2.0;" x1="819" x2="861" y1="613.6875" y2="613.6875"/><line style="stroke:#181818;stroke-width:1.0;stroke-dasharray:2.0,2.0;" x1="861" x2="861" y1="613.6875" y2="626.6875"/><line style="stroke:#181818;stroke-width:1.0;stroke-dasharray:2.0,2.0;" x1="820" x2="861" y1="626.6875" y2="626.6875"/><polygon fill="#181818" points="830,622.6875,820,626.6875,830,630.6875,826,626.6875" style="stroke:#181818;stroke-width:1.0;"/><text fill="#000000" font-family="sans-serif" font-size="13" lengthAdjust="spacing" textLength="135" x="826" y="608.6216">update internal value</text><polygon fill="#181818" points="35,651.8203,25,655.8203,35,659.8203,31,655.8203" style="stroke:#181818;stroke-width:1.0;"/><line style="stroke:#181818;stroke-width:1.0;stroke-dasharray:2.0,2.0;" x1="29" x2="808" y1="655.8203" y2="655.8203"/><text fill="#000000" font-family="sans-serif" font-size="13" lengthAdjust="spacing" textLength="87" x="41" y="650.7544">display inputs</text><polygon fill="#181818" points="797,680.9531,807,684.9531,797,688.9531,801,684.9531" style="stroke:#181818;stroke-width:1.0;"/><line style="stroke:#181818;stroke-width:1.0;" x1="24" x2="803" y1="684.9531" y2="684.9531"/><text fill="#000000" font-family="sans-serif" font-size="13" lengthAdjust="spacing" textLength="61" x="31" y="679.8872">click save</text><polygon fill="#181818" points="1198,710.0859,1208,714.0859,1198,718.0859,1202,714.0859" style="stroke:#181818;stroke-width:1.0;"/><line style="stroke:#181818;stroke-width:1.0;" x1="819" x2="1204" y1="714.0859" y2="714.0859"/><text fill="#000000" font-family="sans-serif" font-size="13" lengthAdjust="spacing" textLength="83" x="826" y="709.02">PATCH event</text><polygon fill="#181818" points="830,739.2188,820,743.2188,830,747.2188,826,743.2188" style="stroke:#181818;stroke-width:1.0;"/><line style="stroke:#181818;stroke-width:1.0;stroke-dasharray:2.0,2.0;" x1="824" x2="1209" y1="743.2188" y2="743.2188"/><text fill="#000000" font-family="sans-serif" font-size="13" lengthAdjust="spacing" textLength="51" x="836" y="738.1528">success</text><polygon fill="#181818" points="410.5,768.3516,400.5,772.3516,410.5,776.3516,406.5,772.3516" style="stroke:#181818;stroke-width:1.0;"/><line style="stroke:#181818;stroke-width:1.0;stroke-dasharray:2.0,2.0;" x1="404.5" x2="813" y1="772.3516" y2="772.3516"/><text fill="#000000" font-family="sans-serif" font-size="13" lengthAdjust="spacing" textLength="90" x="416.5" y="767.2856">update values</text><polygon fill="#181818" points="1085,797.4844,1095,801.4844,1085,805.4844,1089,801.4844" style="stroke:#181818;stroke-width:1.0;"/><line style="stroke:#181818;stroke-width:1.0;" x1="394.5" x2="1091" y1="801.4844" y2="801.4844"/><text fill="#000000" font-family="sans-serif" font-size="13" lengthAdjust="spacing" textLength="92" x="401.5" y="796.4185">exit edit mode</text><polygon fill="#181818" points="984,826.6172,974,830.6172,984,834.6172,980,830.6172" style="stroke:#181818;stroke-width:1.0;"/><line style="stroke:#181818;stroke-width:1.0;" x1="978" x2="1096" y1="830.6172" y2="830.6172"/><text fill="#000000" font-family="sans-serif" font-size="13" lengthAdjust="spacing" textLength="68" x="990" y="825.5513">view mode</text><!--SRC=[ZLHDRzim3BthLn2-5xa7HO0iMxS26z13jikmWsAngL174YJQo_xzAFaxbhETB57auoCVwJUj45wjfPEz2Y5BiXw-1_GW0zJy5Mo7uibRGsXK8Ppqf4ljf24ei453OVDJgrz534ZtHkFlLRUD9FBwL1E6535SAnre7lNa4Gcl1CyNPpt1HoqhUwunnRrsZwepmkFZmRAVuKoxtHpeu54Imdx833-OOe8fqzF8ANA_1tMq3hwXgLCmMNVXypt_h_AFhIbvL-buuymjXTXu9KcUP40eFiZoFLhtByzjWvmMmbZcRnjMPUWmRDipf8iEe7Hmd0DLKb4tiUHHZoWbFEncyMMbotUm1eg9A6BqU63_5BS5ZqfxB8bhXarUJg4matVaCbTwTel4k4xEy_dJ4IQGqHXPpBtxoYUEGtsz9bi-dSyLKr6Qu68LYluf0dPYR25Gv5Q-INDccCwSoyZZxoTWVRvRlx6d_OI2RiUtdzH2J9foEyRBlYm6VGlMuLtyHSX4oBMeeQ1ClhPsRLnD8GC-rIxeYwwa7zi2Ze_epQXb9i6Tg6o-xDOoJ7rc4MTpCPd9PQlxbnoSoEQODB9RjsK3LyYr8yPTZ7N92XfPST1gbXMKsgd8-7zHRhYs4i8_gQOP3h91iGBTI_woFnw-jDiuwBigJbbY2EjSRpUfApLLE1CoAzToSOOLnoilxRYv4wJvBsbS_l4dajZ5iBy0]--></g></svg>