<?xml version="1.0" encoding="windows-1252" standalone="no"?>
<svg xmlns="http://www.w3.org/2000/svg" xmlns:xlink="http://www.w3.org/1999/xlink" contentStyleType="text/css" height="768px" preserveAspectRatio="none" style="width:1247px;height:768px;background:#FFFFFF;" version="1.1" viewBox="0 0 1247 768" width="1247px" zoomAndPan="magnify"><defs/><g><rect fill="#DDDDDD" height="749.2188" style="stroke:#181818;stroke-width:0.5;" width="935" x="210.5" y="6"/><text fill="#000000" font-family="sans-serif" font-size="13" font-weight="bold" lengthAdjust="spacing" textLength="70" x="643" y="18.0669">Frontend</text><rect fill="#FFFFFF" height="85.3984" style="stroke:#181818;stroke-width:1.0;" width="10" x="256.5" y="91.2969"/><rect fill="#FFFFFF" height="537.3906" style="stroke:#181818;stroke-width:1.0;" width="10" x="369.5" y="176.6953"/><rect fill="#FFFFFF" height="333.4609" style="stroke:#181818;stroke-width:1.0;" width="10" x="595.5" y="351.4922"/><rect fill="#FFFFFF" height="129.5313" style="stroke:#181818;stroke-width:1.0;" width="10" x="794" y="468.0234"/><line style="stroke:#181818;stroke-width:0.5;stroke-dasharray:5.0,5.0;" x1="23" x2="23" y1="81.2969" y2="761.2188"/><line style="stroke:#181818;stroke-width:0.5;stroke-dasharray:5.0,5.0;" x1="261.5" x2="261.5" y1="81.2969" y2="761.2188"/><line style="stroke:#181818;stroke-width:0.5;stroke-dasharray:5.0,5.0;" x1="374.5" x2="374.5" y1="81.2969" y2="761.2188"/><line style="stroke:#181818;stroke-width:0.5;stroke-dasharray:5.0,5.0;" x1="600" x2="600" y1="81.2969" y2="761.2188"/><line style="stroke:#181818;stroke-width:0.5;stroke-dasharray:5.0,5.0;" x1="799" x2="799" y1="81.2969" y2="761.2188"/><line style="stroke:#181818;stroke-width:0.5;stroke-dasharray:5.0,5.0;" x1="958.5" x2="958.5" y1="81.2969" y2="761.2188"/><line style="stroke:#181818;stroke-width:0.5;stroke-dasharray:5.0,5.0;" x1="1083.5" x2="1083.5" y1="81.2969" y2="761.2188"/><line style="stroke:#181818;stroke-width:0.5;stroke-dasharray:5.0,5.0;" x1="1198.5" x2="1198.5" y1="81.2969" y2="761.2188"/><text fill="#000000" font-family="sans-serif" font-size="14" lengthAdjust="spacing" textLength="31" x="5" y="77.9951">User</text><ellipse cx="23.5" cy="13.5" fill="#E2E2F0" rx="8" ry="8" style="stroke:#181818;stroke-width:0.5;"/><path d="M23.5,21.5 L23.5,48.5 M10.5,29.5 L36.5,29.5 M23.5,48.5 L10.5,63.5 M23.5,48.5 L36.5,63.5 " fill="none" style="stroke:#181818;stroke-width:0.5;"/><rect fill="#E2E2F0" height="30.2969" rx="2.5" ry="2.5" style="stroke:#181818;stroke-width:0.5;" width="94" x="214.5" y="50"/><text fill="#000000" font-family="sans-serif" font-size="14" lengthAdjust="spacing" textLength="80" x="221.5" y="69.9951">Event View</text><rect fill="#E2E2F0" height="30.2969" rx="2.5" ry="2.5" style="stroke:#181818;stroke-width:0.5;" width="112" x="318.5" y="50"/><text fill="#000000" font-family="sans-serif" font-size="14" lengthAdjust="spacing" textLength="98" x="325.5" y="69.9951">Attribute List</text><rect fill="#E2E2F0" height="30.2969" rx="2.5" ry="2.5" style="stroke:#181818;stroke-width:0.5;" width="197" x="502" y="50"/><text fill="#000000" font-family="sans-serif" font-size="14" lengthAdjust="spacing" textLength="183" x="509" y="69.9951">Freetext Import Dialogue</text><rect fill="#E2E2F0" height="30.2969" rx="2.5" ry="2.5" style="stroke:#181818;stroke-width:0.5;" width="180" x="709" y="50"/><text fill="#000000" font-family="sans-serif" font-size="14" lengthAdjust="spacing" textLength="166" x="716" y="69.9951">Create Attributes View</text><rect fill="#E2E2F0" height="46.5938" rx="2.5" ry="2.5" style="stroke:#181818;stroke-width:0.5;" width="115" x="901.5" y="33.7031"/><text fill="#000000" font-family="sans-serif" font-size="14" font-style="italic" lengthAdjust="spacing" textLength="101" x="908.5" y="53.6982">«Component»</text><text fill="#000000" font-family="sans-serif" font-size="14" lengthAdjust="spacing" textLength="70" x="924" y="69.9951">Top Menu</text><rect fill="#E2E2F0" height="46.5938" rx="2.5" ry="2.5" style="stroke:#181818;stroke-width:0.5;" width="115" x="1026.5" y="33.7031"/><text fill="#000000" font-family="sans-serif" font-size="14" font-style="italic" lengthAdjust="spacing" textLength="101" x="1033.5" y="53.6982">«Component»</text><text fill="#000000" font-family="sans-serif" font-size="14" lengthAdjust="spacing" textLength="48" x="1060" y="69.9951">Layout</text><text fill="#000000" font-family="sans-serif" font-size="14" lengthAdjust="spacing" textLength="89" x="1151.5" y="77.9951">Backend API</text><path d="M1181,29 C1181,19 1199,19 1199,19 C1199,19 1217,19 1217,29 L1217,55 C1217,65 1199,65 1199,65 C1199,65 1181,65 1181,55 L1181,29 " fill="#E2E2F0" style="stroke:#181818;stroke-width:1.5;"/><path d="M1181,29 C1181,39 1199,39 1199,39 C1199,39 1217,39 1217,29 " fill="none" style="stroke:#181818;stroke-width:1.5;"/><rect fill="#FFFFFF" height="85.3984" style="stroke:#181818;stroke-width:1.0;" width="10" x="256.5" y="91.2969"/><rect fill="#FFFFFF" height="537.3906" style="stroke:#181818;stroke-width:1.0;" width="10" x="369.5" y="176.6953"/><rect fill="#FFFFFF" height="333.4609" style="stroke:#181818;stroke-width:1.0;" width="10" x="595.5" y="351.4922"/><rect fill="#FFFFFF" height="129.5313" style="stroke:#181818;stroke-width:1.0;" width="10" x="794" y="468.0234"/><path d="M176,96.2969 L176,121.2969 L347,121.2969 L347,106.2969 L337,96.2969 L176,96.2969 " fill="#FEFFDD" style="stroke:#181818;stroke-width:0.5;"/><path d="M337,96.2969 L337,106.2969 L347,106.2969 L337,96.2969 " fill="#FEFFDD" style="stroke:#181818;stroke-width:0.5;"/><text fill="#000000" font-family="sans-serif" font-size="13" lengthAdjust="spacing" textLength="150" x="182" y="113.3638">event view is displayed</text><polygon fill="#181818" points="244.5,143.5625,254.5,147.5625,244.5,151.5625,248.5,147.5625" style="stroke:#181818;stroke-width:1.0;"/><line style="stroke:#181818;stroke-width:1.0;" x1="23.5" x2="250.5" y1="147.5625" y2="147.5625"/><text fill="#000000" font-family="sans-serif" font-size="13" lengthAdjust="spacing" textLength="113" x="30.5" y="142.4966">click on attributes</text><polygon fill="#181818" points="34.5,172.6953,24.5,176.6953,34.5,180.6953,30.5,176.6953" style="stroke:#181818;stroke-width:1.0;"/><line style="stroke:#181818;stroke-width:1.0;stroke-dasharray:2.0,2.0;" x1="28.5" x2="260.5" y1="176.6953" y2="176.6953"/><text fill="#000000" font-family="sans-serif" font-size="13" lengthAdjust="spacing" textLength="209" x="40.5" y="171.6294">redirect to /events/[id]/attributes</text><polygon fill="#181818" points="1187,201.8281,1197,205.8281,1187,209.8281,1191,205.8281" style="stroke:#181818;stroke-width:1.0;"/><line style="stroke:#181818;stroke-width:1.0;" x1="379.5" x2="1193" y1="205.8281" y2="205.8281"/><text fill="#000000" font-family="sans-serif" font-size="13" lengthAdjust="spacing" textLength="92" x="386.5" y="200.7622">GET attributes</text><polygon fill="#181818" points="390.5,230.9609,380.5,234.9609,390.5,238.9609,386.5,234.9609" style="stroke:#181818;stroke-width:1.0;"/><line style="stroke:#181818;stroke-width:1.0;stroke-dasharray:2.0,2.0;" x1="384.5" x2="1198" y1="234.9609" y2="234.9609"/><text fill="#000000" font-family="sans-serif" font-size="13" lengthAdjust="spacing" textLength="103" x="396.5" y="229.895">event attributes</text><polygon fill="#181818" points="947,260.0938,957,264.0938,947,268.0938,951,264.0938" style="stroke:#181818;stroke-width:1.0;"/><line style="stroke:#181818;stroke-width:1.0;" x1="23.5" x2="953" y1="264.0938" y2="264.0938"/><text fill="#000000" font-family="sans-serif" font-size="13" lengthAdjust="spacing" textLength="109" x="30.5" y="259.0278">toggle edit mode</text><polygon fill="#181818" points="1072,289.2266,1082,293.2266,1072,297.2266,1076,293.2266" style="stroke:#181818;stroke-width:1.0;"/><line style="stroke:#181818;stroke-width:1.0;stroke-dasharray:2.0,2.0;" x1="959" x2="1078" y1="293.2266" y2="293.2266"/><text fill="#000000" font-family="sans-serif" font-size="13" lengthAdjust="spacing" textLength="91" x="966" y="288.1606">state changes</text><polygon fill="#181818" points="390.5,318.3594,380.5,322.3594,390.5,326.3594,386.5,322.3594" style="stroke:#181818;stroke-width:1.0;"/><line style="stroke:#181818;stroke-width:1.0;" x1="384.5" x2="1083" y1="322.3594" y2="322.3594"/><text fill="#000000" font-family="sans-serif" font-size="13" lengthAdjust="spacing" textLength="103" x="396.5" y="317.2935">enter edit mode</text><polygon fill="#181818" points="357.5,347.4922,367.5,351.4922,357.5,355.4922,361.5,351.4922" style="stroke:#181818;stroke-width:1.0;"/><line style="stroke:#181818;stroke-width:1.0;" x1="23.5" x2="363.5" y1="351.4922" y2="351.4922"/><text fill="#000000" font-family="sans-serif" font-size="13" lengthAdjust="spacing" textLength="187" x="30.5" y="346.4263">click freetext import dialogue</text><polygon fill="#181818" points="583.5,376.625,593.5,380.625,583.5,384.625,587.5,380.625" style="stroke:#181818;stroke-width:1.0;"/><line style="stroke:#181818;stroke-width:1.0;" x1="379.5" x2="589.5" y1="380.625" y2="380.625"/><text fill="#000000" font-family="sans-serif" font-size="13" lengthAdjust="spacing" textLength="192" x="386.5" y="375.5591">open freetext import dialogue</text><polygon fill="#181818" points="583.5,405.7578,593.5,409.7578,583.5,413.7578,587.5,409.7578" style="stroke:#181818;stroke-width:1.0;"/><line style="stroke:#181818;stroke-width:1.0;" x1="23.5" x2="589.5" y1="409.7578" y2="409.7578"/><text fill="#000000" font-family="sans-serif" font-size="13" lengthAdjust="spacing" textLength="77" x="30.5" y="404.6919">enter inputs</text><polygon fill="#181818" points="583.5,434.8906,593.5,438.8906,583.5,442.8906,587.5,438.8906" style="stroke:#181818;stroke-width:1.0;"/><line style="stroke:#181818;stroke-width:1.0;" x1="23.5" x2="589.5" y1="438.8906" y2="438.8906"/><text fill="#000000" font-family="sans-serif" font-size="13" lengthAdjust="spacing" textLength="72" x="30.5" y="433.8247">click create</text><polygon fill="#181818" points="782,464.0234,792,468.0234,782,472.0234,786,468.0234" style="stroke:#181818;stroke-width:1.0;"/><line style="stroke:#181818;stroke-width:1.0;" x1="605.5" x2="788" y1="468.0234" y2="468.0234"/><text fill="#000000" font-family="sans-serif" font-size="13" lengthAdjust="spacing" textLength="117" x="612.5" y="462.9575">suggest attributes</text><polygon fill="#181818" points="782,493.1563,792,497.1563,782,501.1563,786,497.1563" style="stroke:#181818;stroke-width:1.0;"/><line style="stroke:#181818;stroke-width:1.0;" x1="23.5" x2="788" y1="497.1563" y2="497.1563"/><text fill="#000000" font-family="sans-serif" font-size="13" lengthAdjust="spacing" textLength="138" x="30.5" y="492.0903">change internal value</text><line style="stroke:#181818;stroke-width:1.0;" x1="804" x2="846" y1="526.2891" y2="526.2891"/><line style="stroke:#181818;stroke-width:1.0;" x1="846" x2="846" y1="526.2891" y2="539.2891"/><line style="stroke:#181818;stroke-width:1.0;" x1="805" x2="846" y1="539.2891" y2="539.2891"/><polygon fill="#181818" points="815,535.2891,805,539.2891,815,543.2891,811,539.2891" style="stroke:#181818;stroke-width:1.0;"/><text fill="#000000" font-family="sans-serif" font-size="13" lengthAdjust="spacing" textLength="136" x="811" y="521.2231">update internal value</text><polygon fill="#181818" points="782,564.4219,792,568.4219,782,572.4219,786,568.4219" style="stroke:#181818;stroke-width:1.0;"/><line style="stroke:#181818;stroke-width:1.0;" x1="23.5" x2="788" y1="568.4219" y2="568.4219"/><text fill="#000000" font-family="sans-serif" font-size="13" lengthAdjust="spacing" textLength="62" x="30.5" y="563.356">click save</text><polygon fill="#181818" points="616.5,593.5547,606.5,597.5547,616.5,601.5547,612.5,597.5547" style="stroke:#181818;stroke-width:1.0;"/><line style="stroke:#181818;stroke-width:1.0;" x1="610.5" x2="798" y1="597.5547" y2="597.5547"/><text fill="#000000" font-family="sans-serif" font-size="13" lengthAdjust="spacing" textLength="91" x="622.5" y="592.4888">update values</text><polygon fill="#181818" points="1187,622.6875,1197,626.6875,1187,630.6875,1191,626.6875" style="stroke:#181818;stroke-width:1.0;"/><line style="stroke:#181818;stroke-width:1.0;" x1="605.5" x2="1193" y1="626.6875" y2="626.6875"/><text fill="#000000" font-family="sans-serif" font-size="13" lengthAdjust="spacing" textLength="84" x="612.5" y="621.6216">PATCH event</text><polygon fill="#181818" points="616.5,651.8203,606.5,655.8203,616.5,659.8203,612.5,655.8203" style="stroke:#181818;stroke-width:1.0;"/><line style="stroke:#181818;stroke-width:1.0;stroke-dasharray:2.0,2.0;" x1="610.5" x2="1198" y1="655.8203" y2="655.8203"/><text fill="#000000" font-family="sans-serif" font-size="13" lengthAdjust="spacing" textLength="51" x="622.5" y="650.7544">success</text><polygon fill="#181818" points="390.5,680.9531,380.5,684.9531,390.5,688.9531,386.5,684.9531" style="stroke:#181818;stroke-width:1.0;"/><line style="stroke:#181818;stroke-width:1.0;" x1="384.5" x2="599.5" y1="684.9531" y2="684.9531"/><text fill="#000000" font-family="sans-serif" font-size="13" lengthAdjust="spacing" textLength="84" x="396.5" y="679.8872">update value</text><polygon fill="#181818" points="1072,710.0859,1082,714.0859,1072,718.0859,1076,714.0859" style="stroke:#181818;stroke-width:1.0;"/><line style="stroke:#181818;stroke-width:1.0;" x1="374.5" x2="1078" y1="714.0859" y2="714.0859"/><text fill="#000000" font-family="sans-serif" font-size="13" lengthAdjust="spacing" textLength="93" x="381.5" y="709.02">exit edit mode</text><polygon fill="#181818" points="970,739.2188,960,743.2188,970,747.2188,966,743.2188" style="stroke:#181818;stroke-width:1.0;"/><line style="stroke:#181818;stroke-width:1.0;" x1="964" x2="1083" y1="743.2188" y2="743.2188"/><text fill="#000000" font-family="sans-serif" font-size="13" lengthAdjust="spacing" textLength="71" x="976" y="738.1528">view mode</text><!--SRC=[XLDDRzim3BtxLn2v5xa7HO0qQxS27T13kikmWoAnhb174YJPo_xzACbVifNjP9bwv7jy8Z-aG7ZNsf_rjQeOzzh2cqCBp45BtuhYi7coMdbKObCPPhtaqZ3bOVFO8Nr-IFoz2NWClntzvQY3zrQUMu_m8fsFI3Q46ehaw2UBwF7guVbYjFNmHR96rot6lFV-KlJ1FFLeaH7BoEScQJnUZRHkhVAa3Nn7rKQur-P2PxY_FsgIeQYl_Jx7lx0_katTDF6u09DR43mLpBCpSmYR1yO_G_Jm-fnCCBAgb2R5kYF3H_TWbyuGVwG38PqX3XJnWMGNcfoy3gy4T_iidpUIVu9Maz6kckxl21spTc1HI8lSKyUmZGYt_Id5h-qiKM21TLAIlsNs5sHHbyJpzV4qrnA2GKME7lgU0SVkXXVPqQck6v8Yf8UB5bWDLw5W_nGxS3veunzCrLIc3vSOQQxjhDZ0jyGbHuVv0vc6Svp3oOxLYAuSMIAekZQeRXSVD1KIatofJElTlt19Vjg2gbe1AAcq8S77jYO3ipSPMoqkrI3YHhtq8gIOT2lMGCSQwh08lbsaDIBmBuhyZpbQu5XtcwvWN4yL6R9LA3PVT3PjmElXTFoM1dmS_mAVQpb7vyg55ZCvrpQNjXh1zGoEUu9Nclnf_6TLyhsUDcZQn6XRIFiB]--></g></svg>