<?xml version="1.0" encoding="us-ascii" standalone="no"?><svg xmlns="http://www.w3.org/2000/svg" xmlns:xlink="http://www.w3.org/1999/xlink" contentStyleType="text/css" height="855px" preserveAspectRatio="none" style="width:1262px;height:855px;background:#FFFFFF;" version="1.1" viewBox="0 0 1262 855" width="1262px" zoomAndPan="magnify"><defs/><g><rect fill="#DDDDDD" height="836.6172" style="stroke:#181818;stroke-width:0.5;" width="950" x="213" y="6"/><text fill="#000000" font-family="sans-serif" font-size="13" font-weight="bold" lengthAdjust="spacing" textLength="67" x="654.5" y="18.0669">Frontend</text><rect fill="#FFFFFF" height="85.3984" style="stroke:#181818;stroke-width:1.0;" width="10" x="256" y="91.2969"/><rect fill="#FFFFFF" height="624.7891" style="stroke:#181818;stroke-width:1.0;" width="10" x="389.5" y="176.6953"/><rect fill="#FFFFFF" height="479.125" style="stroke:#181818;stroke-width:1.0;" width="10" x="394.5" y="322.3594"/><rect fill="#FFFFFF" height="174.7969" style="stroke:#181818;stroke-width:1.0;" width="10" x="628.5" y="351.4922"/><rect fill="#FFFFFF" height="246.0625" style="stroke:#181818;stroke-width:1.0;" width="10" x="814" y="526.2891"/><line style="stroke:#181818;stroke-width:0.5;stroke-dasharray:5.0,5.0;" x1="24" x2="24" y1="81.2969" y2="848.6172"/><line style="stroke:#181818;stroke-width:0.5;stroke-dasharray:5.0,5.0;" x1="261" x2="261" y1="81.2969" y2="848.6172"/><line style="stroke:#181818;stroke-width:0.5;stroke-dasharray:5.0,5.0;" x1="394" x2="394" y1="81.2969" y2="848.6172"/><line style="stroke:#181818;stroke-width:0.5;stroke-dasharray:5.0,5.0;" x1="633.5" x2="633.5" y1="81.2969" y2="848.6172"/><line style="stroke:#181818;stroke-width:0.5;stroke-dasharray:5.0,5.0;" x1="818.5" x2="818.5" y1="81.2969" y2="848.6172"/><line style="stroke:#181818;stroke-width:0.5;stroke-dasharray:5.0,5.0;" x1="978" x2="978" y1="81.2969" y2="848.6172"/><line style="stroke:#181818;stroke-width:0.5;stroke-dasharray:5.0,5.0;" x1="1102" x2="1102" y1="81.2969" y2="848.6172"/><line style="stroke:#181818;stroke-width:0.5;stroke-dasharray:5.0,5.0;" x1="1215" x2="1215" y1="81.2969" y2="848.6172"/><text fill="#000000" font-family="sans-serif" font-size="14" lengthAdjust="spacing" textLength="32" x="5" y="77.9951">User</text><ellipse cx="24" cy="13.5" fill="#E2E2F0" rx="8" ry="8" style="stroke:#181818;stroke-width:0.5;"/><path d="M24,21.5 L24,48.5 M11,29.5 L37,29.5 M24,48.5 L11,63.5 M24,48.5 L37,63.5 " fill="none" style="stroke:#181818;stroke-width:0.5;"/><rect fill="#E2E2F0" height="30.2969" rx="2.5" ry="2.5" style="stroke:#181818;stroke-width:0.5;" width="88" x="217" y="50"/><text fill="#000000" font-family="sans-serif" font-size="14" lengthAdjust="spacing" textLength="74" x="224" y="69.9951">events/[id]</text><rect fill="#E2E2F0" height="30.2969" rx="2.5" ry="2.5" style="stroke:#181818;stroke-width:0.5;" width="159" x="315" y="50"/><text fill="#000000" font-family="sans-serif" font-size="14" lengthAdjust="spacing" textLength="145" x="322" y="69.9951">events/[id]/attributes</text><rect fill="#E2E2F0" height="46.5938" rx="2.5" ry="2.5" style="stroke:#181818;stroke-width:0.5;" width="184" x="541.5" y="33.7031"/><text fill="#000000" font-family="sans-serif" font-size="14" font-style="italic" lengthAdjust="spacing" textLength="100" x="583.5" y="53.6982">&#171;Component&#187;</text><text fill="#000000" font-family="sans-serif" font-size="14" lengthAdjust="spacing" textLength="170" x="548.5" y="69.9951">Freetext Import Dialogue</text><rect fill="#E2E2F0" height="46.5938" rx="2.5" ry="2.5" style="stroke:#181818;stroke-width:0.5;" width="167" x="735.5" y="33.7031"/><text fill="#000000" font-family="sans-serif" font-size="14" font-style="italic" lengthAdjust="spacing" textLength="100" x="769" y="53.6982">&#171;Component&#187;</text><text fill="#000000" font-family="sans-serif" font-size="14" lengthAdjust="spacing" textLength="153" x="742.5" y="69.9951">Create Attributes View</text><rect fill="#E2E2F0" height="46.5938" rx="2.5" ry="2.5" style="stroke:#181818;stroke-width:0.5;" width="114" x="921" y="33.7031"/><text fill="#000000" font-family="sans-serif" font-size="14" font-style="italic" lengthAdjust="spacing" textLength="100" x="928" y="53.6982">&#171;Component&#187;</text><text fill="#000000" font-family="sans-serif" font-size="14" lengthAdjust="spacing" textLength="70" x="943" y="69.9951">Top Menu</text><rect fill="#E2E2F0" height="46.5938" rx="2.5" ry="2.5" style="stroke:#181818;stroke-width:0.5;" width="114" x="1045" y="33.7031"/><text fill="#000000" font-family="sans-serif" font-size="14" font-style="italic" lengthAdjust="spacing" textLength="100" x="1052" y="53.6982">&#171;Component&#187;</text><text fill="#000000" font-family="sans-serif" font-size="14" lengthAdjust="spacing" textLength="45" x="1079.5" y="69.9951">Layout</text><text fill="#000000" font-family="sans-serif" font-size="14" lengthAdjust="spacing" textLength="86" x="1169" y="77.9951">Backend API</text><path d="M1197,29 C1197,19 1215,19 1215,19 C1215,19 1233,19 1233,29 L1233,55 C1233,65 1215,65 1215,65 C1215,65 1197,65 1197,55 L1197,29 " fill="#E2E2F0" style="stroke:#181818;stroke-width:1.5;"/><path d="M1197,29 C1197,39 1215,39 1215,39 C1215,39 1233,39 1233,29 " fill="none" style="stroke:#181818;stroke-width:1.5;"/><rect fill="#FFFFFF" height="85.3984" style="stroke:#181818;stroke-width:1.0;" width="10" x="256" y="91.2969"/><rect fill="#FFFFFF" height="624.7891" style="stroke:#181818;stroke-width:1.0;" width="10" x="389.5" y="176.6953"/><rect fill="#FFFFFF" height="479.125" style="stroke:#181818;stroke-width:1.0;" width="10" x="394.5" y="322.3594"/><rect fill="#FFFFFF" height="174.7969" style="stroke:#181818;stroke-width:1.0;" width="10" x="628.5" y="351.4922"/><rect fill="#FFFFFF" height="246.0625" style="stroke:#181818;stroke-width:1.0;" width="10" x="814" y="526.2891"/><path d="M178,96.2969 L178,121.2969 L344,121.2969 L344,106.2969 L334,96.2969 L178,96.2969 " fill="#FEFFDD" style="stroke:#181818;stroke-width:0.5;"/><path d="M334,96.2969 L334,106.2969 L344,106.2969 L334,96.2969 " fill="#FEFFDD" style="stroke:#181818;stroke-width:0.5;"/><text fill="#000000" font-family="sans-serif" font-size="13" lengthAdjust="spacing" textLength="145" x="184" y="113.3638">event view is displayed</text><polygon fill="#181818" points="244,143.5625,254,147.5625,244,151.5625,248,147.5625" style="stroke:#181818;stroke-width:1.0;"/><line style="stroke:#181818;stroke-width:1.0;" x1="24" x2="250" y1="147.5625" y2="147.5625"/><text fill="#000000" font-family="sans-serif" font-size="13" lengthAdjust="spacing" textLength="123" x="31" y="142.4966">click on "attributes"</text><polygon fill="#181818" points="35,172.6953,25,176.6953,35,180.6953,31,176.6953" style="stroke:#181818;stroke-width:1.0;"/><line style="stroke:#181818;stroke-width:1.0;stroke-dasharray:2.0,2.0;" x1="29" x2="260" y1="176.6953" y2="176.6953"/><text fill="#000000" font-family="sans-serif" font-size="13" lengthAdjust="spacing" textLength="208" x="41" y="171.6294">redirect to /events/[id]/attributes</text><polygon fill="#181818" points="1203,201.8281,1213,205.8281,1203,209.8281,1207,205.8281" style="stroke:#181818;stroke-width:1.0;"/><line style="stroke:#181818;stroke-width:1.0;" x1="399.5" x2="1209" y1="205.8281" y2="205.8281"/><text fill="#000000" font-family="sans-serif" font-size="13" lengthAdjust="spacing" textLength="91" x="406.5" y="200.7622">GET attributes</text><polygon fill="#181818" points="410.5,230.9609,400.5,234.9609,410.5,238.9609,406.5,234.9609" style="stroke:#181818;stroke-width:1.0;"/><line style="stroke:#181818;stroke-width:1.0;stroke-dasharray:2.0,2.0;" x1="404.5" x2="1214" y1="234.9609" y2="234.9609"/><text fill="#000000" font-family="sans-serif" font-size="13" lengthAdjust="spacing" textLength="102" x="416.5" y="229.895">event attributes</text><polygon fill="#181818" points="966,260.0938,976,264.0938,966,268.0938,970,264.0938" style="stroke:#181818;stroke-width:1.0;"/><line style="stroke:#181818;stroke-width:1.0;" x1="24" x2="972" y1="264.0938" y2="264.0938"/><text fill="#000000" font-family="sans-serif" font-size="13" lengthAdjust="spacing" textLength="109" x="31" y="259.0278">toggle edit mode</text><polygon fill="#181818" points="1090,289.2266,1100,293.2266,1090,297.2266,1094,293.2266" style="stroke:#181818;stroke-width:1.0;"/><line style="stroke:#181818;stroke-width:1.0;stroke-dasharray:2.0,2.0;" x1="978" x2="1096" y1="293.2266" y2="293.2266"/><text fill="#000000" font-family="sans-serif" font-size="13" lengthAdjust="spacing" textLength="91" x="985" y="288.1606">state changes</text><polygon fill="#181818" points="415.5,318.3594,405.5,322.3594,415.5,326.3594,411.5,322.3594" style="stroke:#181818;stroke-width:1.0;"/><line style="stroke:#181818;stroke-width:1.0;" x1="409.5" x2="1101" y1="322.3594" y2="322.3594"/><text fill="#000000" font-family="sans-serif" font-size="13" lengthAdjust="spacing" textLength="103" x="421.5" y="317.2935">enter edit mode</text><polygon fill="#181818" points="382.5,347.4922,392.5,351.4922,382.5,355.4922,386.5,351.4922" style="stroke:#181818;stroke-width:1.0;"/><line style="stroke:#181818;stroke-width:1.0;" x1="24" x2="388.5" y1="351.4922" y2="351.4922"/><text fill="#000000" font-family="sans-serif" font-size="13" lengthAdjust="spacing" textLength="215" x="31" y="346.4263">click on "freetext import dialogue"</text><polygon fill="#181818" points="616.5,376.625,626.5,380.625,616.5,384.625,620.5,380.625" style="stroke:#181818;stroke-width:1.0;"/><line style="stroke:#181818;stroke-width:1.0;" x1="404.5" x2="622.5" y1="380.625" y2="380.625"/><text fill="#000000" font-family="sans-serif" font-size="13" lengthAdjust="spacing" textLength="200" x="411.5" y="375.5591">open "freetext import dialogue"</text><polygon fill="#181818" points="35,405.7578,25,409.7578,35,413.7578,31,409.7578" style="stroke:#181818;stroke-width:1.0;"/><line style="stroke:#181818;stroke-width:1.0;stroke-dasharray:2.0,2.0;" x1="29" x2="627.5" y1="409.7578" y2="409.7578"/><text fill="#000000" font-family="sans-serif" font-size="13" lengthAdjust="spacing" textLength="154" x="41" y="404.6919">freetext import dialogue</text><polygon fill="#181818" points="616.5,434.8906,626.5,438.8906,616.5,442.8906,620.5,438.8906" style="stroke:#181818;stroke-width:1.0;"/><line style="stroke:#181818;stroke-width:1.0;" x1="24" x2="622.5" y1="438.8906" y2="438.8906"/><text fill="#000000" font-family="sans-serif" font-size="13" lengthAdjust="spacing" textLength="77" x="31" y="433.8247">enter inputs</text><polygon fill="#181818" points="1203,464.0234,1213,468.0234,1203,472.0234,1207,468.0234" style="stroke:#181818;stroke-width:1.0;"/><line style="stroke:#181818;stroke-width:1.0;" x1="638.5" x2="1209" y1="468.0234" y2="468.0234"/><text fill="#000000" font-family="sans-serif" font-size="13" lengthAdjust="spacing" textLength="188" x="645.5" y="462.9575">GET similar attribute patterns</text><polygon fill="#181818" points="649.5,493.1563,639.5,497.1563,649.5,501.1563,645.5,497.1563" style="stroke:#181818;stroke-width:1.0;"/><line style="stroke:#181818;stroke-width:1.0;stroke-dasharray:2.0,2.0;" x1="643.5" x2="1214" y1="497.1563" y2="497.1563"/><text fill="#000000" font-family="sans-serif" font-size="13" lengthAdjust="spacing" textLength="159" x="655.5" y="492.0903">similar attribute patterns</text><polygon fill="#181818" points="802,522.2891,812,526.2891,802,530.2891,806,526.2891" style="stroke:#181818;stroke-width:1.0;"/><line style="stroke:#181818;stroke-width:1.0;" x1="633.5" x2="808" y1="526.2891" y2="526.2891"/><text fill="#000000" font-family="sans-serif" font-size="13" lengthAdjust="spacing" textLength="117" x="640.5" y="521.2231">suggest attributes</text><polygon fill="#181818" points="35,551.4219,25,555.4219,35,559.4219,31,555.4219" style="stroke:#181818;stroke-width:1.0;"/><line style="stroke:#181818;stroke-width:1.0;stroke-dasharray:2.0,2.0;" x1="29" x2="813" y1="555.4219" y2="555.4219"/><text fill="#000000" font-family="sans-serif" font-size="13" lengthAdjust="spacing" textLength="102" x="41" y="550.356">display dialogue</text><polygon fill="#181818" points="802,580.5547,812,584.5547,802,588.5547,806,584.5547" style="stroke:#181818;stroke-width:1.0;"/><line style="stroke:#181818;stroke-width:1.0;" x1="24" x2="808" y1="584.5547" y2="584.5547"/><text fill="#000000" font-family="sans-serif" font-size="13" lengthAdjust="spacing" textLength="137" x="31" y="579.4888">change internal value</text><line style="stroke:#181818;stroke-width:1.0;stroke-dasharray:2.0,2.0;" x1="824" x2="866" y1="613.6875" y2="613.6875"/><line style="stroke:#181818;stroke-width:1.0;stroke-dasharray:2.0,2.0;" x1="866" x2="866" y1="613.6875" y2="626.6875"/><line style="stroke:#181818;stroke-width:1.0;stroke-dasharray:2.0,2.0;" x1="825" x2="866" y1="626.6875" y2="626.6875"/><polygon fill="#181818" points="835,622.6875,825,626.6875,835,630.6875,831,626.6875" style="stroke:#181818;stroke-width:1.0;"/><text fill="#000000" font-family="sans-serif" font-size="13" lengthAdjust="spacing" textLength="135" x="831" y="608.6216">update internal value</text><polygon fill="#181818" points="35,651.8203,25,655.8203,35,659.8203,31,655.8203" style="stroke:#181818;stroke-width:1.0;"/><line style="stroke:#181818;stroke-width:1.0;stroke-dasharray:2.0,2.0;" x1="29" x2="813" y1="655.8203" y2="655.8203"/><text fill="#000000" font-family="sans-serif" font-size="13" lengthAdjust="spacing" textLength="87" x="41" y="650.7544">display inputs</text><polygon fill="#181818" points="802,680.9531,812,684.9531,802,688.9531,806,684.9531" style="stroke:#181818;stroke-width:1.0;"/><line style="stroke:#181818;stroke-width:1.0;" x1="24" x2="808" y1="684.9531" y2="684.9531"/><text fill="#000000" font-family="sans-serif" font-size="13" lengthAdjust="spacing" textLength="71" x="31" y="679.8872">click "save"</text><polygon fill="#181818" points="1203,710.0859,1213,714.0859,1203,718.0859,1207,714.0859" style="stroke:#181818;stroke-width:1.0;"/><line style="stroke:#181818;stroke-width:1.0;" x1="824" x2="1209" y1="714.0859" y2="714.0859"/><text fill="#000000" font-family="sans-serif" font-size="13" lengthAdjust="spacing" textLength="83" x="831" y="709.02">PATCH event</text><polygon fill="#181818" points="835,739.2188,825,743.2188,835,747.2188,831,743.2188" style="stroke:#181818;stroke-width:1.0;"/><line style="stroke:#181818;stroke-width:1.0;stroke-dasharray:2.0,2.0;" x1="829" x2="1214" y1="743.2188" y2="743.2188"/><text fill="#000000" font-family="sans-serif" font-size="13" lengthAdjust="spacing" textLength="51" x="841" y="738.1528">success</text><polygon fill="#181818" points="415.5,768.3516,405.5,772.3516,415.5,776.3516,411.5,772.3516" style="stroke:#181818;stroke-width:1.0;"/><line style="stroke:#181818;stroke-width:1.0;stroke-dasharray:2.0,2.0;" x1="409.5" x2="818" y1="772.3516" y2="772.3516"/><text fill="#000000" font-family="sans-serif" font-size="13" lengthAdjust="spacing" textLength="90" x="421.5" y="767.2856">update values</text><polygon fill="#181818" points="1090,797.4844,1100,801.4844,1090,805.4844,1094,801.4844" style="stroke:#181818;stroke-width:1.0;"/><line style="stroke:#181818;stroke-width:1.0;" x1="394.5" x2="1096" y1="801.4844" y2="801.4844"/><text fill="#000000" font-family="sans-serif" font-size="13" lengthAdjust="spacing" textLength="92" x="401.5" y="796.4185">exit edit mode</text><polygon fill="#181818" points="989,826.6172,979,830.6172,989,834.6172,985,830.6172" style="stroke:#181818;stroke-width:1.0;"/><line style="stroke:#181818;stroke-width:1.0;" x1="983" x2="1101" y1="830.6172" y2="830.6172"/><text fill="#000000" font-family="sans-serif" font-size="13" lengthAdjust="spacing" textLength="68" x="995" y="825.5513">view mode</text><!--SRC=[ZLHDRzim3BthLn2-5xa7HO0iMxS26z13jikmWsAngL174YJQo_xzAFaxbhET8alau-DxPDwqGdYrbaxsAeGioNhu7j23353ph-1xA9wyDOH65S99JxhKJXg20Xiq53O_jVfLn8JqtMZylHgsaKHUdsh2a3A6pqe7ccSzUKJ2Ay7pnLbFy57BofvhJ7cltQFgBk7nyM0vpd2btMuETF0e2M4_L8OVJ371bEbfv1IvtuCwMWVVqDGfcQoxyFbU_5VvnzQKegjql0bcII4AhoJ9amm8nGTPliVR_SjpAv3JGXZB_6t3hWmAmxOzG_hG0PGEZckWIYxg9hOy-X6jX8VTBB-iTFaEra0nCKMC4GySd_Asu55fZoLnpx39soaKPkgENEPEpxuYCUwJwtp-T8G9PBoCBERHVUUJmA6_tfCjdyxdYgaeJN2n2aN_504xCxOGA78htwGvCqntdQl8u-ydO2jjzJHkqqUf-y45tKvrFy25c6XrEzrBkHRplmNhy2x-8cNYxrhMq52cNYk9Dgwca06VMXhqHLVIZxA0uoDwCrgSAN0dArilkymCKv_PszcuJ4PrANN_aeCJsHeJ8RijN0guGgwTF5OnzYKhQ6J5IQjLLb1gfoBZ_qMvuTfQ2F-accQu2BA9mve7xqr_sHyFNzer7HnUjQSiCOHrjhUxr3MRUfnPcJLikJh3xkELjtbSwGdIVAbN7yQ_Y_5l9z6EU7y1]--></g></svg>