<?xml version="1.0" encoding="us-ascii" standalone="no"?><svg xmlns="http://www.w3.org/2000/svg" xmlns:xlink="http://www.w3.org/1999/xlink" contentStyleType="text/css" height="476px" preserveAspectRatio="none" style="width:556px;height:476px;background:#FFFFFF;" version="1.1" viewBox="0 0 556 476" width="556px" zoomAndPan="magnify"><defs/><g><rect fill="#DDDDDD" height="457.8906" style="stroke:#181818;stroke-width:0.5;" width="336" x="121" y="6"/><text fill="#000000" font-family="sans-serif" font-size="13" font-weight="bold" lengthAdjust="spacing" textLength="67" x="255.5" y="18.0669">Frontend</text><rect fill="#FFFFFF" height="369.5938" style="stroke:#181818;stroke-width:1.0;" width="10" x="160" y="91.2969"/><line style="stroke:#181818;stroke-width:0.5;stroke-dasharray:5.0,5.0;" x1="24" x2="24" y1="81.2969" y2="469.8906"/><line style="stroke:#181818;stroke-width:0.5;stroke-dasharray:5.0,5.0;" x1="165" x2="165" y1="81.2969" y2="469.8906"/><line style="stroke:#181818;stroke-width:0.5;stroke-dasharray:5.0,5.0;" x1="272" x2="272" y1="81.2969" y2="469.8906"/><line style="stroke:#181818;stroke-width:0.5;stroke-dasharray:5.0,5.0;" x1="396" x2="396" y1="81.2969" y2="469.8906"/><line style="stroke:#181818;stroke-width:0.5;stroke-dasharray:5.0,5.0;" x1="509" x2="509" y1="81.2969" y2="469.8906"/><text fill="#000000" font-family="sans-serif" font-size="14" lengthAdjust="spacing" textLength="32" x="5" y="77.9951">User</text><ellipse cx="24" cy="13.5" fill="#E2E2F0" rx="8" ry="8" style="stroke:#181818;stroke-width:0.5;"/><path d="M24,21.5 L24,48.5 M11,29.5 L37,29.5 M24,48.5 L11,63.5 M24,48.5 L37,63.5 " fill="none" style="stroke:#181818;stroke-width:0.5;"/><rect fill="#E2E2F0" height="30.2969" rx="2.5" ry="2.5" style="stroke:#181818;stroke-width:0.5;" width="80" x="125" y="50"/><text fill="#000000" font-family="sans-serif" font-size="14" lengthAdjust="spacing" textLength="66" x="132" y="69.9951">Event List</text><rect fill="#E2E2F0" height="46.5938" rx="2.5" ry="2.5" style="stroke:#181818;stroke-width:0.5;" width="114" x="215" y="33.7031"/><text fill="#000000" font-family="sans-serif" font-size="14" font-style="italic" lengthAdjust="spacing" textLength="100" x="222" y="53.6982">&#171;Component&#187;</text><text fill="#000000" font-family="sans-serif" font-size="14" lengthAdjust="spacing" textLength="70" x="237" y="69.9951">Top Menu</text><rect fill="#E2E2F0" height="46.5938" rx="2.5" ry="2.5" style="stroke:#181818;stroke-width:0.5;" width="114" x="339" y="33.7031"/><text fill="#000000" font-family="sans-serif" font-size="14" font-style="italic" lengthAdjust="spacing" textLength="100" x="346" y="53.6982">&#171;Component&#187;</text><text fill="#000000" font-family="sans-serif" font-size="14" lengthAdjust="spacing" textLength="45" x="373.5" y="69.9951">Layout</text><text fill="#000000" font-family="sans-serif" font-size="14" lengthAdjust="spacing" textLength="86" x="463" y="77.9951">Backend API</text><path d="M491,29 C491,19 509,19 509,19 C509,19 527,19 527,29 L527,55 C527,65 509,65 509,65 C509,65 491,65 491,55 L491,29 " fill="#E2E2F0" style="stroke:#181818;stroke-width:1.5;"/><path d="M491,29 C491,39 509,39 509,39 C509,39 527,39 527,29 " fill="none" style="stroke:#181818;stroke-width:1.5;"/><rect fill="#FFFFFF" height="369.5938" style="stroke:#181818;stroke-width:1.0;" width="10" x="160" y="91.2969"/><path d="M86,96.2969 L86,121.2969 L243,121.2969 L243,106.2969 L233,96.2969 L86,96.2969 " fill="#FEFFDD" style="stroke:#181818;stroke-width:0.5;"/><path d="M233,96.2969 L233,106.2969 L243,106.2969 L233,96.2969 " fill="#FEFFDD" style="stroke:#181818;stroke-width:0.5;"/><text fill="#000000" font-family="sans-serif" font-size="13" lengthAdjust="spacing" textLength="136" x="92" y="113.3638">event list is displayed</text><polygon fill="#181818" points="260,143.5625,270,147.5625,260,151.5625,264,147.5625" style="stroke:#181818;stroke-width:1.0;"/><line style="stroke:#181818;stroke-width:1.0;" x1="24" x2="266" y1="147.5625" y2="147.5625"/><text fill="#000000" font-family="sans-serif" font-size="13" lengthAdjust="spacing" textLength="109" x="31" y="142.4966">toggle edit mode</text><polygon fill="#181818" points="384,172.6953,394,176.6953,384,180.6953,388,176.6953" style="stroke:#181818;stroke-width:1.0;"/><line style="stroke:#181818;stroke-width:1.0;stroke-dasharray:2.0,2.0;" x1="272" x2="390" y1="176.6953" y2="176.6953"/><text fill="#000000" font-family="sans-serif" font-size="13" lengthAdjust="spacing" textLength="91" x="279" y="171.6294">state changes</text><polygon fill="#181818" points="181,201.8281,171,205.8281,181,209.8281,177,205.8281" style="stroke:#181818;stroke-width:1.0;"/><line style="stroke:#181818;stroke-width:1.0;" x1="175" x2="395" y1="205.8281" y2="205.8281"/><text fill="#000000" font-family="sans-serif" font-size="13" lengthAdjust="spacing" textLength="103" x="187" y="200.7622">enter edit mode</text><polygon fill="#181818" points="148,230.9609,158,234.9609,148,238.9609,152,234.9609" style="stroke:#181818;stroke-width:1.0;"/><line style="stroke:#181818;stroke-width:1.0;" x1="24" x2="154" y1="234.9609" y2="234.9609"/><text fill="#000000" font-family="sans-serif" font-size="13" lengthAdjust="spacing" textLength="85" x="31" y="229.895">select events</text><polygon fill="#181818" points="35,260.0938,25,264.0938,35,268.0938,31,264.0938" style="stroke:#181818;stroke-width:1.0;"/><line style="stroke:#181818;stroke-width:1.0;stroke-dasharray:2.0,2.0;" x1="29" x2="159" y1="264.0938" y2="264.0938"/><text fill="#000000" font-family="sans-serif" font-size="13" lengthAdjust="spacing" textLength="112" x="41" y="259.0278">display selections</text><polygon fill="#181818" points="260,289.2266,270,293.2266,260,297.2266,264,293.2266" style="stroke:#181818;stroke-width:1.0;"/><line style="stroke:#181818;stroke-width:1.0;" x1="24" x2="266" y1="293.2266" y2="293.2266"/><text fill="#000000" font-family="sans-serif" font-size="13" lengthAdjust="spacing" textLength="86" x="31" y="288.1606">click "publish"</text><polygon fill="#181818" points="497,318.3594,507,322.3594,497,326.3594,501,322.3594" style="stroke:#181818;stroke-width:1.0;"/><line style="stroke:#181818;stroke-width:1.0;" x1="170" x2="503" y1="322.3594" y2="322.3594"/><text fill="#000000" font-family="sans-serif" font-size="13" lengthAdjust="spacing" textLength="96" x="177" y="317.2935">PUBLISH event</text><polygon fill="#181818" points="181,347.4922,171,351.4922,181,355.4922,177,351.4922" style="stroke:#181818;stroke-width:1.0;"/><line style="stroke:#181818;stroke-width:1.0;stroke-dasharray:2.0,2.0;" x1="175" x2="508" y1="351.4922" y2="351.4922"/><text fill="#000000" font-family="sans-serif" font-size="13" lengthAdjust="spacing" textLength="51" x="187" y="346.4263">success</text><line style="stroke:#181818;stroke-width:1.0;stroke-dasharray:2.0,2.0;" x1="170" x2="212" y1="380.625" y2="380.625"/><line style="stroke:#181818;stroke-width:1.0;stroke-dasharray:2.0,2.0;" x1="212" x2="212" y1="380.625" y2="393.625"/><line style="stroke:#181818;stroke-width:1.0;stroke-dasharray:2.0,2.0;" x1="171" x2="212" y1="393.625" y2="393.625"/><polygon fill="#181818" points="181,389.625,171,393.625,181,397.625,177,393.625" style="stroke:#181818;stroke-width:1.0;"/><text fill="#000000" font-family="sans-serif" font-size="13" lengthAdjust="spacing" textLength="83" x="177" y="375.5591">update value</text><polygon fill="#181818" points="384,418.7578,394,422.7578,384,426.7578,388,422.7578" style="stroke:#181818;stroke-width:1.0;"/><line style="stroke:#181818;stroke-width:1.0;" x1="170" x2="390" y1="422.7578" y2="422.7578"/><text fill="#000000" font-family="sans-serif" font-size="13" lengthAdjust="spacing" textLength="92" x="177" y="417.6919">exit edit mode</text><polygon fill="#181818" points="283,447.8906,273,451.8906,283,455.8906,279,451.8906" style="stroke:#181818;stroke-width:1.0;"/><line style="stroke:#181818;stroke-width:1.0;" x1="277" x2="395" y1="451.8906" y2="451.8906"/><text fill="#000000" font-family="sans-serif" font-size="13" lengthAdjust="spacing" textLength="68" x="289" y="446.8247">view mode</text><!--SRC=[RP1HRi8m38RVSmehxroWGfN6j6b8825j721DF8WeSTGa7RlzdBJG5kqfZltP_d-VhK7u9eeDtOHGEb87nu0Tg029Ny5vaEyTkOZEIE5L5wssNha8ygr7VdOsH9bvpD-MVqlgYppiqQN2HF9NZc6zVgMh9ySTTRtaT-gNqZ2nBU4Jp3eWgpKggaO51BbH-fApBuTjQLFU2k4e8b3FLXwwe1fYA1yRmDZWUGUQOjtsYbic5za_hEg7vegZqwbbnDW8Lp8exgKLOwFO2aBCS_HPkHC6CQOPMEZWUtQpGVTTSoPWYpeEgI2cIbvM-EfkO4GjkV2FQjrQVG7fKyFjPpcVLETRCN8uRdRRpuzXbyYvrREOf3M6Pnbp8dcJVVUgJIYMInwdmHiRdbnFjvdKzXP_IlKF]--></g></svg>