<?xml version="1.0" encoding="us-ascii" standalone="no"?><svg xmlns="http://www.w3.org/2000/svg" xmlns:xlink="http://www.w3.org/1999/xlink" contentStyleType="text/css" height="476px" preserveAspectRatio="none" style="width:561px;height:476px;background:#FFFFFF;" version="1.1" viewBox="0 0 561 476" width="561px" zoomAndPan="magnify"><defs/><g><rect fill="#DDDDDD" height="457.8906" style="stroke:#181818;stroke-width:0.5;" width="341" x="121" y="6"/><text fill="#000000" font-family="sans-serif" font-size="13" font-weight="bold" lengthAdjust="spacing" textLength="67" x="258" y="18.0669">Frontend</text><rect fill="#FFFFFF" height="360.5938" style="stroke:#181818;stroke-width:1.0;" width="10" x="160" y="91.2969"/><rect fill="#FFFFFF" height="216.9297" style="stroke:#181818;stroke-width:1.0;" width="10" x="165" y="205.8281"/><line style="stroke:#181818;stroke-width:0.5;stroke-dasharray:5.0,5.0;" x1="24" x2="24" y1="81.2969" y2="469.8906"/><line style="stroke:#181818;stroke-width:0.5;stroke-dasharray:5.0,5.0;" x1="165" x2="165" y1="81.2969" y2="469.8906"/><line style="stroke:#181818;stroke-width:0.5;stroke-dasharray:5.0,5.0;" x1="277" x2="277" y1="81.2969" y2="469.8906"/><line style="stroke:#181818;stroke-width:0.5;stroke-dasharray:5.0,5.0;" x1="401" x2="401" y1="81.2969" y2="469.8906"/><line style="stroke:#181818;stroke-width:0.5;stroke-dasharray:5.0,5.0;" x1="514" x2="514" y1="81.2969" y2="469.8906"/><text fill="#000000" font-family="sans-serif" font-size="14" lengthAdjust="spacing" textLength="32" x="5" y="77.9951">User</text><ellipse cx="24" cy="13.5" fill="#E2E2F0" rx="8" ry="8" style="stroke:#181818;stroke-width:0.5;"/><path d="M24,21.5 L24,48.5 M11,29.5 L37,29.5 M24,48.5 L11,63.5 M24,48.5 L37,63.5 " fill="none" style="stroke:#181818;stroke-width:0.5;"/><rect fill="#E2E2F0" height="30.2969" rx="2.5" ry="2.5" style="stroke:#181818;stroke-width:0.5;" width="80" x="125" y="50"/><text fill="#000000" font-family="sans-serif" font-size="14" lengthAdjust="spacing" textLength="66" x="132" y="69.9951">Event List</text><rect fill="#E2E2F0" height="46.5938" rx="2.5" ry="2.5" style="stroke:#181818;stroke-width:0.5;" width="114" x="220" y="33.7031"/><text fill="#000000" font-family="sans-serif" font-size="14" font-style="italic" lengthAdjust="spacing" textLength="100" x="227" y="53.6982">&#171;Component&#187;</text><text fill="#000000" font-family="sans-serif" font-size="14" lengthAdjust="spacing" textLength="70" x="242" y="69.9951">Top Menu</text><rect fill="#E2E2F0" height="46.5938" rx="2.5" ry="2.5" style="stroke:#181818;stroke-width:0.5;" width="114" x="344" y="33.7031"/><text fill="#000000" font-family="sans-serif" font-size="14" font-style="italic" lengthAdjust="spacing" textLength="100" x="351" y="53.6982">&#171;Component&#187;</text><text fill="#000000" font-family="sans-serif" font-size="14" lengthAdjust="spacing" textLength="45" x="378.5" y="69.9951">Layout</text><text fill="#000000" font-family="sans-serif" font-size="14" lengthAdjust="spacing" textLength="86" x="468" y="77.9951">Backend API</text><path d="M496,29 C496,19 514,19 514,19 C514,19 532,19 532,29 L532,55 C532,65 514,65 514,65 C514,65 496,65 496,55 L496,29 " fill="#E2E2F0" style="stroke:#181818;stroke-width:1.5;"/><path d="M496,29 C496,39 514,39 514,39 C514,39 532,39 532,29 " fill="none" style="stroke:#181818;stroke-width:1.5;"/><rect fill="#FFFFFF" height="360.5938" style="stroke:#181818;stroke-width:1.0;" width="10" x="160" y="91.2969"/><rect fill="#FFFFFF" height="216.9297" style="stroke:#181818;stroke-width:1.0;" width="10" x="165" y="205.8281"/><path d="M86,96.2969 L86,121.2969 L243,121.2969 L243,106.2969 L233,96.2969 L86,96.2969 " fill="#FEFFDD" style="stroke:#181818;stroke-width:0.5;"/><path d="M233,96.2969 L233,106.2969 L243,106.2969 L233,96.2969 " fill="#FEFFDD" style="stroke:#181818;stroke-width:0.5;"/><text fill="#000000" font-family="sans-serif" font-size="13" lengthAdjust="spacing" textLength="136" x="92" y="113.3638">event list is displayed</text><polygon fill="#181818" points="265,143.5625,275,147.5625,265,151.5625,269,147.5625" style="stroke:#181818;stroke-width:1.0;"/><line style="stroke:#181818;stroke-width:1.0;" x1="24" x2="271" y1="147.5625" y2="147.5625"/><text fill="#000000" font-family="sans-serif" font-size="13" lengthAdjust="spacing" textLength="109" x="31" y="142.4966">toggle edit mode</text><polygon fill="#181818" points="389,172.6953,399,176.6953,389,180.6953,393,176.6953" style="stroke:#181818;stroke-width:1.0;"/><line style="stroke:#181818;stroke-width:1.0;stroke-dasharray:2.0,2.0;" x1="277" x2="395" y1="176.6953" y2="176.6953"/><text fill="#000000" font-family="sans-serif" font-size="13" lengthAdjust="spacing" textLength="91" x="284" y="171.6294">state changes</text><polygon fill="#181818" points="186,201.8281,176,205.8281,186,209.8281,182,205.8281" style="stroke:#181818;stroke-width:1.0;"/><line style="stroke:#181818;stroke-width:1.0;" x1="180" x2="400" y1="205.8281" y2="205.8281"/><text fill="#000000" font-family="sans-serif" font-size="13" lengthAdjust="spacing" textLength="103" x="192" y="200.7622">enter edit mode</text><polygon fill="#181818" points="153,230.9609,163,234.9609,153,238.9609,157,234.9609" style="stroke:#181818;stroke-width:1.0;"/><line style="stroke:#181818;stroke-width:1.0;" x1="24" x2="159" y1="234.9609" y2="234.9609"/><text fill="#000000" font-family="sans-serif" font-size="13" lengthAdjust="spacing" textLength="85" x="31" y="229.895">select events</text><polygon fill="#181818" points="35,260.0938,25,264.0938,35,268.0938,31,264.0938" style="stroke:#181818;stroke-width:1.0;"/><line style="stroke:#181818;stroke-width:1.0;stroke-dasharray:2.0,2.0;" x1="29" x2="164" y1="264.0938" y2="264.0938"/><text fill="#000000" font-family="sans-serif" font-size="13" lengthAdjust="spacing" textLength="112" x="41" y="259.0278">display selections</text><polygon fill="#181818" points="265,289.2266,275,293.2266,265,297.2266,269,293.2266" style="stroke:#181818;stroke-width:1.0;"/><line style="stroke:#181818;stroke-width:1.0;" x1="24" x2="271" y1="293.2266" y2="293.2266"/><text fill="#000000" font-family="sans-serif" font-size="13" lengthAdjust="spacing" textLength="86" x="31" y="288.1606">click "publish"</text><polygon fill="#181818" points="502,318.3594,512,322.3594,502,326.3594,506,322.3594" style="stroke:#181818;stroke-width:1.0;"/><line style="stroke:#181818;stroke-width:1.0;" x1="175" x2="508" y1="322.3594" y2="322.3594"/><text fill="#000000" font-family="sans-serif" font-size="13" lengthAdjust="spacing" textLength="96" x="182" y="317.2935">PUBLISH event</text><polygon fill="#181818" points="186,347.4922,176,351.4922,186,355.4922,182,351.4922" style="stroke:#181818;stroke-width:1.0;"/><line style="stroke:#181818;stroke-width:1.0;stroke-dasharray:2.0,2.0;" x1="180" x2="513" y1="351.4922" y2="351.4922"/><text fill="#000000" font-family="sans-serif" font-size="13" lengthAdjust="spacing" textLength="51" x="192" y="346.4263">success</text><line style="stroke:#181818;stroke-width:1.0;stroke-dasharray:2.0,2.0;" x1="175" x2="217" y1="380.625" y2="380.625"/><line style="stroke:#181818;stroke-width:1.0;stroke-dasharray:2.0,2.0;" x1="217" x2="217" y1="380.625" y2="393.625"/><line style="stroke:#181818;stroke-width:1.0;stroke-dasharray:2.0,2.0;" x1="176" x2="217" y1="393.625" y2="393.625"/><polygon fill="#181818" points="186,389.625,176,393.625,186,397.625,182,393.625" style="stroke:#181818;stroke-width:1.0;"/><text fill="#000000" font-family="sans-serif" font-size="13" lengthAdjust="spacing" textLength="83" x="182" y="375.5591">update value</text><polygon fill="#181818" points="389,418.7578,399,422.7578,389,426.7578,393,422.7578" style="stroke:#181818;stroke-width:1.0;"/><line style="stroke:#181818;stroke-width:1.0;" x1="170" x2="395" y1="422.7578" y2="422.7578"/><text fill="#000000" font-family="sans-serif" font-size="13" lengthAdjust="spacing" textLength="92" x="177" y="417.6919">exit edit mode</text><polygon fill="#181818" points="288,447.8906,278,451.8906,288,455.8906,284,451.8906" style="stroke:#181818;stroke-width:1.0;"/><line style="stroke:#181818;stroke-width:1.0;" x1="282" x2="400" y1="451.8906" y2="451.8906"/><text fill="#000000" font-family="sans-serif" font-size="13" lengthAdjust="spacing" textLength="68" x="294" y="446.8247">view mode</text><!--SRC=[VL3HQiCm37ptLmY_zmT22QnZOuKE2bi_mB6rrZInJ6ndtTzFJj8cATsUBCbtqjsTh47u8eeLNOHGEb8BXu0jg029Ny5paAyjkOZEIE5L6wssNha8ygL3VdOsH9dncDkQkoNgapoyeqiz9f9lk8Rr-faQJuuPPRd4xzGFfM5ZtPTtODO1MQrHKLKg8CYDqkSyVTflUvhoLWX74O4wjdBJ1SLGGz_O0CO6ppVGzDPjfvWokSZ-OLNUD1TS7OyrGuoDq911SVrQCMmKMq28UOy-ANV48COn0nOwECzsjkYVytDQm1fr74P1J3_vVeylhfv6g2KN7XZHjTLda3vLJ3_9-QOonyUG_M6pstwy3RT4dgtknIIjCTpBc2EIDzbJf-g4OddabXPUE8Cf28CFefWod2nq5h__flm2]--></g></svg>