<?xml version="1.0" encoding="us-ascii" standalone="no"?><svg xmlns="http://www.w3.org/2000/svg" xmlns:xlink="http://www.w3.org/1999/xlink" contentStyleType="text/css" height="276px" preserveAspectRatio="none" style="width:180px;height:276px;background:#FFFFFF;" version="1.1" viewBox="0 0 180 276" width="180px" zoomAndPan="magnify"><defs/><g><!--class src/lib/components/input/Input.svelte.ts--><g id="elem_src/lib/components/input/Input.svelte.ts"><rect codeLine="11" fill="#F6F2FF" height="255.8281" id="src/lib/components/input/Input.svelte.ts" rx="2.5" ry="2.5" style="stroke:#181818;stroke-width:0.5;" width="159" x="7" y="7"/><ellipse cx="42.25" cy="27.1328" fill="#9977DD" rx="11" ry="11" style="stroke:#181818;stroke-width:1.0;"/><path d="M45.2188,32.7734 Q44.6406,33.0703 44,33.2109 Q43.3594,33.3672 42.6563,33.3672 Q40.1563,33.3672 38.8281,31.7266 Q37.5156,30.0703 37.5156,26.9453 Q37.5156,23.8203 38.8281,22.1641 Q40.1563,20.5078 42.6563,20.5078 Q43.3594,20.5078 44,20.6641 Q44.6563,20.8203 45.2188,21.1172 L45.2188,23.8359 Q44.5938,23.2578 44,22.9922 Q43.4063,22.7109 42.7813,22.7109 Q41.4375,22.7109 40.75,23.7891 Q40.0625,24.8516 40.0625,26.9453 Q40.0625,29.0391 40.75,30.1172 Q41.4375,31.1797 42.7813,31.1797 Q43.4063,31.1797 44,30.9141 Q44.5938,30.6328 45.2188,30.0547 L45.2188,32.7734 Z " fill="#000000"/><text fill="#000000" font-family="Cantarell" font-size="12" font-style="italic" lengthAdjust="spacing" textLength="86" x="58.75" y="23.1387">&#171;Component&#187;</text><text fill="#000000" font-family="Cantarell" font-size="14" lengthAdjust="spacing" textLength="35" x="84.25" y="38.9639">Input</text><line style="stroke:#181818;stroke-width:0.5;" x1="8" x2="165" y1="47.2656" y2="47.2656"/><ellipse cx="18" cy="81.2109" fill="none" rx="3" ry="3" style="stroke:#038048;stroke-width:1.0;"/><text fill="#000000" font-family="Cantarell" font-size="14" lengthAdjust="spacing" textLength="86" x="27" y="84.5576">placeholder:</text><text fill="#DF8E1D" font-family="Cantarell" font-size="14" font-style="italic" lengthAdjust="spacing" textLength="4" x="117" y="84.5576">&#160;</text><text fill="#8839EF" font-family="Cantarell" font-size="14" lengthAdjust="spacing" textLength="39" x="121" y="84.5576">string</text><ellipse cx="18" cy="97.5078" fill="none" rx="3" ry="3" style="stroke:#038048;stroke-width:1.0;"/><text fill="#000000" font-family="Cantarell" font-size="14" lengthAdjust="spacing" textLength="51" x="27" y="100.8545">name?:</text><text fill="#DF8E1D" font-family="Cantarell" font-size="14" font-style="italic" lengthAdjust="spacing" textLength="4" x="82" y="100.8545">&#160;</text><text fill="#8839EF" font-family="Cantarell" font-size="14" lengthAdjust="spacing" textLength="39" x="86" y="100.8545">string</text><ellipse cx="18" cy="113.8047" fill="none" rx="3" ry="3" style="stroke:#038048;stroke-width:1.0;"/><text fill="#000000" font-family="Cantarell" font-size="14" lengthAdjust="spacing" textLength="48" x="27" y="117.1514">value?:</text><text fill="#DF8E1D" font-family="Cantarell" font-size="14" font-style="italic" lengthAdjust="spacing" textLength="4" x="79" y="117.1514">&#160;</text><text fill="#8839EF" font-family="Cantarell" font-size="14" lengthAdjust="spacing" textLength="39" x="83" y="117.1514">string</text><ellipse cx="18" cy="130.1016" fill="none" rx="3" ry="3" style="stroke:#038048;stroke-width:1.0;"/><text fill="#000000" font-family="Cantarell" font-size="14" lengthAdjust="spacing" textLength="47" x="27" y="133.4482">class?:</text><text fill="#DF8E1D" font-family="Cantarell" font-size="14" font-style="italic" lengthAdjust="spacing" textLength="4" x="78" y="133.4482">&#160;</text><text fill="#8839EF" font-family="Cantarell" font-size="14" lengthAdjust="spacing" textLength="39" x="82" y="133.4482">string</text><line style="stroke:#181818;stroke-width:0.5;" x1="8" x2="51" y1="63.4141" y2="63.4141"/><text fill="#000000" font-family="Cantarell" font-size="14" lengthAdjust="spacing" textLength="71" x="51" y="67.7607">Properties</text><line style="stroke:#181818;stroke-width:0.5;" x1="122" x2="165" y1="63.4141" y2="63.4141"/><ellipse cx="18" cy="166.6953" fill="none" rx="3" ry="3" style="stroke:#038048;stroke-width:1.0;"/><text fill="#000000" font-family="Cantarell" font-size="14" lengthAdjust="spacing" textLength="29" x="27" y="170.042">icon</text><ellipse cx="18" cy="182.9922" fill="none" rx="3" ry="3" style="stroke:#038048;stroke-width:1.0;"/><text fill="#000000" font-family="Cantarell" font-size="14" lengthAdjust="spacing" textLength="47" x="27" y="186.3389">default</text><ellipse cx="18" cy="199.2891" fill="none" rx="3" ry="3" style="stroke:#038048;stroke-width:1.0;"/><text fill="#000000" font-family="Cantarell" font-size="14" lengthAdjust="spacing" textLength="35" x="27" y="202.6357">suffix</text><line style="stroke:#181818;stroke-width:0.5;" x1="8" x2="69.5" y1="148.8984" y2="148.8984"/><text fill="#000000" font-family="Cantarell" font-size="14" lengthAdjust="spacing" textLength="34" x="69.5" y="153.2451">Slots</text><line style="stroke:#181818;stroke-width:0.5;" x1="103.5" x2="165" y1="148.8984" y2="148.8984"/><ellipse cx="18" cy="235.8828" fill="none" rx="3" ry="3" style="stroke:#038048;stroke-width:1.0;"/><text fill="#000000" font-family="Cantarell" font-size="14" lengthAdjust="spacing" textLength="31" x="27" y="239.2295">blur:</text><text fill="#DF8E1D" font-family="Cantarell" font-size="14" font-style="italic" lengthAdjust="spacing" textLength="81" x="66" y="239.2295">FocusEvent</text><ellipse cx="18" cy="252.1797" fill="none" rx="3" ry="3" style="stroke:#038048;stroke-width:1.0;"/><text fill="#000000" font-family="Cantarell" font-size="14" lengthAdjust="spacing" textLength="43" x="27" y="255.5264">focus:</text><text fill="#DF8E1D" font-family="Cantarell" font-size="14" font-style="italic" lengthAdjust="spacing" textLength="81" x="78" y="255.5264">FocusEvent</text><line style="stroke:#181818;stroke-width:0.5;" x1="8" x2="63" y1="218.0859" y2="218.0859"/><text fill="#000000" font-family="Cantarell" font-size="14" lengthAdjust="spacing" textLength="47" x="63" y="222.4326">Events</text><line style="stroke:#181818;stroke-width:0.5;" x1="110" x2="165" y1="218.0859" y2="218.0859"/></g><!--SRC=[hP9TQy8m58Rl_HK7lTdOi7F3MKlfOFq0OGoPFs34zAG6OrAIL2R3_xv4xUX5RuQxIdBU9-_vI0nQC5WJJQpI44K3i-NI7tTGQTNK2xb1pIsH567Q4Kjaf16sKDA-anr2IgGb6eNeC3MXMrBXoXu4mWTIvr89x01K46FWUm3mwb2VJvQf4ah7SQfsjP8eRPB0Y3spHyRwi5nhfPSkYSUmB2SuwSFUo44rPwkGCPpsCQqBO-p14SV1kRhXGjQD7G8nO3GD15y7jAtD1DoBmGaPcpqAYsDh88xX9hs7qNm-csNPBVms0ow1R_Vp4vPQrQWjH-DEBdHN2q9neqI9EeAO-gAYKLQ4-IHBOfv07F0a3axnf9N3y6cU5ucncikg5RsPT6_oShtDdeZcFtnEexpUnurj9PHj9yQfadwz_4M_DGrZ_EkCvdl_H1TsBPh-iHQADkQ4TYlnLvXN_dBd-0C0]--></g></svg>