<?xml version="1.0" encoding="us-ascii" standalone="no"?><svg xmlns="http://www.w3.org/2000/svg" xmlns:xlink="http://www.w3.org/1999/xlink" contentStyleType="text/css" height="518px" preserveAspectRatio="none" style="width:1001px;height:518px;background:#FFFFFF;" version="1.1" viewBox="0 0 1001 518" width="1001px" zoomAndPan="magnify"><defs/><g><rect fill="#DDDDDD" height="499.0234" style="stroke:#181818;stroke-width:0.5;" width="538.5" x="342.5" y="6"/><text fill="#000000" font-family="sans-serif" font-size="13" font-weight="bold" lengthAdjust="spacing" textLength="70" x="576.75" y="18.0669">Frontend</text><rect fill="#FFFFFF" height="410.7266" style="stroke:#181818;stroke-width:1.0;" width="10" x="18.5" y="91.2969"/><rect fill="#FFFFFF" height="410.7266" style="stroke:#181818;stroke-width:1.0;" width="10" x="393.5" y="91.2969"/><rect fill="#FFFFFF" height="29.1328" style="stroke:#181818;stroke-width:1.0;" width="10" x="633.5" y="147.5625"/><rect fill="#FFFFFF" height="151.6641" style="stroke:#181818;stroke-width:1.0;" width="10" x="786.5" y="264.0938"/><rect fill="#FFFFFF" height="410.7266" style="stroke:#181818;stroke-width:1.0;" width="10" x="947.5" y="91.2969"/><line style="stroke:#181818;stroke-width:0.5;stroke-dasharray:5.0,5.0;" x1="23" x2="23" y1="81.2969" y2="511.0234"/><line style="stroke:#181818;stroke-width:0.5;stroke-dasharray:5.0,5.0;" x1="398.5" x2="398.5" y1="81.2969" y2="511.0234"/><line style="stroke:#181818;stroke-width:0.5;stroke-dasharray:5.0,5.0;" x1="638" x2="638" y1="81.2969" y2="511.0234"/><line style="stroke:#181818;stroke-width:0.5;stroke-dasharray:5.0,5.0;" x1="791" x2="791" y1="81.2969" y2="511.0234"/><line style="stroke:#181818;stroke-width:0.5;stroke-dasharray:5.0,5.0;" x1="952" x2="952" y1="81.2969" y2="511.0234"/><text fill="#000000" font-family="sans-serif" font-size="14" lengthAdjust="spacing" textLength="31" x="5" y="77.9951">User</text><ellipse cx="23.5" cy="13.5" fill="#E2E2F0" rx="8" ry="8" style="stroke:#181818;stroke-width:0.5;"/><path d="M23.5,21.5 L23.5,48.5 M10.5,29.5 L36.5,29.5 M23.5,48.5 L10.5,63.5 M23.5,48.5 L36.5,63.5 " fill="none" style="stroke:#181818;stroke-width:0.5;"/><rect fill="#E2E2F0" height="30.2969" rx="2.5" ry="2.5" style="stroke:#181818;stroke-width:0.5;" width="104" x="346.5" y="50"/><text fill="#000000" font-family="sans-serif" font-size="14" lengthAdjust="spacing" textLength="90" x="353.5" y="69.9951">Event Graph</text><rect fill="#E2E2F0" height="46.5938" rx="2.5" ry="2.5" style="stroke:#181818;stroke-width:0.5;" width="115" x="581" y="33.7031"/><text fill="#000000" font-family="sans-serif" font-size="14" font-style="italic" lengthAdjust="spacing" textLength="101" x="588" y="53.6982">&#171;Component&#187;</text><text fill="#000000" font-family="sans-serif" font-size="14" lengthAdjust="spacing" textLength="99" x="589" y="69.9951">Options Menu</text><rect fill="#E2E2F0" height="46.5938" rx="2.5" ry="2.5" style="stroke:#181818;stroke-width:0.5;" width="171" x="706" y="33.7031"/><text fill="#000000" font-family="sans-serif" font-size="14" font-style="italic" lengthAdjust="spacing" textLength="101" x="741" y="53.6982">&#171;Component&#187;</text><text fill="#000000" font-family="sans-serif" font-size="14" lengthAdjust="spacing" textLength="157" x="713" y="69.9951">'Add Reference' Menu</text><text fill="#000000" font-family="sans-serif" font-size="14" lengthAdjust="spacing" textLength="89" x="905" y="77.9951">Backend API</text><path d="M934.5,29 C934.5,19 952.5,19 952.5,19 C952.5,19 970.5,19 970.5,29 L970.5,55 C970.5,65 952.5,65 952.5,65 C952.5,65 934.5,65 934.5,55 L934.5,29 " fill="#E2E2F0" style="stroke:#181818;stroke-width:1.5;"/><path d="M934.5,29 C934.5,39 952.5,39 952.5,39 C952.5,39 970.5,39 970.5,29 " fill="none" style="stroke:#181818;stroke-width:1.5;"/><rect fill="#FFFFFF" height="410.7266" style="stroke:#181818;stroke-width:1.0;" width="10" x="18.5" y="91.2969"/><rect fill="#FFFFFF" height="410.7266" style="stroke:#181818;stroke-width:1.0;" width="10" x="393.5" y="91.2969"/><rect fill="#FFFFFF" height="29.1328" style="stroke:#181818;stroke-width:1.0;" width="10" x="633.5" y="147.5625"/><rect fill="#FFFFFF" height="151.6641" style="stroke:#181818;stroke-width:1.0;" width="10" x="786.5" y="264.0938"/><rect fill="#FFFFFF" height="410.7266" style="stroke:#181818;stroke-width:1.0;" width="10" x="947.5" y="91.2969"/><path d="M254,96.2969 L254,121.2969 L543,121.2969 L543,106.2969 L533,96.2969 L254,96.2969 " fill="#FEFFDD" style="stroke:#181818;stroke-width:0.5;"/><path d="M533,96.2969 L533,106.2969 L543,106.2969 L533,96.2969 " fill="#FEFFDD" style="stroke:#181818;stroke-width:0.5;"/><text fill="#000000" font-family="sans-serif" font-size="13" lengthAdjust="spacing" textLength="268" x="260" y="113.3638">Unreferenced objects/attributes displayed</text><polygon fill="#181818" points="621.5,143.5625,631.5,147.5625,621.5,151.5625,625.5,147.5625" style="stroke:#181818;stroke-width:1.0;"/><line style="stroke:#181818;stroke-width:1.0;" x1="28.5" x2="627.5" y1="147.5625" y2="147.5625"/><text fill="#000000" font-family="sans-serif" font-size="13" lengthAdjust="spacing" textLength="191" x="35.5" y="142.4966">Clicks "Add Reference" button</text><polygon fill="#181818" points="414.5,172.6953,404.5,176.6953,414.5,180.6953,410.5,176.6953" style="stroke:#181818;stroke-width:1.0;"/><line style="stroke:#181818;stroke-width:1.0;" x1="408.5" x2="637.5" y1="176.6953" y2="176.6953"/><text fill="#000000" font-family="sans-serif" font-size="13" lengthAdjust="spacing" textLength="206" x="420.5" y="171.6294">Initiates adding reference action</text><polygon fill="#181818" points="39.5,201.8281,29.5,205.8281,39.5,209.8281,35.5,205.8281" style="stroke:#181818;stroke-width:1.0;"/><line style="stroke:#181818;stroke-width:1.0;" x1="33.5" x2="392.5" y1="205.8281" y2="205.8281"/><text fill="#000000" font-family="sans-serif" font-size="13" lengthAdjust="spacing" textLength="281" x="45.5" y="200.7622">Allows dragging an edge from node to node</text><polygon fill="#181818" points="381.5,230.9609,391.5,234.9609,381.5,238.9609,385.5,234.9609" style="stroke:#181818;stroke-width:1.0;"/><line style="stroke:#181818;stroke-width:1.0;" x1="28.5" x2="387.5" y1="234.9609" y2="234.9609"/><text fill="#000000" font-family="sans-serif" font-size="13" lengthAdjust="spacing" textLength="341" x="35.5" y="229.895">Drags a new reference from an object to an attribute</text><polygon fill="#181818" points="774.5,260.0938,784.5,264.0938,774.5,268.0938,778.5,264.0938" style="stroke:#181818;stroke-width:1.0;"/><line style="stroke:#181818;stroke-width:1.0;" x1="403.5" x2="780.5" y1="264.0938" y2="264.0938"/><text fill="#000000" font-family="sans-serif" font-size="13" lengthAdjust="spacing" textLength="255" x="410.5" y="259.0278">Initiates entering attribute values action</text><path d="M695,277.0938 L695,302.0938 L888,302.0938 L888,287.0938 L878,277.0938 L695,277.0938 " fill="#FEFFDD" style="stroke:#181818;stroke-width:0.5;"/><path d="M878,277.0938 L878,287.0938 L888,287.0938 L878,277.0938 " fill="#FEFFDD" style="stroke:#181818;stroke-width:0.5;"/><text fill="#000000" font-family="sans-serif" font-size="13" lengthAdjust="spacing" textLength="172" x="701" y="294.1606">Reference menu displayed</text><polygon fill="#181818" points="39.5,324.3594,29.5,328.3594,39.5,332.3594,35.5,328.3594" style="stroke:#181818;stroke-width:1.0;"/><line style="stroke:#181818;stroke-width:1.0;stroke-dasharray:2.0,2.0;" x1="33.5" x2="785.5" y1="328.3594" y2="328.3594"/><text fill="#000000" font-family="sans-serif" font-size="13" lengthAdjust="spacing" textLength="269" x="45.5" y="323.2935">input form for attributes of new reference</text><polygon fill="#181818" points="774.5,353.4922,784.5,357.4922,774.5,361.4922,778.5,357.4922" style="stroke:#181818;stroke-width:1.0;"/><line style="stroke:#181818;stroke-width:1.0;" x1="28.5" x2="780.5" y1="357.4922" y2="357.4922"/><text fill="#000000" font-family="sans-serif" font-size="13" lengthAdjust="spacing" textLength="112" x="35.5" y="352.4263">Submits the form</text><polygon fill="#181818" points="935.5,382.625,945.5,386.625,935.5,390.625,939.5,386.625" style="stroke:#181818;stroke-width:1.0;"/><line style="stroke:#181818;stroke-width:1.0;" x1="796.5" x2="941.5" y1="386.625" y2="386.625"/><text fill="#000000" font-family="sans-serif" font-size="13" lengthAdjust="spacing" textLength="127" x="803.5" y="381.5591">Sends save request</text><polygon fill="#181818" points="802.5,411.7578,792.5,415.7578,802.5,419.7578,798.5,415.7578" style="stroke:#181818;stroke-width:1.0;"/><line style="stroke:#181818;stroke-width:1.0;stroke-dasharray:2.0,2.0;" x1="796.5" x2="946.5" y1="415.7578" y2="415.7578"/><text fill="#000000" font-family="sans-serif" font-size="13" lengthAdjust="spacing" textLength="18" x="808.5" y="410.6919">OK</text><line style="stroke:#181818;stroke-width:1.0;" x1="403.5" x2="445.5" y1="444.8906" y2="444.8906"/><line style="stroke:#181818;stroke-width:1.0;" x1="445.5" x2="445.5" y1="444.8906" y2="457.8906"/><line style="stroke:#181818;stroke-width:1.0;" x1="404.5" x2="445.5" y1="457.8906" y2="457.8906"/><polygon fill="#181818" points="414.5,453.8906,404.5,457.8906,414.5,461.8906,410.5,457.8906" style="stroke:#181818;stroke-width:1.0;"/><text fill="#000000" font-family="sans-serif" font-size="13" lengthAdjust="spacing" textLength="154" x="410.5" y="439.8247">Adds newly added edge</text><path d="M312,470.8906 L312,495.8906 L485,495.8906 L485,480.8906 L475,470.8906 L312,470.8906 " fill="#FEFFDD" style="stroke:#181818;stroke-width:0.5;"/><path d="M475,470.8906 L475,480.8906 L485,480.8906 L475,470.8906 " fill="#FEFFDD" style="stroke:#181818;stroke-width:0.5;"/><text fill="#000000" font-family="sans-serif" font-size="13" lengthAdjust="spacing" textLength="152" x="318" y="487.9575">New reference is added</text><!--SRC=[TLFBRjmm3BphAmXVSWfoNmGBRFCe5aMReaK-GBQuNZMsf4gqq_nzI3ksvNLwiKoP7CuCwRCr22VlgVJ_bD8L-GZF2IFe11sVYk-XU8pU4JfJgA0ZsSe6xGYAXnxv-1frE1TIW1BN4gxpdW9Pxn9yHzSDYJvGo-zmUtlds-0Tb-ttwvghWp7m2qyOqLLujTHgO-9q_Ga8imJHOZJfKYU4uekkNkJsyFCu0WGxABMz9Xn5pf5ycuDCZlCS-vvzMIvX1yzkfcB0bt-medIZYQ8jEy84ngRGw3SqIYbf1DVxIViExXfRlIGeLa8Bu4hoRc7naQ_KP1fZB2HsS7IMh9Pkx8nrDSoKG30Ook0MB9F1UC9j1uUcyQzCEkgw5Y3j04tDwn5z2yxpef0VpaLCJkIUwvW4E7pDE0p5Z3Iw8mWSp1PT4haSRYwFyp0ElAPgw7NJYV1HPpRLIvniWDiMi_am-9iDRRDhrvDPreME-CU9hJmWcxa_hHrOpDfs_jsLhQK4TCO1wxEEUrbAJkKLJf1qZmpzbrKJ9mSxCDe2FttBfxvnuyBrV8gyZKa4D6zIncijAw3-zmFyMCtQfh7c7G00]--></g></svg>