<?xml version="1.0" encoding="us-ascii" standalone="no"?><svg xmlns="http://www.w3.org/2000/svg" xmlns:xlink="http://www.w3.org/1999/xlink" contentStyleType="text/css" height="570px" preserveAspectRatio="none" style="width:730px;height:570px;background:#FFFFFF;" version="1.1" viewBox="0 0 730 570" width="730px" zoomAndPan="magnify"><defs/><g><rect fill="#DDDDDD" height="551.2891" style="stroke:#181818;stroke-width:0.5;" width="487.5" x="144" y="6"/><text fill="#000000" font-family="sans-serif" font-size="13" font-weight="bold" lengthAdjust="spacing" textLength="67" x="354.25" y="18.0669">Frontend</text><rect fill="#FFFFFF" height="85.3984" style="stroke:#181818;stroke-width:1.0;" width="10" x="183" y="91.2969"/><rect fill="#FFFFFF" height="377.5938" style="stroke:#181818;stroke-width:1.0;" width="10" x="277.5" y="176.6953"/><rect fill="#FFFFFF" height="190.7969" style="stroke:#181818;stroke-width:1.0;" width="10" x="282.5" y="325.3594"/><line style="stroke:#181818;stroke-width:0.5;stroke-dasharray:5.0,5.0;" x1="24" x2="24" y1="81.2969" y2="563.2891"/><line style="stroke:#181818;stroke-width:0.5;stroke-dasharray:5.0,5.0;" x1="188" x2="188" y1="81.2969" y2="563.2891"/><line style="stroke:#181818;stroke-width:0.5;stroke-dasharray:5.0,5.0;" x1="282" x2="282" y1="81.2969" y2="563.2891"/><line style="stroke:#181818;stroke-width:0.5;stroke-dasharray:5.0,5.0;" x1="446.5" x2="446.5" y1="81.2969" y2="563.2891"/><line style="stroke:#181818;stroke-width:0.5;stroke-dasharray:5.0,5.0;" x1="570.5" x2="570.5" y1="81.2969" y2="563.2891"/><line style="stroke:#181818;stroke-width:0.5;stroke-dasharray:5.0,5.0;" x1="683.5" x2="683.5" y1="81.2969" y2="563.2891"/><text fill="#000000" font-family="sans-serif" font-size="14" lengthAdjust="spacing" textLength="32" x="5" y="77.9951">User</text><ellipse cx="24" cy="13.5" fill="#E2E2F0" rx="8" ry="8" style="stroke:#181818;stroke-width:0.5;"/><path d="M24,21.5 L24,48.5 M11,29.5 L37,29.5 M24,48.5 L11,63.5 M24,48.5 L37,63.5 " fill="none" style="stroke:#181818;stroke-width:0.5;"/><rect fill="#E2E2F0" height="30.2969" rx="2.5" ry="2.5" style="stroke:#181818;stroke-width:0.5;" width="80" x="148" y="50"/><text fill="#000000" font-family="sans-serif" font-size="14" lengthAdjust="spacing" textLength="66" x="155" y="69.9951">Event List</text><rect fill="#E2E2F0" height="30.2969" rx="2.5" ry="2.5" style="stroke:#181818;stroke-width:0.5;" width="89" x="238" y="50"/><text fill="#000000" font-family="sans-serif" font-size="14" lengthAdjust="spacing" textLength="75" x="245" y="69.9951">Event View</text><rect fill="#E2E2F0" height="46.5938" rx="2.5" ry="2.5" style="stroke:#181818;stroke-width:0.5;" width="114" x="389.5" y="33.7031"/><text fill="#000000" font-family="sans-serif" font-size="14" font-style="italic" lengthAdjust="spacing" textLength="100" x="396.5" y="53.6982">&#171;Component&#187;</text><text fill="#000000" font-family="sans-serif" font-size="14" lengthAdjust="spacing" textLength="66" x="413.5" y="69.9951">TopMenu</text><rect fill="#E2E2F0" height="46.5938" rx="2.5" ry="2.5" style="stroke:#181818;stroke-width:0.5;" width="114" x="513.5" y="33.7031"/><text fill="#000000" font-family="sans-serif" font-size="14" font-style="italic" lengthAdjust="spacing" textLength="100" x="520.5" y="53.6982">&#171;Component&#187;</text><text fill="#000000" font-family="sans-serif" font-size="14" lengthAdjust="spacing" textLength="45" x="548" y="69.9951">Layout</text><text fill="#000000" font-family="sans-serif" font-size="14" lengthAdjust="spacing" textLength="86" x="637.5" y="77.9951">Backend API</text><path d="M665.5,29 C665.5,19 683.5,19 683.5,19 C683.5,19 701.5,19 701.5,29 L701.5,55 C701.5,65 683.5,65 683.5,65 C683.5,65 665.5,65 665.5,55 L665.5,29 " fill="#E2E2F0" style="stroke:#181818;stroke-width:1.5;"/><path d="M665.5,29 C665.5,39 683.5,39 683.5,39 C683.5,39 701.5,39 701.5,29 " fill="none" style="stroke:#181818;stroke-width:1.5;"/><rect fill="#FFFFFF" height="85.3984" style="stroke:#181818;stroke-width:1.0;" width="10" x="183" y="91.2969"/><rect fill="#FFFFFF" height="377.5938" style="stroke:#181818;stroke-width:1.0;" width="10" x="277.5" y="176.6953"/><rect fill="#FFFFFF" height="190.7969" style="stroke:#181818;stroke-width:1.0;" width="10" x="282.5" y="325.3594"/><path d="M109,96.2969 L109,121.2969 L266,121.2969 L266,106.2969 L256,96.2969 L109,96.2969 " fill="#FEFFDD" style="stroke:#181818;stroke-width:0.5;"/><path d="M256,96.2969 L256,106.2969 L266,106.2969 L256,96.2969 " fill="#FEFFDD" style="stroke:#181818;stroke-width:0.5;"/><text fill="#000000" font-family="sans-serif" font-size="13" lengthAdjust="spacing" textLength="136" x="115" y="113.3638">event list is displayed</text><polygon fill="#181818" points="171,143.5625,181,147.5625,171,151.5625,175,147.5625" style="stroke:#181818;stroke-width:1.0;"/><line style="stroke:#181818;stroke-width:1.0;" x1="24" x2="177" y1="147.5625" y2="147.5625"/><text fill="#000000" font-family="sans-serif" font-size="13" lengthAdjust="spacing" textLength="84" x="31" y="142.4966">click on entry</text><polygon fill="#181818" points="35,172.6953,25,176.6953,35,180.6953,31,176.6953" style="stroke:#181818;stroke-width:1.0;"/><line style="stroke:#181818;stroke-width:1.0;stroke-dasharray:2.0,2.0;" x1="29" x2="187" y1="176.6953" y2="176.6953"/><text fill="#000000" font-family="sans-serif" font-size="13" lengthAdjust="spacing" textLength="135" x="41" y="171.6294">redirect to /event/[id]</text><polygon fill="#181818" points="671.5,201.8281,681.5,205.8281,671.5,209.8281,675.5,205.8281" style="stroke:#181818;stroke-width:1.0;"/><line style="stroke:#181818;stroke-width:1.0;" x1="287.5" x2="677.5" y1="205.8281" y2="205.8281"/><text fill="#000000" font-family="sans-serif" font-size="13" lengthAdjust="spacing" textLength="65" x="294.5" y="200.7622">GET event</text><polygon fill="#181818" points="298.5,230.9609,288.5,234.9609,298.5,238.9609,294.5,234.9609" style="stroke:#181818;stroke-width:1.0;"/><line style="stroke:#181818;stroke-width:1.0;stroke-dasharray:2.0,2.0;" x1="292.5" x2="682.5" y1="234.9609" y2="234.9609"/><text fill="#000000" font-family="sans-serif" font-size="13" lengthAdjust="spacing" textLength="69" x="304.5" y="229.895">event data</text><polygon fill="#181818" points="434.5,260.0938,444.5,264.0938,434.5,268.0938,438.5,264.0938" style="stroke:#181818;stroke-width:1.0;"/><line style="stroke:#181818;stroke-width:1.0;" x1="24" x2="440.5" y1="264.0938" y2="264.0938"/><text fill="#000000" font-family="sans-serif" font-size="13" lengthAdjust="spacing" textLength="109" x="31" y="259.0278">toggle edit mode</text><polygon fill="#181818" points="558.5,289.2266,568.5,293.2266,558.5,297.2266,562.5,293.2266" style="stroke:#181818;stroke-width:1.0;"/><line style="stroke:#181818;stroke-width:1.0;stroke-dasharray:2.0,2.0;" x1="446.5" x2="564.5" y1="293.2266" y2="293.2266"/><text fill="#000000" font-family="sans-serif" font-size="13" lengthAdjust="spacing" textLength="91" x="453.5" y="288.1606">state changes</text><polygon fill="#181818" points="303.5,321.3594,293.5,325.3594,303.5,329.3594,299.5,325.3594" style="stroke:#181818;stroke-width:1.0;"/><line style="stroke:#181818;stroke-width:1.0;" x1="297.5" x2="569.5" y1="325.3594" y2="325.3594"/><text fill="#000000" font-family="sans-serif" font-size="13" lengthAdjust="spacing" textLength="103" x="309.5" y="320.2935">enter edit mode</text><path d="M22,306.2266 L22,331.2266 L272,331.2266 L272,316.2266 L262,306.2266 L22,306.2266 " fill="#FEFFDD" style="stroke:#181818;stroke-width:0.5;"/><path d="M262,306.2266 L262,316.2266 L272,316.2266 L262,306.2266 " fill="#FEFFDD" style="stroke:#181818;stroke-width:0.5;"/><text fill="#000000" font-family="sans-serif" font-size="13" lengthAdjust="spacing" textLength="229" x="28" y="323.2935">editable values become form inputs</text><polygon fill="#181818" points="270.5,353.4922,280.5,357.4922,270.5,361.4922,274.5,357.4922" style="stroke:#181818;stroke-width:1.0;"/><line style="stroke:#181818;stroke-width:1.0;" x1="24" x2="276.5" y1="357.4922" y2="357.4922"/><text fill="#000000" font-family="sans-serif" font-size="13" lengthAdjust="spacing" textLength="121" x="31" y="352.4263">change input value</text><line style="stroke:#181818;stroke-width:1.0;stroke-dasharray:2.0,2.0;" x1="292.5" x2="334.5" y1="386.625" y2="386.625"/><line style="stroke:#181818;stroke-width:1.0;stroke-dasharray:2.0,2.0;" x1="334.5" x2="334.5" y1="386.625" y2="399.625"/><line style="stroke:#181818;stroke-width:1.0;stroke-dasharray:2.0,2.0;" x1="293.5" x2="334.5" y1="399.625" y2="399.625"/><polygon fill="#181818" points="303.5,395.625,293.5,399.625,303.5,403.625,299.5,399.625" style="stroke:#181818;stroke-width:1.0;"/><text fill="#000000" font-family="sans-serif" font-size="13" lengthAdjust="spacing" textLength="135" x="299.5" y="381.5591">update internal value</text><polygon fill="#181818" points="270.5,424.7578,280.5,428.7578,270.5,432.7578,274.5,428.7578" style="stroke:#181818;stroke-width:1.0;"/><line style="stroke:#181818;stroke-width:1.0;" x1="24" x2="276.5" y1="428.7578" y2="428.7578"/><text fill="#000000" font-family="sans-serif" font-size="13" lengthAdjust="spacing" textLength="61" x="31" y="423.6919">click save</text><polygon fill="#181818" points="671.5,453.8906,681.5,457.8906,671.5,461.8906,675.5,457.8906" style="stroke:#181818;stroke-width:1.0;"/><line style="stroke:#181818;stroke-width:1.0;" x1="292.5" x2="677.5" y1="457.8906" y2="457.8906"/><text fill="#000000" font-family="sans-serif" font-size="13" lengthAdjust="spacing" textLength="83" x="299.5" y="452.8247">PATCH event</text><polygon fill="#181818" points="303.5,483.0234,293.5,487.0234,303.5,491.0234,299.5,487.0234" style="stroke:#181818;stroke-width:1.0;"/><line style="stroke:#181818;stroke-width:1.0;stroke-dasharray:2.0,2.0;" x1="297.5" x2="682.5" y1="487.0234" y2="487.0234"/><text fill="#000000" font-family="sans-serif" font-size="13" lengthAdjust="spacing" textLength="51" x="309.5" y="481.9575">success</text><polygon fill="#181818" points="558.5,512.1563,568.5,516.1563,558.5,520.1563,562.5,516.1563" style="stroke:#181818;stroke-width:1.0;"/><line style="stroke:#181818;stroke-width:1.0;" x1="287.5" x2="564.5" y1="516.1563" y2="516.1563"/><text fill="#000000" font-family="sans-serif" font-size="13" lengthAdjust="spacing" textLength="92" x="294.5" y="511.0903">exit edit mode</text><polygon fill="#181818" points="457.5,541.2891,447.5,545.2891,457.5,549.2891,453.5,545.2891" style="stroke:#181818;stroke-width:1.0;"/><line style="stroke:#181818;stroke-width:1.0;" x1="451.5" x2="569.5" y1="545.2891" y2="545.2891"/><text fill="#000000" font-family="sans-serif" font-size="13" lengthAdjust="spacing" textLength="68" x="463.5" y="540.2231">view mode</text><!--SRC=[VP9DRy8m38Rl-HLMxuXxDI4nn3ua9d5Wkqmxf8c1Y3Q9ahI3Vpyd_QAesgcEyzf-_QHd9H6EneJ2N1dZ8XW7dnuTS0yrVHdb8NjnHWVKCcEMkw24ibm7oBODqcUdVCYY7kEnfDESwalXxwXgw3HH7OpzG5r7GJ2sYk7JqyPKrcYIhrOJyOxVJ1sYjcoZgPICGbn7yi0BxX6oPoukCRlUloSFt2h6j0a8fg5T1-EGjp6aW_8WbRSq0sLYenfE9UEQ4H0iLfDwKIfn0QE1Kkx6ngi52LD13WwbSYW2hGhBf5X-A_d39CuCcQOIk26AmsaNQlcwFRG25i-BtbGIzKj57cmmtMFEAJgTIkelLO3AI6JzLMpJ4Sx1XsX2dBa-eMTT-d4E_INkhj6CzqIzn6DYJK9UqEY6bpLwA52OAlwEhWAbRHty574tfVNGAjhIUo8FujhAQ415PvgNdNw-RtewpnkS8xnV7pPl_p3sjH3e_RHqe8TNOZA2UNpfX6PaEhvDQfHA_W00]--></g></svg>