<?xml version="1.0" encoding="us-ascii" standalone="no"?><svg xmlns="http://www.w3.org/2000/svg" xmlns:xlink="http://www.w3.org/1999/xlink" contentStyleType="text/css" height="537px" preserveAspectRatio="none" style="width:704px;height:537px;background:#FFFFFF;" version="1.1" viewBox="0 0 704 537" width="704px" zoomAndPan="magnify"><defs/><g><text fill="#888888" font-family="sans-serif" font-size="10" lengthAdjust="spacing" textLength="113" x="551.6" y="9.2822">Modern MISP Frontend</text><text fill="#000000" font-family="sans-serif" font-size="14" font-weight="bold" lengthAdjust="spacing" textLength="190" x="237.3" y="35.6357">Implementierungsphase</text><rect fill="#ADD8E6" height="407.1953" style="stroke:none;stroke-width:1.0;" width="25.6" x="179.2" y="88.9375"/><text fill="#000000" font-family="sans-serif" font-size="10" lengthAdjust="spacing" textLength="15" x="5.3" y="73.2197">Mo</text><text fill="#000000" font-family="sans-serif" font-size="10" lengthAdjust="spacing" textLength="11" x="32.9" y="73.2197">Tu</text><text fill="#000000" font-family="sans-serif" font-size="10" lengthAdjust="spacing" textLength="15" x="56.5" y="73.2197">We</text><text fill="#000000" font-family="sans-serif" font-size="10" lengthAdjust="spacing" textLength="11" x="84.1" y="73.2197">Th</text><text fill="#000000" font-family="sans-serif" font-size="10" lengthAdjust="spacing" textLength="10" x="110.2" y="73.2197">Fr</text><text fill="#000000" font-family="sans-serif" font-size="10" lengthAdjust="spacing" textLength="13" x="134.3" y="73.2197">Sa</text><text fill="#000000" font-family="sans-serif" font-size="10" lengthAdjust="spacing" textLength="13" x="159.9" y="73.2197">Su</text><text fill="#000000" font-family="sans-serif" font-size="10" lengthAdjust="spacing" textLength="15" x="184.5" y="73.2197">Mo</text><text fill="#000000" font-family="sans-serif" font-size="10" lengthAdjust="spacing" textLength="11" x="212.1" y="73.2197">Tu</text><text fill="#000000" font-family="sans-serif" font-size="10" lengthAdjust="spacing" textLength="15" x="235.7" y="73.2197">We</text><text fill="#000000" font-family="sans-serif" font-size="10" lengthAdjust="spacing" textLength="11" x="263.3" y="73.2197">Th</text><text fill="#000000" font-family="sans-serif" font-size="10" lengthAdjust="spacing" textLength="10" x="289.4" y="73.2197">Fr</text><text fill="#000000" font-family="sans-serif" font-size="10" lengthAdjust="spacing" textLength="13" x="313.5" y="73.2197">Sa</text><text fill="#000000" font-family="sans-serif" font-size="10" lengthAdjust="spacing" textLength="13" x="339.1" y="73.2197">Su</text><text fill="#000000" font-family="sans-serif" font-size="10" lengthAdjust="spacing" textLength="15" x="363.7" y="73.2197">Mo</text><text fill="#000000" font-family="sans-serif" font-size="10" lengthAdjust="spacing" textLength="11" x="391.3" y="73.2197">Tu</text><text fill="#000000" font-family="sans-serif" font-size="10" lengthAdjust="spacing" textLength="15" x="414.9" y="73.2197">We</text><text fill="#000000" font-family="sans-serif" font-size="10" lengthAdjust="spacing" textLength="11" x="442.5" y="73.2197">Th</text><text fill="#000000" font-family="sans-serif" font-size="10" lengthAdjust="spacing" textLength="10" x="468.6" y="73.2197">Fr</text><text fill="#000000" font-family="sans-serif" font-size="10" lengthAdjust="spacing" textLength="13" x="492.7" y="73.2197">Sa</text><text fill="#000000" font-family="sans-serif" font-size="10" lengthAdjust="spacing" textLength="13" x="518.3" y="73.2197">Su</text><text fill="#000000" font-family="sans-serif" font-size="10" lengthAdjust="spacing" textLength="15" x="542.9" y="73.2197">Mo</text><text fill="#000000" font-family="sans-serif" font-size="10" lengthAdjust="spacing" textLength="11" x="570.5" y="73.2197">Tu</text><text fill="#000000" font-family="sans-serif" font-size="10" lengthAdjust="spacing" textLength="15" x="594.1" y="73.2197">We</text><text fill="#000000" font-family="sans-serif" font-size="10" lengthAdjust="spacing" textLength="11" x="621.7" y="73.2197">Th</text><text fill="#000000" font-family="sans-serif" font-size="10" lengthAdjust="spacing" textLength="10" x="647.8" y="73.2197">Fr</text><text fill="#000000" font-family="sans-serif" font-size="10" lengthAdjust="spacing" textLength="12" x="6.8" y="85.2197">15</text><text fill="#000000" font-family="sans-serif" font-size="10" lengthAdjust="spacing" textLength="12" x="32.4" y="85.2197">16</text><text fill="#000000" font-family="sans-serif" font-size="10" lengthAdjust="spacing" textLength="12" x="58" y="85.2197">17</text><text fill="#000000" font-family="sans-serif" font-size="10" lengthAdjust="spacing" textLength="12" x="83.6" y="85.2197">18</text><text fill="#000000" font-family="sans-serif" font-size="10" lengthAdjust="spacing" textLength="12" x="109.2" y="85.2197">19</text><text fill="#000000" font-family="sans-serif" font-size="10" lengthAdjust="spacing" textLength="12" x="134.8" y="85.2197">20</text><text fill="#000000" font-family="sans-serif" font-size="10" lengthAdjust="spacing" textLength="12" x="160.4" y="85.2197">21</text><text fill="#000000" font-family="sans-serif" font-size="10" lengthAdjust="spacing" textLength="12" x="186" y="85.2197">22</text><text fill="#000000" font-family="sans-serif" font-size="10" lengthAdjust="spacing" textLength="12" x="211.6" y="85.2197">23</text><text fill="#000000" font-family="sans-serif" font-size="10" lengthAdjust="spacing" textLength="12" x="237.2" y="85.2197">24</text><text fill="#000000" font-family="sans-serif" font-size="10" lengthAdjust="spacing" textLength="12" x="262.8" y="85.2197">25</text><text fill="#000000" font-family="sans-serif" font-size="10" lengthAdjust="spacing" textLength="12" x="288.4" y="85.2197">26</text><text fill="#000000" font-family="sans-serif" font-size="10" lengthAdjust="spacing" textLength="12" x="314" y="85.2197">27</text><text fill="#000000" font-family="sans-serif" font-size="10" lengthAdjust="spacing" textLength="12" x="339.6" y="85.2197">28</text><text fill="#000000" font-family="sans-serif" font-size="10" lengthAdjust="spacing" textLength="12" x="365.2" y="85.2197">29</text><text fill="#000000" font-family="sans-serif" font-size="10" lengthAdjust="spacing" textLength="12" x="390.8" y="85.2197">30</text><text fill="#000000" font-family="sans-serif" font-size="10" lengthAdjust="spacing" textLength="12" x="416.4" y="85.2197">31</text><text fill="#000000" font-family="sans-serif" font-size="10" lengthAdjust="spacing" textLength="6" x="445" y="85.2197">1</text><text fill="#000000" font-family="sans-serif" font-size="10" lengthAdjust="spacing" textLength="6" x="470.6" y="85.2197">2</text><text fill="#000000" font-family="sans-serif" font-size="10" lengthAdjust="spacing" textLength="6" x="496.2" y="85.2197">3</text><text fill="#000000" font-family="sans-serif" font-size="10" lengthAdjust="spacing" textLength="6" x="521.8" y="85.2197">4</text><text fill="#000000" font-family="sans-serif" font-size="10" lengthAdjust="spacing" textLength="6" x="547.4" y="85.2197">5</text><text fill="#000000" font-family="sans-serif" font-size="10" lengthAdjust="spacing" textLength="6" x="573" y="85.2197">6</text><text fill="#000000" font-family="sans-serif" font-size="10" lengthAdjust="spacing" textLength="6" x="598.6" y="85.2197">7</text><text fill="#000000" font-family="sans-serif" font-size="10" lengthAdjust="spacing" textLength="6" x="624.2" y="85.2197">8</text><text fill="#000000" font-family="sans-serif" font-size="10" lengthAdjust="spacing" textLength="6" x="649.8" y="85.2197">9</text><text fill="#000000" font-family="sans-serif" font-size="12" font-weight="bold" lengthAdjust="spacing" textLength="90" x="172.6" y="61.0762">January 2024</text><text fill="#000000" font-family="sans-serif" font-size="12" font-weight="bold" lengthAdjust="spacing" textLength="100" x="500.4" y="61.0762">February 2024</text><line style="stroke:#C0C0C0;stroke-width:1.0;" x1="0" x2="0" y1="88.9375" y2="496.1328"/><line style="stroke:#C0C0C0;stroke-width:1.0;" x1="25.6" x2="25.6" y1="88.9375" y2="496.1328"/><line style="stroke:#C0C0C0;stroke-width:1.0;" x1="51.2" x2="51.2" y1="88.9375" y2="496.1328"/><line style="stroke:#C0C0C0;stroke-width:1.0;" x1="76.8" x2="76.8" y1="88.9375" y2="496.1328"/><line style="stroke:#C0C0C0;stroke-width:1.0;" x1="102.4" x2="102.4" y1="88.9375" y2="496.1328"/><line style="stroke:#C0C0C0;stroke-width:1.0;" x1="128" x2="128" y1="88.9375" y2="496.1328"/><line style="stroke:#C0C0C0;stroke-width:1.0;" x1="153.6" x2="153.6" y1="88.9375" y2="496.1328"/><line style="stroke:#C0C0C0;stroke-width:1.0;" x1="179.2" x2="179.2" y1="88.9375" y2="496.1328"/><line style="stroke:#C0C0C0;stroke-width:1.0;" x1="204.8" x2="204.8" y1="88.9375" y2="496.1328"/><line style="stroke:#C0C0C0;stroke-width:1.0;" x1="230.4" x2="230.4" y1="88.9375" y2="496.1328"/><line style="stroke:#C0C0C0;stroke-width:1.0;" x1="256" x2="256" y1="88.9375" y2="496.1328"/><line style="stroke:#C0C0C0;stroke-width:1.0;" x1="281.6" x2="281.6" y1="88.9375" y2="496.1328"/><line style="stroke:#C0C0C0;stroke-width:1.0;" x1="307.2" x2="307.2" y1="88.9375" y2="496.1328"/><line style="stroke:#C0C0C0;stroke-width:1.0;" x1="332.8" x2="332.8" y1="88.9375" y2="496.1328"/><line style="stroke:#C0C0C0;stroke-width:1.0;" x1="358.4" x2="358.4" y1="88.9375" y2="496.1328"/><line style="stroke:#C0C0C0;stroke-width:1.0;" x1="384" x2="384" y1="88.9375" y2="496.1328"/><line style="stroke:#C0C0C0;stroke-width:1.0;" x1="409.6" x2="409.6" y1="88.9375" y2="496.1328"/><line style="stroke:#C0C0C0;stroke-width:1.0;" x1="435.2" x2="435.2" y1="88.9375" y2="496.1328"/><line style="stroke:#C0C0C0;stroke-width:1.0;" x1="460.8" x2="460.8" y1="88.9375" y2="496.1328"/><line style="stroke:#C0C0C0;stroke-width:1.0;" x1="486.4" x2="486.4" y1="88.9375" y2="496.1328"/><line style="stroke:#C0C0C0;stroke-width:1.0;" x1="512" x2="512" y1="88.9375" y2="496.1328"/><line style="stroke:#C0C0C0;stroke-width:1.0;" x1="537.6" x2="537.6" y1="88.9375" y2="496.1328"/><line style="stroke:#C0C0C0;stroke-width:1.0;" x1="563.2" x2="563.2" y1="88.9375" y2="496.1328"/><line style="stroke:#C0C0C0;stroke-width:1.0;" x1="588.8" x2="588.8" y1="88.9375" y2="496.1328"/><line style="stroke:#C0C0C0;stroke-width:1.0;" x1="614.4" x2="614.4" y1="88.9375" y2="496.1328"/><line style="stroke:#C0C0C0;stroke-width:1.0;" x1="640" x2="640" y1="88.9375" y2="496.1328"/><line style="stroke:#C0C0C0;stroke-width:1.0;" x1="665.6" x2="665.6" y1="88.9375" y2="496.1328"/><line style="stroke:#C0C0C0;stroke-width:1.0;" x1="0" x2="665.6" y1="88.9375" y2="88.9375"/><line style="stroke:#C0C0C0;stroke-width:1.0;" x1="0" x2="665.6" y1="496.1328" y2="496.1328"/><line style="stroke:#181818;stroke-width:1.5;" x1="89.6" x2="89.6" y1="103.7422" y2="114.1445"/><line style="stroke:#181818;stroke-width:1.5;" x1="89.6" x2="101.4" y1="114.1445" y2="114.1445"/><polygon fill="#181818" points="97.4,110.1445,97.4,114.1445,97.4,118.1445,101.4,114.1445" style="stroke:#181818;stroke-width:1.5;"/><line style="stroke:#181818;stroke-width:1.5;" x1="89.6" x2="89.6" y1="103.7422" y2="247.7773"/><line style="stroke:#181818;stroke-width:1.5;" x1="89.6" x2="101.4" y1="247.7773" y2="247.7773"/><polygon fill="#181818" points="97.4,243.7773,97.4,247.7773,97.4,251.7773,101.4,247.7773" style="stroke:#181818;stroke-width:1.5;"/><line style="stroke:#181818;stroke-width:1.5;" x1="89.6" x2="89.6" y1="103.7422" y2="318.668"/><line style="stroke:#181818;stroke-width:1.5;" x1="89.6" x2="101.4" y1="318.668" y2="318.668"/><polygon fill="#181818" points="97.4,314.668,97.4,318.668,97.4,322.668,101.4,318.668" style="stroke:#181818;stroke-width:1.5;"/><line style="stroke:#181818;stroke-width:1.5;" x1="89.6" x2="89.6" y1="103.7422" y2="420.5117"/><line style="stroke:#181818;stroke-width:1.5;" x1="89.6" x2="101.4" y1="420.5117" y2="420.5117"/><polygon fill="#181818" points="97.4,416.5117,97.4,420.5117,97.4,424.5117,101.4,420.5117" style="stroke:#181818;stroke-width:1.5;"/><line style="stroke:#181818;stroke-width:1.5;" x1="89.6" x2="89.6" y1="103.7422" y2="437.3164"/><line style="stroke:#181818;stroke-width:1.5;" x1="89.6" x2="101.4" y1="437.3164" y2="437.3164"/><polygon fill="#181818" points="97.4,433.3164,97.4,437.3164,97.4,441.3164,101.4,437.3164" style="stroke:#181818;stroke-width:1.5;"/><line style="stroke:#181818;stroke-width:1.5;" x1="166.4" x2="166.4" y1="120.5469" y2="164.5586"/><line style="stroke:#181818;stroke-width:1.5;" x1="166.4" x2="178.2" y1="164.5586" y2="164.5586"/><polygon fill="#181818" points="174.2,160.5586,174.2,164.5586,174.2,168.5586,178.2,164.5586" style="stroke:#181818;stroke-width:1.5;"/><line style="stroke:#181818;stroke-width:1.5;" x1="294.4" x2="294.4" y1="170.9609" y2="386.9023"/><line style="stroke:#181818;stroke-width:1.5;" x1="294.4" x2="306.2" y1="386.9023" y2="386.9023"/><polygon fill="#181818" points="302.2,382.9023,302.2,386.9023,302.2,390.9023,306.2,386.9023" style="stroke:#181818;stroke-width:1.5;"/><line style="stroke:#181818;stroke-width:1.5;" x1="371.2" x2="371.2" y1="154.1563" y2="264.582"/><line style="stroke:#181818;stroke-width:1.5;" x1="371.2" x2="383" y1="264.582" y2="264.582"/><polygon fill="#181818" points="379,260.582,379,264.582,379,268.582,383,264.582" style="stroke:#181818;stroke-width:1.5;"/><line style="stroke:#181818;stroke-width:1.5;" x1="268.8" x2="268.8" y1="254.1797" y2="264.582"/><line style="stroke:#181818;stroke-width:1.5;" x1="268.8" x2="383" y1="264.582" y2="264.582"/><polygon fill="#181818" points="379,260.582,379,264.582,379,268.582,383,264.582" style="stroke:#181818;stroke-width:1.5;"/><line style="stroke:#181818;stroke-width:1.5;" x1="268.8" x2="268.8" y1="254.1797" y2="301.8633"/><line style="stroke:#181818;stroke-width:1.5;" x1="268.8" x2="357.4" y1="301.8633" y2="301.8633"/><polygon fill="#181818" points="353.4,297.8633,353.4,301.8633,353.4,305.8633,357.4,301.8633" style="stroke:#181818;stroke-width:1.5;"/><line style="stroke:#181818;stroke-width:1.5;" x1="294.4" x2="294.4" y1="170.9609" y2="301.8633"/><line style="stroke:#181818;stroke-width:1.5;" x1="294.4" x2="357.4" y1="301.8633" y2="301.8633"/><polygon fill="#181818" points="353.4,297.8633,353.4,301.8633,353.4,305.8633,357.4,301.8633" style="stroke:#181818;stroke-width:1.5;"/><line style="stroke:#181818;stroke-width:1.5;" x1="345.6" x2="345.6" y1="187.7656" y2="301.8633"/><line style="stroke:#181818;stroke-width:1.5;" x1="345.6" x2="357.4" y1="301.8633" y2="301.8633"/><polygon fill="#181818" points="353.4,297.8633,353.4,301.8633,353.4,305.8633,357.4,301.8633" style="stroke:#181818;stroke-width:1.5;"/><line style="stroke:#181818;stroke-width:1.5;" x1="294.4" x2="294.4" y1="170.9609" y2="339.1445"/><line style="stroke:#181818;stroke-width:1.5;" x1="294.4" x2="357.4" y1="339.1445" y2="339.1445"/><polygon fill="#181818" points="353.4,335.1445,353.4,339.1445,353.4,343.1445,357.4,339.1445" style="stroke:#181818;stroke-width:1.5;"/><line style="stroke:#181818;stroke-width:1.5;" x1="345.6" x2="345.6" y1="325.0703" y2="339.1445"/><line style="stroke:#181818;stroke-width:1.5;" x1="345.6" x2="357.4" y1="339.1445" y2="339.1445"/><polygon fill="#181818" points="353.4,335.1445,353.4,339.1445,353.4,343.1445,357.4,339.1445" style="stroke:#181818;stroke-width:1.5;"/><line style="stroke:#181818;stroke-width:1.5;" x1="243.2" x2="243.2" y1="204.5703" y2="454.1211"/><line style="stroke:#181818;stroke-width:1.5;" x1="243.2" x2="255" y1="454.1211" y2="454.1211"/><polygon fill="#181818" points="251,450.1211,251,454.1211,251,458.1211,255,454.1211" style="stroke:#181818;stroke-width:1.5;"/><line style="stroke:#181818;stroke-width:1.5;" x1="243.2" x2="243.2" y1="204.5703" y2="470.9258"/><line style="stroke:#181818;stroke-width:1.5;" x1="243.2" x2="255" y1="470.9258" y2="470.9258"/><polygon fill="#181818" points="251,466.9258,251,470.9258,251,474.9258,255,470.9258" style="stroke:#181818;stroke-width:1.5;"/><rect fill="#E2E2F0" height="12.8047" style="stroke:none;stroke-width:1.0;" width="98.4" x="2" y="90.9375"/><line style="stroke:#181818;stroke-width:1.0;" x1="2" x2="100.4" y1="90.9375" y2="90.9375"/><line style="stroke:#181818;stroke-width:1.0;" x1="2" x2="100.4" y1="103.7422" y2="103.7422"/><line style="stroke:#181818;stroke-width:1.0;" x1="2" x2="2" y1="90.9375" y2="103.7422"/><line style="stroke:#181818;stroke-width:1.0;" x1="100.4" x2="100.4" y1="90.9375" y2="103.7422"/><rect fill="#E2E2F0" height="12.8047" style="stroke:none;stroke-width:1.0;" width="72.8" x="104.4" y="107.7422"/><line style="stroke:#181818;stroke-width:1.0;" x1="104.4" x2="177.2" y1="107.7422" y2="107.7422"/><line style="stroke:#181818;stroke-width:1.0;" x1="104.4" x2="177.2" y1="120.5469" y2="120.5469"/><line style="stroke:#181818;stroke-width:1.0;" x1="104.4" x2="104.4" y1="107.7422" y2="120.5469"/><line style="stroke:#181818;stroke-width:1.0;" x1="177.2" x2="177.2" y1="107.7422" y2="120.5469"/><rect fill="#E2E2F0" height="12.8047" style="stroke:none;stroke-width:1.0;" width="43.68" x="181.2" y="124.5469"/><rect fill="#FFFFFF" height="12.8047" style="stroke:none;stroke-width:1.0;" width="29.12" x="224.88" y="124.5469"/><line style="stroke:#181818;stroke-width:1.0;" x1="181.2" x2="254" y1="124.5469" y2="124.5469"/><line style="stroke:#181818;stroke-width:1.0;" x1="181.2" x2="254" y1="137.3516" y2="137.3516"/><line style="stroke:#181818;stroke-width:1.0;" x1="181.2" x2="181.2" y1="124.5469" y2="137.3516"/><line style="stroke:#181818;stroke-width:1.0;" x1="254" x2="254" y1="124.5469" y2="137.3516"/><rect fill="#FFFFFF" height="12.8047" style="stroke:none;stroke-width:1.0;" width="175.2" x="206.8" y="141.3516"/><line style="stroke:#181818;stroke-width:1.0;" x1="206.8" x2="382" y1="141.3516" y2="141.3516"/><line style="stroke:#181818;stroke-width:1.0;" x1="206.8" x2="382" y1="154.1563" y2="154.1563"/><line style="stroke:#181818;stroke-width:1.0;" x1="206.8" x2="206.8" y1="141.3516" y2="154.1563"/><line style="stroke:#181818;stroke-width:1.0;" x1="382" x2="382" y1="141.3516" y2="154.1563"/><rect fill="#E2E2F0" height="12.8047" style="stroke:none;stroke-width:1.0;" width="24.8" x="181.2" y="158.1563"/><rect fill="#FFFFFF" height="12.8047" style="stroke:none;stroke-width:1.0;" width="99.2" x="206" y="158.1563"/><line style="stroke:#181818;stroke-width:1.0;" x1="181.2" x2="305.2" y1="158.1563" y2="158.1563"/><line style="stroke:#181818;stroke-width:1.0;" x1="181.2" x2="305.2" y1="170.9609" y2="170.9609"/><line style="stroke:#181818;stroke-width:1.0;" x1="181.2" x2="181.2" y1="158.1563" y2="170.9609"/><line style="stroke:#181818;stroke-width:1.0;" x1="305.2" x2="305.2" y1="158.1563" y2="170.9609"/><rect fill="#FFFFFF" height="12.8047" style="stroke:none;stroke-width:1.0;" width="98.4" x="258" y="174.9609"/><line style="stroke:#181818;stroke-width:1.0;" x1="258" x2="356.4" y1="174.9609" y2="174.9609"/><line style="stroke:#181818;stroke-width:1.0;" x1="258" x2="356.4" y1="187.7656" y2="187.7656"/><line style="stroke:#181818;stroke-width:1.0;" x1="258" x2="258" y1="174.9609" y2="187.7656"/><line style="stroke:#181818;stroke-width:1.0;" x1="356.4" x2="356.4" y1="174.9609" y2="187.7656"/><rect fill="#E2E2F0" height="12.8047" style="stroke:none;stroke-width:1.0;" width="86.8" x="130" y="191.7656"/><rect fill="#FFFFFF" height="12.8047" style="stroke:none;stroke-width:1.0;" width="37.2" x="216.8" y="191.7656"/><line style="stroke:#181818;stroke-width:1.0;" x1="130" x2="254" y1="191.7656" y2="191.7656"/><line style="stroke:#181818;stroke-width:1.0;" x1="130" x2="254" y1="204.5703" y2="204.5703"/><line style="stroke:#181818;stroke-width:1.0;" x1="130" x2="130" y1="191.7656" y2="204.5703"/><line style="stroke:#181818;stroke-width:1.0;" x1="254" x2="254" y1="191.7656" y2="204.5703"/><line style="stroke:#181818;stroke-width:1.0;" x1="0" x2="5" y1="222.9727" y2="222.9727"/><line style="stroke:#181818;stroke-width:1.0;" x1="50" x2="664.6" y1="222.9727" y2="222.9727"/><path d="M102.4,256.1797 L102.4,287.1328 L241.4,287.1328 L241.4,266.1797 L231.4,256.1797 L102.4,256.1797 " fill="#FEFFDD" style="stroke:#181818;stroke-width:0.5;"/><path d="M231.4,256.1797 L231.4,266.1797 L241.4,266.1797 L231.4,256.1797 " fill="#FEFFDD" style="stroke:#181818;stroke-width:0.5;"/><text fill="#000000" font-family="sans-serif" font-size="9" lengthAdjust="spacing" textLength="111" x="108.4" y="269.5337">Pages that consist of a</text><text fill="#000000" font-family="sans-serif" font-size="9" lengthAdjust="spacing" textLength="118" x="108.4" y="280.0103">single table listing data.</text><rect fill="#E2E2F0" height="12.8047" style="stroke:none;stroke-width:1.0;" width="140.16" x="104.4" y="241.375"/><rect fill="#FFFFFF" height="12.8047" style="stroke:none;stroke-width:1.0;" width="35.04" x="244.56" y="241.375"/><line style="stroke:#181818;stroke-width:1.0;" x1="104.4" x2="279.6" y1="241.375" y2="241.375"/><line style="stroke:#181818;stroke-width:1.0;" x1="104.4" x2="279.6" y1="254.1797" y2="254.1797"/><line style="stroke:#181818;stroke-width:1.0;" x1="104.4" x2="104.4" y1="241.375" y2="254.1797"/><line style="stroke:#181818;stroke-width:1.0;" x1="279.6" x2="279.6" y1="241.375" y2="254.1797"/><path d="M384,272.9844 L384,293.4609 L616,293.4609 L616,282.9844 L606,272.9844 L384,272.9844 " fill="#FEFFDD" style="stroke:#181818;stroke-width:0.5;"/><path d="M606,272.9844 L606,282.9844 L616,282.9844 L606,272.9844 " fill="#FEFFDD" style="stroke:#181818;stroke-width:0.5;"/><text fill="#000000" font-family="sans-serif" font-size="9" lengthAdjust="spacing" textLength="156" x="390" y="286.3384">Dynamic filters for the tables on</text><text fill="#808080" font-family="sans-serif" font-size="9" lengthAdjust="spacing" textLength="49" x="549" y="286.3384">List Pages</text><text fill="#000000" font-family="sans-serif" font-size="9" lengthAdjust="spacing" textLength="3" x="598" y="286.3384">.</text><rect fill="#FFFFFF" height="12.8047" style="stroke:none;stroke-width:1.0;" width="149.6" x="386" y="258.1797"/><line style="stroke:#181818;stroke-width:1.0;" x1="386" x2="535.6" y1="258.1797" y2="258.1797"/><line style="stroke:#181818;stroke-width:1.0;" x1="386" x2="535.6" y1="270.9844" y2="270.9844"/><line style="stroke:#181818;stroke-width:1.0;" x1="386" x2="386" y1="258.1797" y2="270.9844"/><line style="stroke:#181818;stroke-width:1.0;" x1="535.6" x2="535.6" y1="258.1797" y2="270.9844"/><path d="M358.4,310.2656 L358.4,330.7422 L654.4,330.7422 L654.4,320.2656 L644.4,310.2656 L358.4,310.2656 " fill="#FEFFDD" style="stroke:#181818;stroke-width:0.5;"/><path d="M644.4,310.2656 L644.4,320.2656 L654.4,320.2656 L644.4,310.2656 " fill="#FEFFDD" style="stroke:#181818;stroke-width:0.5;"/><text fill="#000000" font-family="sans-serif" font-size="9" lengthAdjust="spacing" textLength="220" x="364.4" y="323.6196">The respective edit mode implementations of</text><text fill="#808080" font-family="sans-serif" font-size="9" lengthAdjust="spacing" textLength="49" x="587.4" y="323.6196">List Pages</text><text fill="#000000" font-family="sans-serif" font-size="9" lengthAdjust="spacing" textLength="3" x="636.4" y="323.6196">.</text><rect fill="#FFFFFF" height="12.8047" style="stroke:none;stroke-width:1.0;" width="175.2" x="360.4" y="295.4609"/><line style="stroke:#181818;stroke-width:1.0;" x1="360.4" x2="535.6" y1="295.4609" y2="295.4609"/><line style="stroke:#181818;stroke-width:1.0;" x1="360.4" x2="535.6" y1="308.2656" y2="308.2656"/><line style="stroke:#181818;stroke-width:1.0;" x1="360.4" x2="360.4" y1="295.4609" y2="308.2656"/><line style="stroke:#181818;stroke-width:1.0;" x1="535.6" x2="535.6" y1="295.4609" y2="308.2656"/><path d="M102.4,327.0703 L102.4,358.0234 L301.4,358.0234 L301.4,337.0703 L291.4,327.0703 L102.4,327.0703 " fill="#FEFFDD" style="stroke:#181818;stroke-width:0.5;"/><path d="M291.4,327.0703 L291.4,337.0703 L301.4,337.0703 L291.4,327.0703 " fill="#FEFFDD" style="stroke:#181818;stroke-width:0.5;"/><text fill="#000000" font-family="sans-serif" font-size="9" lengthAdjust="spacing" textLength="178" x="108.4" y="340.4243">Pages that display detailed data of a</text><text fill="#000000" font-family="sans-serif" font-size="9" lengthAdjust="spacing" textLength="160" x="108.4" y="350.9009">single item (event/attribute/etc).</text><rect fill="#E2E2F0" height="12.8047" style="stroke:none;stroke-width:1.0;" width="126" x="104.4" y="312.2656"/><rect fill="#FFFFFF" height="12.8047" style="stroke:none;stroke-width:1.0;" width="126" x="230.4" y="312.2656"/><line style="stroke:#181818;stroke-width:1.0;" x1="104.4" x2="356.4" y1="312.2656" y2="312.2656"/><line style="stroke:#181818;stroke-width:1.0;" x1="104.4" x2="356.4" y1="325.0703" y2="325.0703"/><line style="stroke:#181818;stroke-width:1.0;" x1="104.4" x2="104.4" y1="312.2656" y2="325.0703"/><line style="stroke:#181818;stroke-width:1.0;" x1="356.4" x2="356.4" y1="312.2656" y2="325.0703"/><path d="M358.4,347.5469 L358.4,378.5 L659.4,378.5 L659.4,357.5469 L649.4,347.5469 L358.4,347.5469 " fill="#FEFFDD" style="stroke:#181818;stroke-width:0.5;"/><path d="M649.4,347.5469 L649.4,357.5469 L659.4,357.5469 L649.4,347.5469 " fill="#FEFFDD" style="stroke:#181818;stroke-width:0.5;"/><text fill="#000000" font-family="sans-serif" font-size="9" lengthAdjust="spacing" textLength="220" x="364.4" y="360.9009">The respective edit mode implementations of</text><text fill="#808080" font-family="sans-serif" font-size="9" lengthAdjust="spacing" textLength="54" x="587.4" y="360.9009">View Pages</text><text fill="#000000" font-family="sans-serif" font-size="9" lengthAdjust="spacing" textLength="3" x="641.4" y="360.9009">,</text><text fill="#000000" font-family="sans-serif" font-size="9" lengthAdjust="spacing" textLength="170" x="364.4" y="371.3774">usually consisting of an HTML form.</text><rect fill="#E2E2F0" height="12.8047" style="stroke:none;stroke-width:1.0;" width="10.04" x="360.4" y="332.7422"/><rect fill="#FFFFFF" height="12.8047" style="stroke:none;stroke-width:1.0;" width="190.76" x="370.44" y="332.7422"/><line style="stroke:#181818;stroke-width:1.0;" x1="360.4" x2="561.2" y1="332.7422" y2="332.7422"/><line style="stroke:#181818;stroke-width:1.0;" x1="360.4" x2="561.2" y1="345.5469" y2="345.5469"/><line style="stroke:#181818;stroke-width:1.0;" x1="360.4" x2="360.4" y1="332.7422" y2="345.5469"/><line style="stroke:#181818;stroke-width:1.0;" x1="561.2" x2="561.2" y1="332.7422" y2="345.5469"/><rect fill="#FFFFFF" height="12.8047" style="stroke:none;stroke-width:1.0;" width="72.8" x="309.2" y="380.5"/><line style="stroke:#181818;stroke-width:1.0;" x1="309.2" x2="382" y1="380.5" y2="380.5"/><line style="stroke:#181818;stroke-width:1.0;" x1="309.2" x2="382" y1="393.3047" y2="393.3047"/><line style="stroke:#181818;stroke-width:1.0;" x1="309.2" x2="309.2" y1="380.5" y2="393.3047"/><line style="stroke:#181818;stroke-width:1.0;" x1="382" x2="382" y1="380.5" y2="393.3047"/><rect fill="#FFFFFF" height="12.8047" style="stroke:none;stroke-width:1.0;" width="47.2" x="539.6" y="397.3047"/><line style="stroke:#181818;stroke-width:1.0;" x1="539.6" x2="586.8" y1="397.3047" y2="397.3047"/><line style="stroke:#181818;stroke-width:1.0;" x1="539.6" x2="586.8" y1="410.1094" y2="410.1094"/><line style="stroke:#181818;stroke-width:1.0;" x1="539.6" x2="539.6" y1="397.3047" y2="410.1094"/><line style="stroke:#181818;stroke-width:1.0;" x1="586.8" x2="586.8" y1="397.3047" y2="410.1094"/><rect fill="#E2E2F0" height="12.8047" style="stroke:none;stroke-width:1.0;" width="98.4" x="104.4" y="414.1094"/><line style="stroke:#181818;stroke-width:1.0;" x1="104.4" x2="202.8" y1="414.1094" y2="414.1094"/><line style="stroke:#181818;stroke-width:1.0;" x1="104.4" x2="202.8" y1="426.9141" y2="426.9141"/><line style="stroke:#181818;stroke-width:1.0;" x1="104.4" x2="104.4" y1="414.1094" y2="426.9141"/><line style="stroke:#181818;stroke-width:1.0;" x1="202.8" x2="202.8" y1="414.1094" y2="426.9141"/><rect fill="#E2E2F0" height="12.8047" style="stroke:none;stroke-width:1.0;" width="72.8" x="104.4" y="430.9141"/><line style="stroke:#181818;stroke-width:1.0;" x1="104.4" x2="177.2" y1="430.9141" y2="430.9141"/><line style="stroke:#181818;stroke-width:1.0;" x1="104.4" x2="177.2" y1="443.7188" y2="443.7188"/><line style="stroke:#181818;stroke-width:1.0;" x1="104.4" x2="104.4" y1="430.9141" y2="443.7188"/><line style="stroke:#181818;stroke-width:1.0;" x1="177.2" x2="177.2" y1="430.9141" y2="443.7188"/><rect fill="#E2E2F0" height="12.8047" style="stroke:none;stroke-width:1.0;" width="12.6" x="258" y="447.7188"/><rect fill="#FFFFFF" height="12.8047" style="stroke:none;stroke-width:1.0;" width="239.4" x="270.6" y="447.7188"/><line style="stroke:#181818;stroke-width:1.0;" x1="258" x2="510" y1="447.7188" y2="447.7188"/><line style="stroke:#181818;stroke-width:1.0;" x1="258" x2="510" y1="460.5234" y2="460.5234"/><line style="stroke:#181818;stroke-width:1.0;" x1="258" x2="258" y1="447.7188" y2="460.5234"/><line style="stroke:#181818;stroke-width:1.0;" x1="510" x2="510" y1="447.7188" y2="460.5234"/><rect fill="#FFFFFF" height="12.8047" style="stroke:none;stroke-width:1.0;" width="354.4" x="258" y="464.5234"/><line style="stroke:#181818;stroke-width:1.0;" x1="258" x2="612.4" y1="464.5234" y2="464.5234"/><line style="stroke:#181818;stroke-width:1.0;" x1="258" x2="612.4" y1="477.3281" y2="477.3281"/><line style="stroke:#181818;stroke-width:1.0;" x1="258" x2="258" y1="464.5234" y2="477.3281"/><line style="stroke:#181818;stroke-width:1.0;" x1="612.4" x2="612.4" y1="464.5234" y2="477.3281"/><polygon fill="#000000" points="217.6,481.3281,222.6,486.3281,217.6,491.3281,212.6,486.3281" style="stroke:#000000;stroke-width:1.0;"/><polygon fill="#000000" points="652.8,481.3281,657.8,486.3281,652.8,491.3281,647.8,486.3281" style="stroke:#000000;stroke-width:1.0;"/><text fill="#000000" font-family="sans-serif" font-size="11" lengthAdjust="spacing" textLength="86" x="6" y="101.1479">Layout / Menus</text><text fill="#000000" font-family="sans-serif" font-size="11" lengthAdjust="spacing" textLength="58" x="108.4" y="117.9526">Action Bar</text><text fill="#000000" font-family="sans-serif" font-size="11" lengthAdjust="spacing" textLength="48" x="185.2" y="134.7573">Setup CI</text><text fill="#000000" font-family="sans-serif" font-size="11" lengthAdjust="spacing" textLength="63" x="210.8" y="151.562">Table Filter</text><text fill="#000000" font-family="sans-serif" font-size="11" lengthAdjust="spacing" textLength="91" x="185.2" y="168.3667">Edit Mode setup</text><text fill="#000000" font-family="sans-serif" font-size="11" lengthAdjust="spacing" textLength="66" x="262" y="185.1714">Edit Actions</text><text fill="#000000" font-family="sans-serif" font-size="11" lengthAdjust="spacing" textLength="96" x="134" y="201.9761">SvelteFlow setup</text><text fill="#000000" font-family="sans-serif" font-size="11" lengthAdjust="spacing" textLength="35" x="10" y="226.7808">Pages</text><text fill="#000000" font-family="sans-serif" font-size="11" lengthAdjust="spacing" textLength="59" x="108.4" y="251.5854">List Pages</text><text fill="#000000" font-family="sans-serif" font-size="11" lengthAdjust="spacing" textLength="104" x="390" y="268.3901">List Pages &gt; Filter</text><text fill="#000000" font-family="sans-serif" font-size="11" lengthAdjust="spacing" textLength="131" x="364.4" y="305.6714">List Pages &gt; Edit Mode</text><text fill="#000000" font-family="sans-serif" font-size="11" lengthAdjust="spacing" textLength="65" x="108.4" y="322.4761">View Pages</text><text fill="#000000" font-family="sans-serif" font-size="11" lengthAdjust="spacing" textLength="137" x="364.4" y="342.9526">View Pages &gt; Edit Mode</text><text fill="#000000" font-family="sans-serif" font-size="11" lengthAdjust="spacing" textLength="56" x="313.2" y="390.7104">Add Event</text><text fill="#000000" font-family="sans-serif" font-size="11" lengthAdjust="spacing" textLength="79" x="590.8" y="407.5151">Import Galaxy</text><text fill="#000000" font-family="sans-serif" font-size="11" lengthAdjust="spacing" textLength="25" x="108.4" y="424.3198">Auth</text><text fill="#000000" font-family="sans-serif" font-size="11" lengthAdjust="spacing" textLength="47" x="108.4" y="441.1245">Settings</text><text fill="#000000" font-family="sans-serif" font-size="11" lengthAdjust="spacing" textLength="57" x="262" y="457.9292">Workflows</text><text fill="#000000" font-family="sans-serif" font-size="11" lengthAdjust="spacing" textLength="70" x="262" y="474.7339">Event Graph</text><text fill="#000000" font-family="sans-serif" font-size="11" lengthAdjust="spacing" textLength="119" x="225.6" y="491.5386">Pr&#228;sentation Entwurf</text><text fill="#000000" font-family="sans-serif" font-size="11" lengthAdjust="spacing" textLength="42" x="660.8" y="491.5386">Abgabe</text><text fill="#000000" font-family="sans-serif" font-size="10" lengthAdjust="spacing" textLength="15" x="5.3" y="505.415">Mo</text><text fill="#000000" font-family="sans-serif" font-size="10" lengthAdjust="spacing" textLength="11" x="32.9" y="505.415">Tu</text><text fill="#000000" font-family="sans-serif" font-size="10" lengthAdjust="spacing" textLength="15" x="56.5" y="505.415">We</text><text fill="#000000" font-family="sans-serif" font-size="10" lengthAdjust="spacing" textLength="11" x="84.1" y="505.415">Th</text><text fill="#000000" font-family="sans-serif" font-size="10" lengthAdjust="spacing" textLength="10" x="110.2" y="505.415">Fr</text><text fill="#000000" font-family="sans-serif" font-size="10" lengthAdjust="spacing" textLength="13" x="134.3" y="505.415">Sa</text><text fill="#000000" font-family="sans-serif" font-size="10" lengthAdjust="spacing" textLength="13" x="159.9" y="505.415">Su</text><text fill="#000000" font-family="sans-serif" font-size="10" lengthAdjust="spacing" textLength="15" x="184.5" y="505.415">Mo</text><text fill="#000000" font-family="sans-serif" font-size="10" lengthAdjust="spacing" textLength="11" x="212.1" y="505.415">Tu</text><text fill="#000000" font-family="sans-serif" font-size="10" lengthAdjust="spacing" textLength="15" x="235.7" y="505.415">We</text><text fill="#000000" font-family="sans-serif" font-size="10" lengthAdjust="spacing" textLength="11" x="263.3" y="505.415">Th</text><text fill="#000000" font-family="sans-serif" font-size="10" lengthAdjust="spacing" textLength="10" x="289.4" y="505.415">Fr</text><text fill="#000000" font-family="sans-serif" font-size="10" lengthAdjust="spacing" textLength="13" x="313.5" y="505.415">Sa</text><text fill="#000000" font-family="sans-serif" font-size="10" lengthAdjust="spacing" textLength="13" x="339.1" y="505.415">Su</text><text fill="#000000" font-family="sans-serif" font-size="10" lengthAdjust="spacing" textLength="15" x="363.7" y="505.415">Mo</text><text fill="#000000" font-family="sans-serif" font-size="10" lengthAdjust="spacing" textLength="11" x="391.3" y="505.415">Tu</text><text fill="#000000" font-family="sans-serif" font-size="10" lengthAdjust="spacing" textLength="15" x="414.9" y="505.415">We</text><text fill="#000000" font-family="sans-serif" font-size="10" lengthAdjust="spacing" textLength="11" x="442.5" y="505.415">Th</text><text fill="#000000" font-family="sans-serif" font-size="10" lengthAdjust="spacing" textLength="10" x="468.6" y="505.415">Fr</text><text fill="#000000" font-family="sans-serif" font-size="10" lengthAdjust="spacing" textLength="13" x="492.7" y="505.415">Sa</text><text fill="#000000" font-family="sans-serif" font-size="10" lengthAdjust="spacing" textLength="13" x="518.3" y="505.415">Su</text><text fill="#000000" font-family="sans-serif" font-size="10" lengthAdjust="spacing" textLength="15" x="542.9" y="505.415">Mo</text><text fill="#000000" font-family="sans-serif" font-size="10" lengthAdjust="spacing" textLength="11" x="570.5" y="505.415">Tu</text><text fill="#000000" font-family="sans-serif" font-size="10" lengthAdjust="spacing" textLength="15" x="594.1" y="505.415">We</text><text fill="#000000" font-family="sans-serif" font-size="10" lengthAdjust="spacing" textLength="11" x="621.7" y="505.415">Th</text><text fill="#000000" font-family="sans-serif" font-size="10" lengthAdjust="spacing" textLength="10" x="647.8" y="505.415">Fr</text><text fill="#000000" font-family="sans-serif" font-size="10" lengthAdjust="spacing" textLength="12" x="6.8" y="519.415">15</text><text fill="#000000" font-family="sans-serif" font-size="10" lengthAdjust="spacing" textLength="12" x="32.4" y="519.415">16</text><text fill="#000000" font-family="sans-serif" font-size="10" lengthAdjust="spacing" textLength="12" x="58" y="519.415">17</text><text fill="#000000" font-family="sans-serif" font-size="10" lengthAdjust="spacing" textLength="12" x="83.6" y="519.415">18</text><text fill="#000000" font-family="sans-serif" font-size="10" lengthAdjust="spacing" textLength="12" x="109.2" y="519.415">19</text><text fill="#000000" font-family="sans-serif" font-size="10" lengthAdjust="spacing" textLength="12" x="134.8" y="519.415">20</text><text fill="#000000" font-family="sans-serif" font-size="10" lengthAdjust="spacing" textLength="12" x="160.4" y="519.415">21</text><text fill="#000000" font-family="sans-serif" font-size="10" lengthAdjust="spacing" textLength="12" x="186" y="519.415">22</text><text fill="#000000" font-family="sans-serif" font-size="10" lengthAdjust="spacing" textLength="12" x="211.6" y="519.415">23</text><text fill="#000000" font-family="sans-serif" font-size="10" lengthAdjust="spacing" textLength="12" x="237.2" y="519.415">24</text><text fill="#000000" font-family="sans-serif" font-size="10" lengthAdjust="spacing" textLength="12" x="262.8" y="519.415">25</text><text fill="#000000" font-family="sans-serif" font-size="10" lengthAdjust="spacing" textLength="12" x="288.4" y="519.415">26</text><text fill="#000000" font-family="sans-serif" font-size="10" lengthAdjust="spacing" textLength="12" x="314" y="519.415">27</text><text fill="#000000" font-family="sans-serif" font-size="10" lengthAdjust="spacing" textLength="12" x="339.6" y="519.415">28</text><text fill="#000000" font-family="sans-serif" font-size="10" lengthAdjust="spacing" textLength="12" x="365.2" y="519.415">29</text><text fill="#000000" font-family="sans-serif" font-size="10" lengthAdjust="spacing" textLength="12" x="390.8" y="519.415">30</text><text fill="#000000" font-family="sans-serif" font-size="10" lengthAdjust="spacing" textLength="12" x="416.4" y="519.415">31</text><text fill="#000000" font-family="sans-serif" font-size="10" lengthAdjust="spacing" textLength="6" x="445" y="519.415">1</text><text fill="#000000" font-family="sans-serif" font-size="10" lengthAdjust="spacing" textLength="6" x="470.6" y="519.415">2</text><text fill="#000000" font-family="sans-serif" font-size="10" lengthAdjust="spacing" textLength="6" x="496.2" y="519.415">3</text><text fill="#000000" font-family="sans-serif" font-size="10" lengthAdjust="spacing" textLength="6" x="521.8" y="519.415">4</text><text fill="#000000" font-family="sans-serif" font-size="10" lengthAdjust="spacing" textLength="6" x="547.4" y="519.415">5</text><text fill="#000000" font-family="sans-serif" font-size="10" lengthAdjust="spacing" textLength="6" x="573" y="519.415">6</text><text fill="#000000" font-family="sans-serif" font-size="10" lengthAdjust="spacing" textLength="6" x="598.6" y="519.415">7</text><text fill="#000000" font-family="sans-serif" font-size="10" lengthAdjust="spacing" textLength="6" x="624.2" y="519.415">8</text><text fill="#000000" font-family="sans-serif" font-size="10" lengthAdjust="spacing" textLength="6" x="649.8" y="519.415">9</text><text fill="#000000" font-family="sans-serif" font-size="12" font-weight="bold" lengthAdjust="spacing" textLength="90" x="172.6" y="534.2715">January 2024</text><text fill="#000000" font-family="sans-serif" font-size="12" font-weight="bold" lengthAdjust="spacing" textLength="100" x="500.4" y="534.2715">February 2024</text><!--SRC=[xLRDKXj74BxFK_Gb5QXuGIiXGLGk2em0Gr155M5oe7mOQKVIsBipwvbUOULv_2P-iVIi9BI_XBYIst8G9VNVrt_Vz9b5Rd3E5IABZLHefpmK470Phk0lhIFm3tgCBGGFX86Xfay5mvln2AwCLYXKm50YMTn4SIWYeL0AawYvZHVS2iPG1tm5qi9KXzg80AI2KCuNE0aJ4Z_UyPLE40vXA5HYFu8HNn9fX8KZmh2oxF5yYb8hUCTDHjZP2CS2anWkRaeYu2fmKNkjdoYoWuQ2FTxp2I6zaY6AhBVZd4dEuZAGc6ODreNA67LpHksorHfuEQNAEEEb851NeNxwXq37MJFFWn6VauxdKIMbnVNNsjHEiiPAeu29HjGH0_fRUy85Hz9HrddJC-2fp4erfyfXMh-GHFITF2C_O3G1u5nb0S1fkSYzskIBG0OhnICvXLdgmi9C6uArYMw1Xk5jEapzkU6hqrtKjuVfpwUrc9wR-QhU5s7T4mIoY0NrTIb0E6UHcmovdNoUDjnLxVK07wHuAdNDR-LGTL_Pja3QEAHj2mJI-jAkkGwLcYXHHB0dbWJua2CQEKbG70gSxbVZgYdSIHxY_r2u7OHjuTwa_XARy93OQJEbRXHTZWhUtm_ltBH4sKJEWm0kNRAr795RHA8nRH2kUSY_hZ8cxNgJymGN5SH5tEImsGhQ-bERppFQzPTwdkCJXn-k3O-pWVnwFc4ZepzHlI5bTqTFxIElvNj-jyou6nMQdy4lhRBOEuKi1rShPBYdMY4pvZKXN16hHS-5P8yZy_sRtGuCN2fyIipi8onu70kLvh3DjDqfqdsX54vXztpGl6H4HqKABzfsgnYxv2FxTBb4Yez9nVEIbk9vOeifv4kzOzay-V-Wrcx9Qt2zhFrSgt_lk8PhykJuecAv6KvzjsPr6jd5Akr-ffzjhzMZVaxcV28gnet4lpB6Vgwk-vQNqwVByeZOa51mMrYRcjckDTwWOMU4Sts_iRFcc6kEkUQOQuwvvfXhZhdcc6kEkUQO- -5Zxh-unqOX_Vz0FBQafyzvyGyeHkV0x-mDwTj0JC7tmJ_fjrlzxZ5ykBzm63hxREzwT0TM9sOgNC0rhvE3VNRBbnp-IEWoYqGVVYVejuFVjZyGogMaIyxHCBjz6EuKUaVUEwhmM1Y20Wz3DX0pdeH85bCTq4BsAVgLTyBkk9edr9G-LOnTQF9hLYGR_mq0]--></g></svg>