<?xml version="1.0" encoding="windows-1252" standalone="no"?>
<svg xmlns="http://www.w3.org/2000/svg" xmlns:xlink="http://www.w3.org/1999/xlink" contentStyleType="text/css" height="447px" preserveAspectRatio="none" style="width:537px;height:447px;background:#FFFFFF;" version="1.1" viewBox="0 0 537 447" width="537px" zoomAndPan="magnify"><defs/><g><rect fill="#DDDDDD" height="428.7578" style="stroke:#181818;stroke-width:0.5;" width="344" x="91.5" y="6"/><text fill="#000000" font-family="sans-serif" font-size="13" font-weight="bold" lengthAdjust="spacing" textLength="70" x="228.5" y="18.0669">Frontend</text><rect fill="#FFFFFF" height="340.4609" style="stroke:#181818;stroke-width:1.0;" width="10" x="133.5" y="91.2969"/><line style="stroke:#181818;stroke-width:0.5;stroke-dasharray:5.0,5.0;" x1="23" x2="23" y1="81.2969" y2="440.7578"/><line style="stroke:#181818;stroke-width:0.5;stroke-dasharray:5.0,5.0;" x1="138.5" x2="138.5" y1="81.2969" y2="440.7578"/><line style="stroke:#181818;stroke-width:0.5;stroke-dasharray:5.0,5.0;" x1="248.5" x2="248.5" y1="81.2969" y2="440.7578"/><line style="stroke:#181818;stroke-width:0.5;stroke-dasharray:5.0,5.0;" x1="373.5" x2="373.5" y1="81.2969" y2="440.7578"/><line style="stroke:#181818;stroke-width:0.5;stroke-dasharray:5.0,5.0;" x1="488.5" x2="488.5" y1="81.2969" y2="440.7578"/><text fill="#000000" font-family="sans-serif" font-size="14" lengthAdjust="spacing" textLength="31" x="5" y="77.9951">User</text><ellipse cx="23.5" cy="13.5" fill="#E2E2F0" rx="8" ry="8" style="stroke:#181818;stroke-width:0.5;"/><path d="M23.5,21.5 L23.5,48.5 M10.5,29.5 L36.5,29.5 M23.5,48.5 L10.5,63.5 M23.5,48.5 L36.5,63.5 " fill="none" style="stroke:#181818;stroke-width:0.5;"/><rect fill="#E2E2F0" height="30.2969" rx="2.5" ry="2.5" style="stroke:#181818;stroke-width:0.5;" width="86" x="95.5" y="50"/><text fill="#000000" font-family="sans-serif" font-size="14" lengthAdjust="spacing" textLength="72" x="102.5" y="69.9951">Event List</text><rect fill="#E2E2F0" height="46.5938" rx="2.5" ry="2.5" style="stroke:#181818;stroke-width:0.5;" width="115" x="191.5" y="33.7031"/><text fill="#000000" font-family="sans-serif" font-size="14" font-style="italic" lengthAdjust="spacing" textLength="101" x="198.5" y="53.6982">«Component»</text><text fill="#000000" font-family="sans-serif" font-size="14" lengthAdjust="spacing" textLength="70" x="214" y="69.9951">Top Menu</text><rect fill="#E2E2F0" height="46.5938" rx="2.5" ry="2.5" style="stroke:#181818;stroke-width:0.5;" width="115" x="316.5" y="33.7031"/><text fill="#000000" font-family="sans-serif" font-size="14" font-style="italic" lengthAdjust="spacing" textLength="101" x="323.5" y="53.6982">«Component»</text><text fill="#000000" font-family="sans-serif" font-size="14" lengthAdjust="spacing" textLength="48" x="350" y="69.9951">Layout</text><text fill="#000000" font-family="sans-serif" font-size="14" lengthAdjust="spacing" textLength="89" x="441.5" y="77.9951">Backend API</text><path d="M471,29 C471,19 489,19 489,19 C489,19 507,19 507,29 L507,55 C507,65 489,65 489,65 C489,65 471,65 471,55 L471,29 " fill="#E2E2F0" style="stroke:#181818;stroke-width:1.5;"/><path d="M471,29 C471,39 489,39 489,39 C489,39 507,39 507,29 " fill="none" style="stroke:#181818;stroke-width:1.5;"/><rect fill="#FFFFFF" height="340.4609" style="stroke:#181818;stroke-width:1.0;" width="10" x="133.5" y="91.2969"/><path d="M59,96.2969 L59,121.2969 L218,121.2969 L218,106.2969 L208,96.2969 L59,96.2969 " fill="#FEFFDD" style="stroke:#181818;stroke-width:0.5;"/><path d="M208,96.2969 L208,106.2969 L218,106.2969 L208,96.2969 " fill="#FEFFDD" style="stroke:#181818;stroke-width:0.5;"/><text fill="#000000" font-family="sans-serif" font-size="13" lengthAdjust="spacing" textLength="138" x="65" y="113.3638">event list is displayed</text><polygon fill="#181818" points="237,143.5625,247,147.5625,237,151.5625,241,147.5625" style="stroke:#181818;stroke-width:1.0;"/><line style="stroke:#181818;stroke-width:1.0;" x1="23.5" x2="243" y1="147.5625" y2="147.5625"/><text fill="#000000" font-family="sans-serif" font-size="13" lengthAdjust="spacing" textLength="109" x="30.5" y="142.4966">toggle edit mode</text><polygon fill="#181818" points="362,172.6953,372,176.6953,362,180.6953,366,176.6953" style="stroke:#181818;stroke-width:1.0;"/><line style="stroke:#181818;stroke-width:1.0;stroke-dasharray:2.0,2.0;" x1="249" x2="368" y1="176.6953" y2="176.6953"/><text fill="#000000" font-family="sans-serif" font-size="13" lengthAdjust="spacing" textLength="91" x="256" y="171.6294">state changes</text><polygon fill="#181818" points="154.5,201.8281,144.5,205.8281,154.5,209.8281,150.5,205.8281" style="stroke:#181818;stroke-width:1.0;"/><line style="stroke:#181818;stroke-width:1.0;" x1="148.5" x2="373" y1="205.8281" y2="205.8281"/><text fill="#000000" font-family="sans-serif" font-size="13" lengthAdjust="spacing" textLength="103" x="160.5" y="200.7622">enter edit mode</text><polygon fill="#181818" points="121.5,230.9609,131.5,234.9609,121.5,238.9609,125.5,234.9609" style="stroke:#181818;stroke-width:1.0;"/><line style="stroke:#181818;stroke-width:1.0;" x1="23.5" x2="127.5" y1="234.9609" y2="234.9609"/><text fill="#000000" font-family="sans-serif" font-size="13" lengthAdjust="spacing" textLength="86" x="30.5" y="229.895">select events</text><polygon fill="#181818" points="237,260.0938,247,264.0938,237,268.0938,241,264.0938" style="stroke:#181818;stroke-width:1.0;"/><line style="stroke:#181818;stroke-width:1.0;" x1="23.5" x2="243" y1="264.0938" y2="264.0938"/><text fill="#000000" font-family="sans-serif" font-size="13" lengthAdjust="spacing" textLength="76" x="30.5" y="259.0278">click publish</text><polygon fill="#181818" points="477,289.2266,487,293.2266,477,297.2266,481,293.2266" style="stroke:#181818;stroke-width:1.0;"/><line style="stroke:#181818;stroke-width:1.0;" x1="143.5" x2="483" y1="293.2266" y2="293.2266"/><text fill="#000000" font-family="sans-serif" font-size="13" lengthAdjust="spacing" textLength="93" x="150.5" y="288.1606">PUBLISH event</text><polygon fill="#181818" points="154.5,318.3594,144.5,322.3594,154.5,326.3594,150.5,322.3594" style="stroke:#181818;stroke-width:1.0;"/><line style="stroke:#181818;stroke-width:1.0;stroke-dasharray:2.0,2.0;" x1="148.5" x2="488" y1="322.3594" y2="322.3594"/><text fill="#000000" font-family="sans-serif" font-size="13" lengthAdjust="spacing" textLength="51" x="160.5" y="317.2935">success</text><line style="stroke:#181818;stroke-width:1.0;" x1="143.5" x2="185.5" y1="351.4922" y2="351.4922"/><line style="stroke:#181818;stroke-width:1.0;" x1="185.5" x2="185.5" y1="351.4922" y2="364.4922"/><line style="stroke:#181818;stroke-width:1.0;" x1="144.5" x2="185.5" y1="364.4922" y2="364.4922"/><polygon fill="#181818" points="154.5,360.4922,144.5,364.4922,154.5,368.4922,150.5,364.4922" style="stroke:#181818;stroke-width:1.0;"/><text fill="#000000" font-family="sans-serif" font-size="13" lengthAdjust="spacing" textLength="84" x="150.5" y="346.4263">update value</text><polygon fill="#181818" points="362,389.625,372,393.625,362,397.625,366,393.625" style="stroke:#181818;stroke-width:1.0;"/><line style="stroke:#181818;stroke-width:1.0;" x1="143.5" x2="368" y1="393.625" y2="393.625"/><text fill="#000000" font-family="sans-serif" font-size="13" lengthAdjust="spacing" textLength="93" x="150.5" y="388.5591">exit edit mode</text><polygon fill="#181818" points="260,418.7578,250,422.7578,260,426.7578,256,422.7578" style="stroke:#181818;stroke-width:1.0;"/><line style="stroke:#181818;stroke-width:1.0;" x1="254" x2="373" y1="422.7578" y2="422.7578"/><text fill="#000000" font-family="sans-serif" font-size="13" lengthAdjust="spacing" textLength="71" x="266" y="417.6919">view mode</text><!--SRC=[RP3TRi8m38NlynHMx_i225KQqwOXWOIqyG0cyKf46qTDqh6tdzD2Iz6kuf_FzZavMqFmpHnFV5KATUGEZe4wm019NYLrADuxTf6SAPJ7BbfjFRe8nLjFykniY4NcAQUDP4lgYptioQM1YUnRYM6zVkNMivE9gbhoE_pbD6viXl095XsGrHgCUC90K6nGNtBrvR0Tnj1RfHn70kx5ogGBLcCCGs8361kyt20pMBSzoiZi8lk7ifeqhoIgwqOGOoEqR4ZTMwLWDx4h237lqMTqDGLrAmkmq27_sJqikjzwP08rfEDO2l-eqOtL5_3f9FnPpPC2oGy8S3XkTjlFZt63ohNo-KJIca9O3Zy2oPjifiScaLfYar-wYelPocnubjfR-XcwVm00]--></g></svg>